<?xml version="1.0" encoding="utf-8"?>
<!-- Generator: Adobe Illustrator 16.0.0, SVG Export Plug-In . SVG Version: 6.00 Build 0)  -->
<!DOCTYPE svg PUBLIC "-//W3C//DTD SVG 1.1//EN" "http://www.w3.org/Graphics/SVG/1.1/DTD/svg11.dtd">
<svg version="1.1" id="Layer_1" xmlns="http://www.w3.org/2000/svg" xmlns:xlink="http://www.w3.org/1999/xlink" x="0px" y="0px"
	 width="116.709px" height="34.667px" viewBox="0 0 116.709 34.667" enable-background="new 0 0 116.709 34.667"
	 xml:space="preserve">
<g>
	<path fill="#FFFFFF" d="M3.12,28.059c-0.192,0-0.383-0.076-0.526-0.225c-0.275-0.291-0.264-0.75,0.026-1.026l12.072-11.482
		l-5.59-0.343c-0.293-0.018-0.546-0.211-0.641-0.489c-0.096-0.278-0.013-0.585,0.208-0.779L18.76,4.861
		c0.301-0.265,0.759-0.234,1.023,0.066c0.264,0.301,0.234,0.759-0.067,1.024l-8.769,7.693l5.494,0.336
		c0.287,0.018,0.538,0.204,0.637,0.475c0.098,0.271,0.027,0.575-0.183,0.773L3.619,27.86C3.479,27.993,3.298,28.059,3.12,28.059z"/>
</g>
<g>
	<path fill="#FFFFFF" d="M114.985,27.544c-0.218,0-0.434-0.098-0.576-0.285l-10.172-13.303l-0.932,4.376
		c-0.06,0.281-0.279,0.5-0.561,0.558c-0.281,0.059-0.57-0.054-0.738-0.288L93.794,7.127c-0.233-0.326-0.157-0.779,0.167-1.013
		c0.326-0.232,0.779-0.156,1.011,0.169l7.257,10.139l0.918-4.309c0.059-0.277,0.273-0.495,0.55-0.556
		c0.276-0.063,0.563,0.042,0.735,0.267l11.129,14.555c0.242,0.319,0.182,0.773-0.137,1.017
		C115.292,27.495,115.138,27.544,114.985,27.544z"/>
</g>
</svg>
