<?xml version="1.0" encoding="UTF-8" standalone="no"?>
<!-- Generator: Adobe Illustrator 16.0.0, SVG Export Plug-In . SVG Version: 6.00 Build 0)  -->

<svg
   version="1.1"
   id="Layer_1"
   x="0px"
   y="0px"
   width="395.713px"
   height="187.081px"
   viewBox="0 0 395.713 187.081"
   enable-background="new 0 0 395.713 187.081"
   xml:space="preserve"
   xmlns="http://www.w3.org/2000/svg"
   xmlns:svg="http://www.w3.org/2000/svg">
   <defs
   id="defs1097" />

<g
   id="g1092">
	<g
   id="g1068">
		<g
   id="g1050">
			<path

   d="M140.842,96.426l-0.134-2.681c0.718-0.036,1.444-0.093,2.156-0.167l0.28,2.67     C142.383,96.327,141.608,96.388,140.842,96.426z M133.006,96.088c-0.761-0.105-1.527-0.233-2.28-0.378l0.514-2.636     c0.703,0.138,1.421,0.256,2.132,0.354L133.006,96.088z M150.835,94.693l-0.779-2.569c0.687-0.208,1.376-0.439,2.05-0.685     l0.921,2.521C152.307,94.225,151.569,94.472,150.835,94.693z M123.201,93.484c-0.713-0.287-1.428-0.598-2.123-0.924l1.139-2.431     c0.65,0.305,1.318,0.597,1.984,0.865L123.201,93.484z M160.109,90.583l-1.379-2.305c0.614-0.368,1.228-0.758,1.82-1.16     l1.506,2.223C161.421,89.771,160.766,90.188,160.109,90.583z M114.318,88.575c-0.621-0.451-1.238-0.924-1.833-1.408l1.692-2.083     c0.558,0.453,1.135,0.897,1.717,1.317L114.318,88.575z M168.111,84.354l-1.895-1.904c0.509-0.506,1.011-1.033,1.491-1.567     l1.995,1.795C169.19,83.25,168.655,83.812,168.111,84.354z M106.887,81.671c-0.496-0.586-0.979-1.194-1.44-1.806l2.144-1.616     c0.432,0.573,0.885,1.142,1.348,1.69L106.887,81.671z M174.381,76.38l-2.295-1.391c0.372-0.614,0.732-1.247,1.069-1.881     l2.369,1.261C175.165,75.045,174.779,75.723,174.381,76.38z M101.335,73.183c-0.338-0.688-0.66-1.394-0.959-2.099l2.472-1.047     c0.279,0.658,0.582,1.318,0.898,1.962L101.335,73.183z M178.539,67.122l-2.566-0.791c0.212-0.685,0.407-1.386,0.58-2.082     l2.605,0.646C178.973,65.641,178.765,66.39,178.539,67.122z M98.011,63.602c-0.162-0.749-0.303-1.514-0.421-2.271l2.651-0.417     c0.112,0.708,0.244,1.423,0.395,2.125L98.011,63.602z M180.321,57.39l-2.681-0.021c0.039-0.716,0.059-2.036,0.059-2.036h2.684     C180.383,55.333,180.362,56.625,180.321,57.39z M99.789,53.586l-2.684-0.083c0.024-0.768,0.07-1.544,0.136-2.306l2.675,0.231     C99.854,52.142,99.811,52.868,99.789,53.586z M101.234,44.208l-2.583-0.73c0.208-0.738,0.441-1.48,0.689-2.206l2.539,0.873     C101.647,42.823,101.429,43.518,101.234,44.208z M104.915,35.463l-2.33-1.336c0.383-0.665,0.788-1.329,1.207-1.972l2.252,1.463     C105.651,34.219,105.272,34.841,104.915,35.463z M110.606,27.864l-1.938-1.857c0.53-0.554,1.083-1.1,1.645-1.624l1.832,1.962     C111.621,26.835,111.103,27.346,110.606,27.864z M126.534,17.812l-0.84-2.55c0.728-0.24,1.474-0.462,2.215-0.661l0.696,2.592     C127.913,17.379,127.216,17.587,126.534,17.812z M135.841,15.97l-0.197-2.678c0.764-0.056,1.541-0.091,2.308-0.106l0.05,2.686     C137.283,15.884,136.555,15.917,135.841,15.97z"
   id="path1048" />
		</g>
		<g
   id="g1054">
			<path

   d="M131.263,116.96l-0.054-2.684c0.726-0.015,1.458-0.045,2.179-0.091l0.167,2.681     C132.797,116.913,132.025,116.944,131.263,116.96z M123.483,116.56c-0.755-0.096-1.519-0.205-2.269-0.332l0.445-2.646     c0.712,0.118,1.438,0.226,2.156,0.313L123.483,116.56z M141.276,115.815l-0.554-2.626c0.707-0.148,1.42-0.317,2.121-0.497     l0.667,2.602C142.772,115.483,142.021,115.658,141.276,115.815z M113.644,114.378c-0.726-0.236-1.458-0.49-2.173-0.756     l0.937-2.516c0.679,0.252,1.374,0.494,2.063,0.717L113.644,114.378z M150.896,112.809l-1.04-2.476     c0.665-0.279,1.334-0.576,1.984-0.885l1.147,2.427C152.301,112.2,151.598,112.515,150.896,112.809z M104.382,110.374     c-0.667-0.369-1.337-0.755-1.989-1.149l1.394-2.296c0.62,0.376,1.254,0.743,1.888,1.093L104.382,110.374z M159.771,108.049     l-1.485-2.235c0.601-0.402,1.202-0.82,1.786-1.246l1.581,2.171C161.038,107.187,160.404,107.627,159.771,108.049z      M96.042,104.705c-0.586-0.485-1.17-0.991-1.736-1.498l1.798-1.995c0.537,0.484,1.092,0.963,1.65,1.425L96.042,104.705z      M167.601,101.71l-1.875-1.919c0.517-0.506,1.03-1.03,1.526-1.556l1.955,1.836C168.687,100.626,168.146,101.177,167.601,101.71z      M88.91,97.584c-0.484-0.586-0.964-1.189-1.425-1.794l2.138-1.625c0.436,0.574,0.893,1.149,1.354,1.705L88.91,97.584z      M174.118,94.021l-2.201-1.537c0.414-0.594,0.821-1.203,1.209-1.814l2.264,1.44C174.982,92.752,174.554,93.396,174.118,94.021z      M83.234,89.261c-0.367-0.665-0.725-1.346-1.063-2.026l2.403-1.197c0.322,0.646,0.662,1.294,1.011,1.926L83.234,89.261z      M179.084,85.243l-2.451-1.096c0.295-0.661,0.581-1.338,0.848-2.011l2.496,0.988C179.695,83.833,179.396,84.548,179.084,85.243z      M79.219,80.021c-0.236-0.724-0.459-1.463-0.664-2.196l2.585-0.722c0.194,0.697,0.407,1.398,0.631,2.086L79.219,80.021z      M182.31,75.682l-2.614-0.613c0.166-0.704,0.317-1.42,0.452-2.131l2.637,0.5C182.644,74.186,182.483,74.941,182.31,75.682z      M77.017,70.185c-0.095-0.755-0.176-1.521-0.239-2.281l2.675-0.222c0.061,0.722,0.137,1.451,0.227,2.167L77.017,70.185z      M183.675,65.661l-2.682-0.133c0.031-0.721,0.046-2.195,0.046-2.195h2.685C183.723,63.333,183.708,64.902,183.675,65.661z      M79.37,60.278l-2.678-0.164c0.045-0.76,0.108-1.529,0.186-2.285l2.672,0.276C79.475,58.825,79.415,59.554,79.37,60.278z      M80.844,50.818l-2.602-0.661c0.188-0.738,0.394-1.482,0.614-2.212l2.571,0.773C81.219,49.411,81.023,50.118,80.844,50.818z      M84.076,41.804l-2.431-1.141c0.325-0.69,0.669-1.383,1.022-2.059l2.379,1.244C84.708,40.491,84.383,41.149,84.076,41.804z      M88.948,33.556l-2.173-1.576c0.447-0.617,0.915-1.231,1.388-1.829l2.104,1.668C89.816,32.386,89.372,32.97,88.948,33.556z      M95.273,26.364l-1.841-1.953c0.554-0.522,1.126-1.039,1.702-1.536l1.755,2.03C96.344,25.377,95.799,25.869,95.273,26.364z      M102.824,20.482l-1.444-2.263c0.64-0.41,1.299-0.81,1.957-1.191l1.346,2.322C104.058,19.712,103.433,20.093,102.824,20.482z      M111.335,16.118l-0.993-2.494c0.707-0.282,1.43-0.551,2.149-0.802l0.886,2.534C112.694,15.594,112.007,15.85,111.335,16.118z      M130.055,13.333l-0.006-4h0.11l-0.001,4H130.055z"
   id="path1052" />
		</g>
		<g
   id="g1058">
			<path

   d="M122.176,136.258l-0.056-2.683c0.729-0.015,1.465-0.043,2.19-0.082l0.146,2.68     C123.702,136.213,122.935,136.243,122.176,136.258z M114.427,135.972c-0.753-0.071-1.517-0.156-2.268-0.255l0.346-2.663     c0.72,0.095,1.453,0.177,2.177,0.246L114.427,135.972z M132.163,135.301l-0.458-2.647c0.716-0.123,1.439-0.262,2.15-0.41     l0.549,2.629C133.664,135.025,132.909,135.169,132.163,135.301z M104.539,134.267c-0.734-0.185-1.476-0.387-2.205-0.597     l0.746-2.577c0.699,0.201,1.411,0.393,2.115,0.571L104.539,134.267z M141.893,132.84l-0.854-2.543     c0.689-0.232,1.383-0.479,2.063-0.734l0.942,2.515C143.335,132.343,142.611,132.6,141.893,132.84z M95.018,131.077     c-0.698-0.294-1.402-0.608-2.091-0.926l1.129-2.435c0.662,0.306,1.337,0.605,2.007,0.888L95.018,131.077z M151.136,128.932     l-1.231-2.387c0.644-0.333,1.292-0.682,1.925-1.036l1.313,2.342C152.482,128.223,151.807,128.584,151.136,128.932z      M86.091,126.478c-0.645-0.397-1.293-0.813-1.925-1.232l1.485-2.234c0.606,0.403,1.228,0.799,1.847,1.181L86.091,126.478z      M159.673,123.67l-1.576-2.171c0.588-0.428,1.176-0.869,1.749-1.317l1.65,2.118C160.899,122.765,160.286,123.226,159.673,123.67z      M77.964,120.585c-0.578-0.49-1.155-0.997-1.716-1.505l1.804-1.989c0.539,0.488,1.093,0.976,1.647,1.446L77.964,120.585z      M167.326,117.185l-1.886-1.912c0.517-0.51,1.033-1.035,1.534-1.563l1.95,1.844C168.401,116.104,167.864,116.652,167.326,117.185     z M70.818,113.541c-0.497-0.572-0.992-1.159-1.47-1.745l2.082-1.695c0.459,0.564,0.933,1.128,1.412,1.676L70.818,113.541z      M173.918,109.62l-2.15-1.606c0.434-0.583,0.866-1.182,1.281-1.778l2.205,1.531C174.821,108.389,174.373,109.014,173.918,109.62z      M64.813,105.506c-0.406-0.64-0.806-1.293-1.189-1.944l2.313-1.362c0.37,0.627,0.753,1.253,1.142,1.867L64.813,105.506z      M179.301,101.146l-2.369-1.264c0.343-0.644,0.679-1.301,1-1.952l2.41,1.18C180.009,99.791,179.659,100.477,179.301,101.146z      M60.089,96.66c-0.305-0.691-0.6-1.398-0.88-2.1l2.493-0.995c0.269,0.674,0.553,1.35,0.844,2.014L60.089,96.66z M183.34,91.95     l-2.533-0.888c0.241-0.688,0.473-1.39,0.69-2.085l2.563,0.801C183.834,90.502,183.592,91.233,183.34,91.95z M56.761,87.199     c-0.195-0.731-0.381-1.477-0.552-2.215l2.615-0.604c0.165,0.708,0.343,1.422,0.531,2.123L56.761,87.199z M185.933,82.249     l-2.639-0.494c0.134-0.713,0.256-1.441,0.365-2.159l2.654,0.401C186.201,80.747,186.073,81.505,185.933,82.249z M54.909,77.337     c-0.083-0.752-0.154-1.517-0.211-2.271l2.677-0.203c0.055,0.724,0.123,1.458,0.203,2.18L54.909,77.337z M187.025,72.445     l-2.683-0.006c0.025-0.727,0.038-1.106,0.038-2.106h2.684C187.064,71.333,187.051,71.69,187.025,72.445z M57.242,67.418     l-2.683-0.106c0.03-0.757,0.074-1.524,0.129-2.279l2.678,0.198C57.313,65.955,57.271,66.69,57.242,67.418z M58.349,57.854     l-2.636-0.51c0.144-0.744,0.302-1.495,0.472-2.233l2.616,0.601C58.638,56.419,58.485,57.14,58.349,57.854z M60.891,48.565     l-2.527-0.904c0.256-0.715,0.528-1.437,0.809-2.142l2.495,0.991C61.397,47.188,61.137,47.879,60.891,48.565z M64.82,39.767     l-2.361-1.279c0.361-0.667,0.739-1.336,1.123-1.991l2.315,1.358C65.529,38.483,65.167,39.126,64.82,39.767z M70.035,31.665     l-2.141-1.619c0.457-0.604,0.93-1.208,1.408-1.797l2.084,1.691C70.928,30.505,70.473,31.085,70.035,31.665z M76.406,24.444     l-1.873-1.921c0.542-0.53,1.101-1.056,1.661-1.565l1.808,1.985C77.464,23.431,76.927,23.937,76.406,24.444z M83.789,18.263     l-1.563-2.182c0.616-0.44,1.246-0.877,1.876-1.296l1.487,2.234C84.984,17.421,84.378,17.84,83.789,18.263z M92.012,13.266     l-1.216-2.394c0.673-0.342,1.362-0.678,2.047-0.996l1.132,2.433C93.319,12.615,92.658,12.937,92.012,13.266z M100.896,9.571     l-0.839-2.551c0.72-0.236,1.454-0.464,2.181-0.674l0.75,2.578C102.291,9.126,101.587,9.344,100.896,9.571z M110.244,7.27     l-0.442-2.648c0.747-0.124,1.507-0.237,2.257-0.336l0.35,2.662C111.689,7.041,110.96,7.15,110.244,7.27z M120.272,6.406     l0.179-2.684c0.33-0.005,0.215-0.007,1.215-0.007V6.4C120.667,6.4,120.588,6.401,120.272,6.406z"
   id="path1056" />
		</g>
		<g
   id="g1062">
			<path

   d="M113.064,159.322l-0.052-2.685c0.729-0.014,1.469-0.039,2.197-0.074l0.13,2.681     C114.584,159.281,113.82,159.307,113.064,159.322z M105.337,159.102c-0.752-0.057-1.514-0.127-2.266-0.206l0.283-2.672     c0.726,0.079,1.462,0.146,2.19,0.202L105.337,159.102z M123.033,158.497l-0.39-2.655c0.722-0.106,1.451-0.224,2.17-0.351     l0.466,2.644C124.536,158.267,123.779,158.388,123.033,158.497z M95.432,157.705c-0.739-0.153-1.487-0.319-2.221-0.493     l0.619-2.611c0.71,0.168,1.433,0.327,2.146,0.475L95.432,157.705z M132.819,156.419l-0.724-2.585     c0.702-0.195,1.411-0.406,2.107-0.625l0.799,2.563C134.28,155.997,133.546,156.216,132.819,156.419z M85.783,155.06     c-0.716-0.246-1.438-0.507-2.147-0.775l0.947-2.51c0.685,0.259,1.383,0.51,2.074,0.748L85.783,155.06z M142.261,153.11     l-1.049-2.473c0.671-0.283,1.346-0.581,2.005-0.883l1.12,2.438C143.652,152.507,142.955,152.815,142.261,153.11z M76.542,151.202     c-0.678-0.334-1.359-0.685-2.028-1.041l1.259-2.37c0.646,0.345,1.305,0.683,1.96,1.004L76.542,151.202z M151.199,148.63     l-1.353-2.318c0.629-0.369,1.261-0.75,1.878-1.134l1.419,2.278C152.505,147.854,151.851,148.248,151.199,148.63z M67.869,146.205     c-0.629-0.419-1.261-0.853-1.878-1.288l1.549-2.192c0.596,0.422,1.207,0.839,1.815,1.243L67.869,146.205z M159.5,143.054     l-1.635-2.131c0.577-0.444,1.157-0.901,1.723-1.36l1.695,2.08C160.697,142.118,160.099,142.594,159.5,143.054z M59.901,140.153     c-0.572-0.495-1.144-1.002-1.702-1.514l1.813-1.979c0.539,0.492,1.092,0.984,1.644,1.46L59.901,140.153z M167.035,136.476     l-1.89-1.908c0.518-0.514,1.036-1.043,1.538-1.569l1.943,1.852C168.106,135.395,167.571,135.941,167.035,136.476z      M52.757,133.147c-0.504-0.563-1.007-1.139-1.494-1.714l2.046-1.737c0.472,0.557,0.958,1.113,1.445,1.655L52.757,133.147z      M173.683,128.997l-2.115-1.654c0.45-0.574,0.897-1.163,1.331-1.751l2.16,1.593C174.611,127.791,174.148,128.402,173.683,128.997     z M46.554,125.3c-0.429-0.619-0.855-1.254-1.266-1.886l2.249-1.465c0.398,0.609,0.81,1.223,1.225,1.821L46.554,125.3z      M179.337,120.741l-2.307-1.374c0.375-0.625,0.744-1.27,1.099-1.906l2.345,1.305     C180.106,119.428,179.724,120.091,179.337,120.741z M41.391,116.733c-0.347-0.669-0.689-1.351-1.018-2.029l2.418-1.169     c0.316,0.655,0.646,1.316,0.981,1.962L41.391,116.733z M183.902,111.833l-2.462-1.07c0.292-0.67,0.577-1.354,0.849-2.032     l2.492,0.997C184.5,110.431,184.204,111.139,183.902,111.833z M37.358,107.584c-0.261-0.709-0.514-1.432-0.753-2.147l2.547-0.851     c0.23,0.69,0.475,1.389,0.726,2.074L37.358,107.584z M187.296,102.416l-2.578-0.748c0.203-0.7,0.398-1.413,0.581-2.12l2.6,0.673     C187.709,100.952,187.506,101.69,187.296,102.416z M34.52,97.989c-0.167-0.735-0.326-1.484-0.472-2.227l2.633-0.52     c0.142,0.717,0.294,1.439,0.456,2.15L34.52,97.989z M189.462,92.648l-2.652-0.414c0.112-0.72,0.215-1.452,0.306-2.177     l2.664,0.337C189.685,91.146,189.578,91.901,189.462,92.648z M32.926,88.112c-0.073-0.75-0.135-1.512-0.186-2.266l2.679-0.182     c0.049,0.727,0.109,1.465,0.18,2.19L32.926,88.112z M190.373,82.646l-2.683-0.095c0.021-0.728,0.031-1.218,0.031-2.218h2.685     C190.405,81.333,190.393,81.894,190.373,82.646z M35.272,78.193l-2.684-0.078c0.021-0.754,0.055-1.52,0.097-2.272l2.681,0.153     C35.325,76.724,35.292,77.463,35.272,78.193z M36.154,68.568l-2.652-0.414c0.116-0.746,0.245-1.501,0.382-2.243l2.639,0.49     C36.391,67.119,36.266,67.847,36.154,68.568z M38.25,59.131l-2.578-0.749c0.211-0.727,0.437-1.462,0.668-2.182l2.555,0.823     C38.671,57.718,38.454,58.428,38.25,59.131z M41.534,50.032l-2.462-1.071c0.302-0.693,0.618-1.393,0.94-2.078l2.43,1.142     C42.13,48.687,41.825,49.361,41.534,50.032z M45.947,41.428l-2.306-1.375c0.387-0.649,0.789-1.302,1.194-1.939l2.266,1.44     C46.708,40.17,46.321,40.8,45.947,41.428z M51.415,33.453l-2.114-1.656c0.466-0.594,0.947-1.19,1.429-1.772l2.065,1.715     C52.329,32.302,51.865,32.878,51.415,33.453z M57.843,26.231l-1.889-1.907c0.537-0.532,1.089-1.062,1.64-1.577l1.833,1.96     C58.894,25.206,58.361,25.718,57.843,26.231z M65.125,19.878l-1.633-2.129c0.598-0.459,1.212-0.916,1.823-1.358l1.572,2.176     C66.297,18.993,65.703,19.435,65.125,19.878z M73.149,14.495l-1.352-2.319c0.65-0.379,1.317-0.755,1.979-1.116l1.283,2.357     C74.421,13.766,73.778,14.128,73.149,14.495z M81.784,10.172L80.738,7.7c0.694-0.293,1.402-0.581,2.103-0.854l0.974,2.501     C83.138,9.611,82.454,9.889,81.784,10.172z M90.899,6.983l-0.724-2.585c0.577-0.162,1.164-0.319,1.743-0.466l0.663,2.601     C92.021,6.676,91.455,6.826,90.899,6.983z"
   id="path1060" />
		</g>
		<g
   id="g1066">
			<path

   d="M98.667,187.081c0,0-1.577-0.009-2.328-0.027l0.093-2.684c0.729,0.018,2.234,0.027,2.234,0.027V187.081z      M106.25,186.778l-0.213-2.678c0.73-0.058,1.469-0.126,2.196-0.201l0.276,2.67C107.762,186.646,107.002,186.717,106.25,186.778z      M88.587,186.565c-0.75-0.078-1.508-0.168-2.253-0.262l0.341-2.662c0.725,0.091,1.462,0.178,2.19,0.254L88.587,186.565z      M116.14,185.464l-0.492-2.639c0.72-0.133,1.448-0.28,2.162-0.431l0.555,2.629C117.629,185.178,116.881,185.326,116.14,185.464z      M78.732,185.015c-0.737-0.156-1.482-0.323-2.214-0.498l0.619-2.611c0.711,0.168,1.435,0.331,2.15,0.482L78.732,185.015z      M125.837,183.122l-0.767-2.573c0.701-0.209,1.409-0.429,2.105-0.655l0.829,2.554     C127.288,182.681,126.559,182.907,125.837,183.122z M69.094,182.436c-0.718-0.233-1.443-0.479-2.157-0.729l0.891-2.533     c0.693,0.244,1.398,0.484,2.095,0.71L69.094,182.436z M135.229,179.773l-1.033-2.478c0.672-0.282,1.351-0.576,2.017-0.87     l1.093,2.454C136.621,179.184,135.922,179.484,135.229,179.773z M59.767,178.85c-0.688-0.307-1.384-0.627-2.065-0.95l1.153-2.425     c0.663,0.315,1.338,0.626,2.007,0.925L59.767,178.85z M144.213,175.458l-1.289-2.355c0.641-0.35,1.286-0.713,1.917-1.079     l1.343,2.325C145.536,174.725,144.872,175.097,144.213,175.458z M50.875,174.305c-0.651-0.378-1.308-0.769-1.952-1.161     l1.401-2.291c0.625,0.384,1.264,0.762,1.897,1.13L50.875,174.305z M152.697,170.226l-1.526-2.21     c0.602-0.415,1.205-0.844,1.795-1.272l1.58,2.17C153.938,169.356,153.316,169.797,152.697,170.226z M42.51,168.857     c-0.608-0.445-1.22-0.902-1.818-1.361l1.631-2.132c0.582,0.447,1.177,0.892,1.769,1.322L42.51,168.857z M160.594,164.132     l-1.749-2.037c0.555-0.477,1.112-0.966,1.655-1.454l1.796,1.995C161.738,163.139,161.164,163.643,160.594,164.132z      M34.761,162.567c-0.559-0.505-1.119-1.022-1.666-1.539l1.845-1.952c0.531,0.503,1.076,1.008,1.619,1.497L34.761,162.567z      M167.815,157.251l-1.95-1.844c0.503-0.532,1.007-1.078,1.496-1.62l1.994,1.797C168.851,156.142,168.333,156.703,167.815,157.251     z M27.712,155.507c-0.503-0.559-1.006-1.132-1.498-1.703l2.038-1.749c0.476,0.556,0.966,1.113,1.455,1.656L27.712,155.507z      M174.284,149.654l-2.131-1.632c0.444-0.582,0.889-1.176,1.319-1.77l2.17,1.58C175.199,148.443,174.742,149.056,174.284,149.654z      M21.435,147.755c-0.441-0.608-0.883-1.23-1.31-1.847l2.208-1.527c0.416,0.6,0.844,1.206,1.273,1.796L21.435,147.755z      M179.928,141.42l-2.291-1.398c0.383-0.625,0.763-1.263,1.13-1.898l2.323,1.346C180.712,140.121,180.322,140.779,179.928,141.42z      M16.002,139.394c-0.376-0.65-0.748-1.314-1.11-1.974l2.356-1.286c0.351,0.64,0.713,1.285,1.078,1.916L16.002,139.394z      M184.682,132.64l-2.425-1.152c0.315-0.661,0.627-1.336,0.925-2.007l2.451,1.094C185.326,131.265,185.005,131.958,184.682,132.64     z M11.474,130.513c-0.304-0.684-0.606-1.383-0.894-2.076l2.478-1.033c0.28,0.672,0.573,1.354,0.869,2.018L11.474,130.513z      M188.487,123.404l-2.533-0.89c0.244-0.692,0.481-1.397,0.709-2.096l2.553,0.829     C188.983,121.967,188.738,122.691,188.487,123.404z M7.907,121.21c-0.232-0.716-0.458-1.443-0.674-2.166l2.572-0.767     c0.209,0.701,0.429,1.409,0.655,2.104L7.907,121.21z M191.296,113.822l-2.611-0.618c0.168-0.711,0.33-1.434,0.481-2.15     l2.627,0.556C191.637,112.346,191.47,113.091,191.296,113.822z M5.334,111.571c-0.156-0.737-0.304-1.484-0.441-2.227l2.638-0.491     c0.134,0.72,0.279,1.446,0.43,2.162L5.334,111.571z M193.081,104.008l-2.663-0.341c0.093-0.726,0.178-1.462,0.254-2.189     l2.67,0.275C193.264,102.503,193.176,103.262,193.081,104.008z M3.789,101.716c-0.077-0.75-0.147-1.508-0.207-2.26l2.676-0.215     c0.06,0.731,0.126,1.47,0.201,2.198L3.789,101.716z M193.83,94.33l-2.684,0.071c0.018-0.73,0.025-2.068,0.025-2.068h2.685     C193.856,92.333,193.847,93.579,193.83,94.33z M5.964,91.755l-2.685-0.002c0.001-0.754,0.009-1.516,0.027-2.268l2.684,0.063     C5.973,90.279,5.964,91.021,5.964,91.755z M6.468,82.068l-2.67-0.278c0.078-0.748,0.166-1.507,0.262-2.253l2.663,0.342     C6.63,80.604,6.544,81.341,6.468,82.068z M7.979,72.487L5.352,71.93c0.157-0.739,0.325-1.486,0.499-2.221l2.613,0.62     C8.294,71.044,8.13,71.769,7.979,72.487z M10.49,63.111l-2.552-0.83c0.233-0.717,0.479-1.443,0.729-2.155l2.532,0.893     C10.956,61.711,10.717,62.414,10.49,63.111z M13.976,54.056l-2.451-1.095c0.307-0.688,0.628-1.382,0.952-2.064l2.423,1.154     C14.586,52.712,14.275,53.388,13.976,54.056z M18.394,45.418l-2.323-1.346c0.379-0.651,0.769-1.309,1.163-1.951l2.289,1.402     C19.142,44.147,18.761,44.785,18.394,45.418z M23.691,37.292l-2.169-1.582c0.443-0.609,0.901-1.22,1.359-1.819l2.131,1.632     C24.567,36.107,24.123,36.701,23.691,37.292z M29.807,29.763l-1.992-1.798c0.503-0.56,1.021-1.12,1.539-1.667l1.95,1.845     C30.801,28.675,30.297,29.22,29.807,29.763z M36.671,22.912l-1.795-1.996c0.559-0.503,1.133-1.007,1.704-1.496l1.748,2.038     C37.772,21.934,37.215,22.423,36.671,22.912z M44.21,16.813l-1.578-2.171c0.607-0.442,1.23-0.883,1.849-1.311l1.526,2.209     C45.406,15.956,44.801,16.384,44.21,16.813z M52.34,11.535l-1.341-2.326c0.651-0.376,1.316-0.75,1.976-1.11l1.286,2.356     C53.62,10.806,52.973,11.168,52.34,11.535z"
   id="path1064" />
		</g>
	</g>
	<g
   id="g1090">
		<g
   id="g1072">
			<path

   d="M259.118,96.426c-0.768-0.038-1.542-0.099-2.304-0.178l0.281-2.67c0.713,0.074,1.438,0.131,2.156,0.167     L259.118,96.426z M266.954,96.088l-0.366-2.66c0.711-0.098,1.429-0.216,2.132-0.354l0.514,2.636     C268.48,95.854,267.713,95.982,266.954,96.088z M249.125,94.693c-0.733-0.222-1.472-0.469-2.192-0.733l0.922-2.521     c0.674,0.245,1.363,0.477,2.049,0.685L249.125,94.693z M276.76,93.484l-1.002-2.489c0.666-0.269,1.334-0.561,1.984-0.865     l1.141,2.431C278.186,92.887,277.472,93.197,276.76,93.484z M239.851,90.583c-0.657-0.395-1.313-0.812-1.947-1.242l1.505-2.223     c0.594,0.402,1.207,0.792,1.821,1.16L239.851,90.583z M285.641,88.575l-1.576-2.175c0.582-0.42,1.159-0.864,1.716-1.317     l1.693,2.083C286.879,87.651,286.262,88.125,285.641,88.575z M231.848,84.354c-0.543-0.542-1.078-1.104-1.592-1.676l1.996-1.795     c0.479,0.534,0.981,1.061,1.49,1.567L231.848,84.354z M293.073,81.671l-2.052-1.731c0.463-0.549,0.916-1.118,1.348-1.69     l2.144,1.616C294.052,80.477,293.567,81.085,293.073,81.671z M225.578,76.38c-0.397-0.658-0.782-1.334-1.143-2.012l2.37-1.261     c0.337,0.633,0.696,1.267,1.068,1.881L225.578,76.38z M298.624,73.183l-2.409-1.184c0.315-0.644,0.618-1.305,0.897-1.963     l2.471,1.049C299.284,71.789,298.961,72.495,298.624,73.183z M221.42,67.122c-0.227-0.732-0.435-1.481-0.619-2.227l2.605-0.646     c0.173,0.695,0.367,1.396,0.579,2.082L221.42,67.122z M301.949,63.602l-2.624-0.562c0.149-0.702,0.283-1.417,0.393-2.125     l2.653,0.415C302.25,62.088,302.11,62.852,301.949,63.602z M219.639,57.39c-0.041-0.764-0.063-2.057-0.063-2.057h2.685     c0,0,0.02,1.32,0.06,2.036L219.639,57.39z M300.17,53.586c-0.022-0.719-0.065-1.445-0.127-2.158l2.675-0.231     c0.066,0.762,0.11,1.537,0.136,2.306L300.17,53.586z M298.725,44.208c-0.194-0.69-0.411-1.384-0.646-2.063l2.539-0.873     c0.249,0.726,0.481,1.468,0.69,2.206L298.725,44.208z M295.044,35.463c-0.356-0.622-0.735-1.244-1.128-1.847l2.25-1.461     c0.419,0.643,0.824,1.307,1.207,1.972L295.044,35.463z M289.354,27.864c-0.497-0.517-1.016-1.029-1.54-1.519l1.833-1.962     c0.561,0.524,1.113,1.07,1.645,1.624L289.354,27.864z M282.002,21.859c-0.606-0.382-1.231-0.753-1.857-1.102l1.306-2.347     c0.67,0.373,1.337,0.77,1.985,1.179L282.002,21.859z M273.424,17.812c-0.681-0.225-1.377-0.433-2.07-0.619l0.696-2.592     c0.741,0.198,1.486,0.42,2.215,0.661L273.424,17.812z M264.119,15.97c-0.716-0.053-1.442-0.086-2.16-0.099l0.049-2.686     c0.767,0.015,1.544,0.051,2.308,0.106L264.119,15.97z"
   id="path1070" />
		</g>
		<g
   id="g1076">
			<path

   d="M268.696,116.96c-0.763-0.016-1.534-0.047-2.291-0.094l0.167-2.681c0.72,0.046,1.454,0.076,2.179,0.091     L268.696,116.96z M276.475,116.56l-0.331-2.665c0.718-0.088,1.443-0.195,2.156-0.313l0.444,2.646     C277.995,116.354,277.231,116.464,276.475,116.56z M258.683,115.815c-0.745-0.157-1.497-0.332-2.233-0.521l0.667-2.602     c0.7,0.18,1.413,0.349,2.121,0.497L258.683,115.815z M286.316,114.378l-0.827-2.555c0.689-0.223,1.384-0.466,2.063-0.717     l0.938,2.516C287.772,113.888,287.042,114.142,286.316,114.378z M249.063,112.809c-0.701-0.294-1.404-0.608-2.092-0.934     l1.146-2.427c0.652,0.309,1.32,0.605,1.985,0.885L249.063,112.809z M295.578,110.374l-1.294-2.353     c0.633-0.349,1.27-0.717,1.889-1.093l1.393,2.296C296.914,109.619,296.245,110.005,295.578,110.374z M240.188,108.049     c-0.633-0.422-1.267-0.862-1.881-1.311l1.58-2.171c0.584,0.426,1.186,0.844,1.787,1.246L240.188,108.049z M303.917,104.705     l-1.711-2.068c0.558-0.462,1.113-0.94,1.65-1.425l1.797,1.995C305.087,103.714,304.502,104.22,303.917,104.705z M232.357,101.71     c-0.544-0.531-1.084-1.083-1.605-1.639l1.958-1.836c0.494,0.525,1.008,1.05,1.525,1.556L232.357,101.71z M311.048,97.584     l-2.066-1.714c0.462-0.556,0.917-1.131,1.354-1.705l2.137,1.625C312.014,96.395,311.534,96.998,311.048,97.584z M225.841,94.021     c-0.436-0.626-0.864-1.27-1.273-1.911l2.266-1.44c0.389,0.611,0.796,1.221,1.21,1.814L225.841,94.021z M316.725,89.261     l-2.35-1.297c0.348-0.632,0.688-1.28,1.01-1.926l2.402,1.197C317.45,87.915,317.092,88.597,316.725,89.261z M220.875,85.243     c-0.311-0.695-0.611-1.41-0.893-2.119l2.495-0.988c0.267,0.673,0.553,1.35,0.849,2.011L220.875,85.243z M320.741,80.021     l-2.553-0.832c0.225-0.688,0.436-1.389,0.63-2.086l2.586,0.722C321.2,78.558,320.977,79.296,320.741,80.021z M217.65,75.682     c-0.175-0.741-0.334-1.497-0.476-2.245l2.638-0.5c0.134,0.711,0.286,1.428,0.451,2.131L217.65,75.682z M322.943,70.185     l-2.664-0.336c0.091-0.717,0.167-1.447,0.228-2.167l2.675,0.222C323.118,68.662,323.038,69.429,322.943,70.185z M216.284,65.661     c-0.033-0.759-0.049-2.328-0.049-2.328h2.686c0,0,0.015,1.475,0.046,2.195L216.284,65.661z M320.588,60.278     c-0.043-0.724-0.104-1.455-0.178-2.172l2.67-0.276c0.078,0.755,0.141,1.524,0.188,2.285L320.588,60.278z M319.115,50.818     c-0.179-0.7-0.375-1.407-0.583-2.098l2.57-0.775c0.22,0.729,0.426,1.472,0.614,2.212L319.115,50.818z M315.883,41.804     c-0.308-0.655-0.633-1.313-0.97-1.956l2.378-1.244c0.354,0.676,0.698,1.369,1.023,2.059L315.883,41.804z M311.011,33.556     c-0.425-0.585-0.866-1.17-1.317-1.737l2.104-1.668c0.474,0.598,0.94,1.212,1.387,1.829L311.011,33.556z M304.686,26.364     c-0.525-0.495-1.071-0.987-1.617-1.459l1.757-2.03c0.575,0.497,1.147,1.014,1.701,1.536L304.686,26.364z M297.135,20.482     c-0.608-0.389-1.233-0.77-1.858-1.132l1.346-2.322c0.657,0.382,1.316,0.782,1.957,1.191L297.135,20.482z M288.624,16.118     c-0.671-0.268-1.358-0.524-2.04-0.763l0.885-2.534c0.718,0.251,1.441,0.521,2.149,0.802L288.624,16.118z M279.437,13.434     c-0.71-0.136-1.434-0.257-2.148-0.364l0.392-2.655c0.753,0.112,1.514,0.239,2.262,0.383L279.437,13.434z M269.905,13.333h-0.102     l-0.003-4h0.11L269.905,13.333z"
   id="path1074" />
		</g>
		<g
   id="g1080">
			<path

   d="M277.784,136.258c-0.758-0.015-1.525-0.045-2.281-0.085l0.146-2.68c0.725,0.039,1.462,0.067,2.189,0.082     L277.784,136.258z M285.532,135.972l-0.254-2.672c0.725-0.069,1.456-0.151,2.176-0.246l0.347,2.663     C287.049,135.815,286.286,135.9,285.532,135.972z M267.796,135.301c-0.746-0.132-1.501-0.275-2.242-0.429l0.548-2.629     c0.712,0.148,1.437,0.287,2.152,0.412L267.796,135.301z M295.421,134.267l-0.657-2.603c0.705-0.179,1.417-0.37,2.114-0.571     l0.746,2.578C296.896,133.88,296.155,134.082,295.421,134.267z M258.067,132.84c-0.719-0.24-1.443-0.497-2.152-0.763l0.943-2.515     c0.681,0.255,1.374,0.502,2.063,0.734L258.067,132.84z M304.94,131.077l-1.045-2.473c0.672-0.282,1.348-0.582,2.008-0.888     l1.13,2.435C306.344,130.469,305.639,130.783,304.94,131.077z M248.823,128.932c-0.67-0.348-1.346-0.709-2.006-1.081l1.313-2.342     c0.634,0.354,1.281,0.703,1.925,1.036L248.823,128.932z M313.87,126.478l-1.408-2.286c0.62-0.382,1.241-0.777,1.848-1.181     l1.484,2.234C315.162,125.665,314.514,126.08,313.87,126.478z M240.286,123.67c-0.611-0.444-1.225-0.905-1.822-1.37l1.65-2.118     c0.573,0.448,1.161,0.891,1.75,1.317L240.286,123.67z M321.995,120.585l-1.734-2.048c0.555-0.471,1.109-0.958,1.646-1.446     l1.806,1.989C323.151,119.588,322.573,120.094,321.995,120.585z M232.633,117.185c-0.539-0.533-1.076-1.08-1.596-1.632     l1.949-1.844c0.5,0.528,1.016,1.054,1.532,1.563L232.633,117.185z M329.141,113.541l-2.023-1.765     c0.479-0.548,0.953-1.111,1.411-1.676l2.083,1.695C330.133,112.382,329.639,112.969,329.141,113.541z M226.041,109.62     c-0.452-0.606-0.903-1.231-1.336-1.854l2.205-1.531c0.415,0.597,0.847,1.195,1.282,1.778L226.041,109.62z M335.147,105.506     l-2.266-1.439c0.391-0.614,0.773-1.241,1.141-1.867l2.314,1.362C335.954,104.213,335.553,104.866,335.147,105.506z      M220.659,101.146c-0.357-0.67-0.708-1.355-1.043-2.036l2.412-1.18c0.32,0.651,0.656,1.309,0.999,1.952L220.659,101.146z      M339.87,96.66l-2.457-1.081c0.291-0.663,0.575-1.34,0.846-2.014l2.491,0.995C340.47,95.263,340.173,95.969,339.87,96.66z      M216.62,91.95c-0.252-0.717-0.494-1.448-0.721-2.172l2.562-0.801c0.218,0.695,0.45,1.397,0.692,2.085L216.62,91.95z      M343.198,87.199l-2.594-0.696c0.188-0.701,0.367-1.415,0.531-2.123l2.615,0.604C343.581,85.722,343.394,86.468,343.198,87.199z      M214.026,82.249c-0.139-0.744-0.267-1.502-0.381-2.251l2.654-0.401c0.109,0.718,0.232,1.445,0.365,2.159L214.026,82.249z      M345.051,77.337l-2.668-0.294c0.078-0.721,0.146-1.456,0.201-2.18l2.678,0.203C345.204,75.82,345.134,76.585,345.051,77.337z      M212.934,72.445c-0.026-0.755-0.039-1.112-0.039-2.112h2.686c0,1,0.011,1.379,0.036,2.106L212.934,72.445z M342.717,67.418     c-0.029-0.728-0.071-1.463-0.125-2.188l2.678-0.198c0.056,0.754,0.1,1.522,0.129,2.278L342.717,67.418z M341.611,57.853     c-0.138-0.714-0.29-1.436-0.452-2.143l2.616-0.6c0.169,0.737,0.328,1.488,0.472,2.232L341.611,57.853z M339.067,48.563     c-0.246-0.686-0.506-1.377-0.775-2.052l2.495-0.992c0.28,0.705,0.553,1.425,0.809,2.14L339.067,48.563z M335.138,39.764     c-0.347-0.64-0.708-1.282-1.077-1.911l2.314-1.358c0.385,0.654,0.763,1.324,1.123,1.991L335.138,39.764z M329.924,31.664     c-0.44-0.581-0.895-1.161-1.353-1.725l2.083-1.692c0.479,0.588,0.952,1.192,1.41,1.797L329.924,31.664z M323.55,24.442     c-0.521-0.508-1.057-1.013-1.595-1.501l1.807-1.986c0.561,0.509,1.119,1.036,1.662,1.564L323.55,24.442z M316.168,18.26     c-0.59-0.422-1.197-0.841-1.802-1.243l1.488-2.235c0.63,0.42,1.261,0.857,1.876,1.296L316.168,18.26z M307.944,13.264     c-0.647-0.328-1.309-0.651-1.967-0.957l1.133-2.434c0.686,0.32,1.375,0.654,2.051,0.997L307.944,13.264z M299.062,9.571     c-0.688-0.227-1.392-0.445-2.088-0.647l0.749-2.578c0.727,0.211,1.459,0.438,2.179,0.674L299.062,9.571z"
   id="path1078" />
		</g>
		<g
   id="g1084">
			<path

   d="M286.895,159.322c-0.756-0.016-1.521-0.041-2.273-0.078l0.129-2.681c0.728,0.035,1.467,0.061,2.197,0.074     L286.895,159.322z M294.622,159.102l-0.205-2.676c0.727-0.056,1.463-0.123,2.188-0.202l0.283,2.672     C296.135,158.975,295.375,159.045,294.622,159.102z M276.926,158.497c-0.747-0.109-1.502-0.23-2.245-0.362l0.466-2.644     c0.717,0.127,1.447,0.244,2.17,0.351L276.926,158.497z M304.527,157.705l-0.542-2.63c0.713-0.147,1.435-0.307,2.145-0.475     l0.619,2.611C306.014,157.386,305.266,157.552,304.527,157.705z M267.141,156.419c-0.727-0.203-1.461-0.421-2.184-0.646     l0.8-2.563c0.697,0.219,1.405,0.43,2.108,0.625L267.141,156.419z M314.176,155.06l-0.873-2.537     c0.69-0.238,1.389-0.489,2.073-0.748l0.948,2.51C315.614,154.553,314.892,154.813,314.176,155.06z M257.698,153.11     c-0.693-0.295-1.391-0.604-2.074-0.918l1.118-2.438c0.661,0.303,1.335,0.6,2.004,0.883L257.698,153.11z M323.417,151.202     l-1.189-2.407c0.653-0.321,1.313-0.659,1.959-1.004l1.261,2.37C324.776,150.518,324.094,150.868,323.417,151.202z M248.76,148.63     c-0.652-0.382-1.307-0.776-1.945-1.174l1.42-2.278c0.617,0.384,1.249,0.765,1.878,1.134L248.76,148.63z M332.088,146.205     l-1.483-2.237c0.608-0.404,1.22-0.821,1.814-1.243l1.55,2.192C333.352,145.353,332.719,145.786,332.088,146.205z      M240.458,143.054c-0.598-0.46-1.197-0.936-1.783-1.411l1.695-2.08c0.565,0.459,1.146,0.916,1.724,1.36L240.458,143.054z      M340.06,140.153l-1.756-2.033c0.551-0.476,1.104-0.968,1.642-1.46l1.813,1.979C341.202,139.151,340.63,139.659,340.06,140.153z      M232.924,136.476c-0.535-0.534-1.072-1.079-1.592-1.626l1.943-1.852c0.503,0.526,1.021,1.056,1.538,1.569L232.924,136.476z      M347.202,133.147l-1.996-1.796c0.486-0.542,0.974-1.099,1.444-1.655l2.047,1.737     C348.209,132.009,347.706,132.584,347.202,133.147z M226.276,128.997c-0.465-0.595-0.928-1.204-1.377-1.813l2.162-1.593     c0.433,0.588,0.881,1.177,1.33,1.751L226.276,128.997z M353.407,125.3l-2.208-1.529c0.415-0.599,0.826-1.212,1.225-1.821     l2.249,1.465C354.261,124.046,353.835,124.681,353.407,125.3z M220.623,120.741c-0.388-0.65-0.771-1.313-1.138-1.976l2.346-1.305     c0.354,0.637,0.725,1.281,1.098,1.906L220.623,120.741z M358.569,116.733l-2.384-1.236c0.336-0.646,0.666-1.307,0.982-1.962     l2.417,1.169C359.257,115.383,358.915,116.066,358.569,116.733z M216.058,111.833c-0.302-0.694-0.598-1.402-0.88-2.105     l2.492-0.997c0.271,0.679,0.558,1.362,0.85,2.032L216.058,111.833z M362.602,107.584l-2.521-0.924     c0.251-0.686,0.495-1.384,0.728-2.074l2.545,0.851C363.116,106.152,362.862,106.875,362.602,107.584z M212.663,102.416     c-0.21-0.726-0.412-1.464-0.602-2.195l2.6-0.673c0.183,0.707,0.377,1.42,0.58,2.12L212.663,102.416z M365.44,97.989l-2.619-0.596     c0.163-0.712,0.316-1.434,0.457-2.148l2.634,0.518C365.765,96.502,365.607,97.252,365.44,97.989z M210.498,92.648     c-0.116-0.747-0.222-1.503-0.317-2.254l2.664-0.337c0.09,0.725,0.193,1.457,0.307,2.177L210.498,92.648z M367.034,88.113     l-2.673-0.259c0.07-0.726,0.131-1.463,0.181-2.19l2.679,0.182C367.168,86.6,367.105,87.362,367.034,88.113z M209.586,82.646     c-0.021-0.753-0.031-1.313-0.031-2.313h2.685c0,1,0.011,1.49,0.03,2.218L209.586,82.646z M364.688,78.193     c-0.021-0.73-0.053-1.469-0.094-2.197l2.68-0.153c0.043,0.752,0.075,1.518,0.098,2.272L364.688,78.193z M363.805,68.568     c-0.112-0.722-0.236-1.45-0.371-2.167l2.641-0.49c0.137,0.742,0.266,1.496,0.383,2.242L363.805,68.568z M361.709,59.128     c-0.203-0.701-0.42-1.41-0.645-2.106l2.556-0.823c0.231,0.721,0.456,1.456,0.666,2.182L361.709,59.128z M358.425,50.03     c-0.291-0.67-0.597-1.343-0.907-2.006l2.43-1.141c0.322,0.685,0.638,1.383,0.939,2.076L358.425,50.03z M354.011,41.426     c-0.374-0.626-0.761-1.256-1.154-1.873l2.265-1.441c0.407,0.639,0.809,1.291,1.195,1.94L354.011,41.426z M348.543,33.452     c-0.449-0.575-0.913-1.151-1.381-1.712l2.065-1.714c0.483,0.582,0.964,1.177,1.43,1.771L348.543,33.452z M342.116,26.23     c-0.518-0.512-1.051-1.025-1.584-1.524l1.834-1.96c0.551,0.517,1.103,1.046,1.639,1.578L342.116,26.23z M334.832,19.877     c-0.578-0.443-1.171-0.885-1.762-1.312l1.571-2.177c0.612,0.442,1.227,0.899,1.824,1.357L334.832,19.877z M326.808,14.493     c-0.629-0.367-1.272-0.729-1.912-1.078l1.284-2.358c0.662,0.361,1.328,0.737,1.979,1.116L326.808,14.493z"
   id="path1082" />
		</g>
		<g
   id="g1088">
			<path

   d="M301.639,186.243l-0.016-2.685c0.731-0.003,1.473-0.017,2.204-0.039l0.081,2.683     C303.157,186.226,302.393,186.238,301.639,186.243z M293.936,185.986c-0.753-0.056-1.514-0.119-2.262-0.194l0.262-2.671     c0.727,0.071,1.466,0.134,2.196,0.187L293.936,185.986z M311.598,185.664l-0.297-2.667c0.729-0.083,1.465-0.174,2.188-0.271     l0.36,2.659C313.105,185.486,312.348,185.581,311.598,185.664z M284.038,184.731c-0.74-0.133-1.49-0.278-2.227-0.429l0.539-2.63     c0.717,0.146,1.445,0.288,2.165,0.417L284.038,184.731z M321.442,184.044l-0.574-2.624c0.713-0.155,1.436-0.324,2.146-0.497     l0.638,2.607C322.92,183.708,322.176,183.881,321.442,184.044z M274.327,182.441c-0.722-0.21-1.452-0.435-2.17-0.661l0.814-2.561     c0.698,0.225,1.408,0.44,2.108,0.645L274.327,182.441z M331.061,181.392l-0.849-2.547c0.695-0.232,1.399-0.475,2.089-0.724     l0.91,2.524C332.502,180.903,331.778,181.153,331.061,181.392z M264.912,179.138c-0.694-0.287-1.395-0.584-2.081-0.886     l1.082-2.458c0.666,0.295,1.347,0.582,2.021,0.862L264.912,179.138z M340.36,177.734l-1.115-2.443c0.668-0.304,1.34-0.62,2-0.941     l1.172,2.415C341.739,177.095,341.045,177.42,340.36,177.734z M255.909,174.864c-0.66-0.359-1.326-0.729-1.979-1.103l1.334-2.329     c0.633,0.363,1.28,0.722,1.922,1.07L255.909,174.864z M349.215,173.116l-1.365-2.313c0.631-0.372,1.265-0.758,1.888-1.146     l1.419,2.278C350.516,172.335,349.864,172.732,349.215,173.116z M247.402,169.664c-0.62-0.425-1.243-0.864-1.853-1.304     l1.57-2.178c0.592,0.427,1.197,0.854,1.801,1.267L247.402,169.664z M357.532,167.594l-1.6-2.155     c0.588-0.436,1.178-0.888,1.756-1.338l1.651,2.12C358.746,166.683,358.137,167.144,357.532,167.594z M239.484,163.601     c-0.571-0.488-1.146-0.989-1.709-1.491l1.79-2.001c0.545,0.488,1.104,0.975,1.66,1.448L239.484,163.601z M365.223,161.234     l-1.816-1.978c0.539-0.494,1.078-1.001,1.605-1.51l1.863,1.932C366.333,160.201,365.778,160.724,365.223,161.234z      M232.239,156.742c-0.518-0.546-1.037-1.106-1.544-1.662l1.989-1.805c0.491,0.543,0.996,1.088,1.5,1.615L232.239,156.742z      M372.208,154.108l-2.014-1.775c0.484-0.551,0.968-1.11,1.438-1.67l2.054,1.728C373.204,152.967,372.706,153.543,372.208,154.108     z M225.749,149.163c-0.459-0.6-0.918-1.209-1.363-1.817l2.166-1.585c0.433,0.589,0.878,1.184,1.325,1.765L225.749,149.163z      M378.407,146.295l-2.188-1.557c0.424-0.595,0.846-1.203,1.254-1.81l2.225,1.506     C379.277,145.055,378.842,145.681,378.407,146.295z M220.086,140.944c-0.396-0.645-0.789-1.301-1.167-1.951l2.319-1.351     c0.369,0.634,0.75,1.272,1.134,1.895L220.086,140.944z M383.753,137.878l-2.339-1.318c0.358-0.636,0.714-1.285,1.058-1.929     l2.37,1.262C384.489,136.555,384.122,137.224,383.753,137.878z M215.314,132.172c-0.325-0.682-0.647-1.376-0.954-2.064     l2.449-1.099c0.3,0.669,0.611,1.345,0.928,2.007L215.314,132.172z M388.185,128.948l-2.464-1.064     c0.288-0.669,0.573-1.351,0.846-2.027l2.488,1.005C388.776,127.557,388.481,128.261,388.185,128.948z M211.494,122.941     c-0.251-0.713-0.497-1.439-0.731-2.157l2.551-0.83c0.229,0.695,0.469,1.401,0.712,2.093L211.494,122.941z M391.649,119.599     l-2.563-0.799c0.219-0.699,0.431-1.41,0.631-2.112l2.581,0.737C392.092,118.149,391.875,118.88,391.649,119.599z      M208.672,113.361c-0.174-0.733-0.341-1.477-0.498-2.213l2.627-0.558c0.151,0.715,0.314,1.438,0.484,2.151L208.672,113.361z      M394.109,109.929l-2.633-0.521c0.142-0.718,0.278-1.447,0.403-2.168l2.645,0.459     C394.395,108.442,394.254,109.191,394.109,109.929z M206.881,103.547c-0.096-0.745-0.184-1.503-0.262-2.253l2.67-0.278     c0.076,0.728,0.162,1.464,0.255,2.189L206.881,103.547z M395.535,100.056l-2.673-0.244c0.066-0.727,0.124-1.467,0.174-2.196     l2.678,0.179C395.663,98.546,395.603,99.308,395.535,100.056z M206.129,94.101c-0.018-0.751-0.027-1.768-0.027-1.768h2.686     c0,0,0.008,1.225,0.026,1.955L206.129,94.101z M393.238,90.121c-0.01-0.731-0.028-1.473-0.054-2.205l2.682-0.097     c0.027,0.752,0.047,1.515,0.057,2.268L393.238,90.121z M392.609,80.444c-0.085-0.728-0.18-1.463-0.282-2.187l2.657-0.378     c0.105,0.746,0.204,1.503,0.291,2.251L392.609,80.444z M390.971,70.883c-0.162-0.716-0.336-1.439-0.514-2.15l2.603-0.656     c0.185,0.731,0.362,1.475,0.528,2.213L390.971,70.883z M388.33,61.544c-0.236-0.694-0.485-1.394-0.739-2.082l2.52-0.928     c0.262,0.708,0.518,1.43,0.76,2.143L388.33,61.544z M384.715,52.539c-0.309-0.664-0.629-1.333-0.953-1.99l2.405-1.189     c0.334,0.676,0.665,1.365,0.983,2.049L384.715,52.539z M380.171,43.969c-0.376-0.628-0.767-1.259-1.157-1.878l2.269-1.435     c0.403,0.637,0.804,1.286,1.19,1.932L380.171,43.969z M374.752,35.924c-0.44-0.585-0.894-1.173-1.347-1.747l2.106-1.664     c0.467,0.59,0.933,1.195,1.385,1.796L374.752,35.924z M368.523,28.49c-0.499-0.536-1.011-1.072-1.522-1.596l1.92-1.875     c0.527,0.538,1.054,1.09,1.566,1.643L368.523,28.49z M361.551,21.748c-0.551-0.48-1.116-0.96-1.679-1.427l1.714-2.066     c0.579,0.481,1.16,0.975,1.729,1.469L361.551,21.748z M353.917,15.774c-0.601-0.42-1.212-0.84-1.82-1.245l1.49-2.232     c0.625,0.416,1.255,0.847,1.871,1.278L353.917,15.774z"
   id="path1086" />
		</g>
	</g>
</g>
</svg>
