<svg
   width="40"
   height="40"
   viewBox="0 0 40 40"
   fill="none"
   version="1.1"
   id="svg176"
   xmlns="http://www.w3.org/2000/svg"
   xmlns:svg="http://www.w3.org/2000/svg">
  <mask
     id="path-1-inside-1_906_1286"
     fill="#ffffff">
    <path
       d="m 0.865464,-2.48082 c -0.045948,-0.16291 0.048519,-0.33257 0.211106,-0.37915 0.16291,-0.04595 0.33257,0.04852 0.37916,0.2111 1.05873,3.69064 3.49692,6.89646 6.80137,9.16759 3.2421,2.22703 7.3174,3.55308 11.7447,3.55308 4.4274,0 8.503,-1.32572 11.7447,-3.55308 3.3051,-2.27014 5.7426,-5.47719 6.8014,-9.16759 0.0459,-0.16291 0.2156,-0.25705 0.3792,-0.21111 0.1629,0.04595 0.257,0.2156 0.2111,0.37916 -0.6151,2.143542 -1.6767,4.12801 -3.0924,5.87302 0.5726,1.07642 1.0793,2.17562 1.5192,3.30576 0.4093,-0.53275 0.7448,-1.08703 0.998,-1.65996 0.0685,-0.15423 0.2487,-0.22428 0.4029,-0.15583 0.1543,0.06844 0.2243,0.2487 0.1559,0.40293 -0.321,0.72329 -0.7609,1.41795 -1.3075,2.07667 0.3991,1.09953 0.7371,2.22868 1.0151,3.39343 0.2464,1.0356 0.446,2.1005 0.5973,3.1984 0.4383,-0.2127 0.7978,-0.4338 1.0693,-0.6609 0.1298,-0.109 0.3233,-0.0913 0.4322,0.0382 0.1089,0.1298 0.0913,0.3233 -0.0382,0.4322 -0.3432,0.2872 -0.8078,0.5626 -1.3811,0.8244 0.1803,1.4994 0.2748,3.0609 0.2847,4.6971 v 0.0023 c -0.0099,1.6406 -0.1021,3.2022 -0.2795,4.6986 0.5703,0.2609 1.0333,0.5366 1.3759,0.8222 0.1298,0.109 0.1475,0.3018 0.0382,0.4322 -0.1089,0.1298 -0.3017,0.1475 -0.4321,0.0382 -0.2709,-0.2265 -0.6279,-0.4459 -1.0633,-0.658 -0.1526,1.1224 -0.3554,2.2088 -0.6089,3.2652 -0.2741,1.1439 -0.6073,2.2525 -1.0019,3.3343 0.5427,0.6565 0.9797,1.3473 1.2991,2.0667 0.0685,0.1543 -0.0016,0.3348 -0.1558,0.4029 -0.1543,0.0685 -0.3348,-0.0016 -0.4029,-0.1558 -0.2526,-0.5687 -0.5852,-1.1201 -0.9913,-1.65 -0.4406,1.1246 -0.9489,2.2203 -1.5263,3.2967 1.4151,1.7445 2.4767,3.7289 3.0917,5.8725 0.046,0.1629 -0.0485,0.3325 -0.2111,0.3791 -0.1629,0.046 -0.3326,-0.0485 -0.3792,-0.2111 -1.0587,-3.6906 -3.4969,-6.8964 -6.8013,-9.1676 -3.2421,-2.227 -7.3174,-3.5531 -11.7447,-3.5531 -4.4274,0 -8.503,1.3258 -11.74475,3.5531 -3.3051,2.2702 -5.74256,5.4772 -6.80137,9.1676 C 1.40813,41.3835 1.23847,41.4777 1.07492,41.4317 0.912007,41.3858 0.817864,41.2161 0.863813,41.0526 1.54404,38.6826 2.77087,36.5059 4.41758,34.6336 3.86106,33.5366 3.37201,32.414 2.95044,31.2594 2.30234,31.9756 1.7911,32.7372 1.43797,33.5343 1.36953,33.6886 1.18927,33.7586 1.03504,33.6902 0.880807,33.6217 0.810757,33.4415 0.879203,33.2872 1.29917,32.3413 1.92313,31.4438 2.7216,30.611 2.38293,29.6146 2.09439,28.5935 1.85338,27.5424 1.61399,26.4958 1.42281,25.4204 1.27822,24.3102 c -0.76763,0.305 -1.3681908,0.6295 -1.774296,0.9688 -0.12981,0.1089 -0.323247,0.0912 -0.432172,-0.0383 C -1.03717,25.1109 -1.0195,24.9175 -0.890011,24.8086 -0.414136,24.4108 0.29466,24.0348 1.2027,23.6868 1.04461,22.2782 0.96171,20.8149 0.95239,19.2877 V 19.2854 C 0.961708,17.7586 1.04461,16.2943 1.2027,14.8857 0.29433,14.538 -0.414153,14.1617 -0.890012,13.7639 -1.01982,13.655 -1.0375,13.4622 -0.928248,13.3317 c 0.108925,-0.1298 0.30172,-0.1474 0.432172,-0.0382 0.4061458,0.34 1.006337,0.6648 1.774296,0.9688 0.14202,-1.0948 0.32999,-2.1568 0.56519,-3.1892 0.2426,-1.0664 0.535,-2.1014 0.87753,-3.11094 C 1.92182,7.1293 1.29846,6.23154 0.878535,5.28592 0.810094,5.13168 0.880142,4.9511 1.03437,4.88298 1.1886,4.81454 1.36918,4.88459 1.4373,5.03882 1.79043,5.83505 2.30166,6.59661 2.94977,7.31282 3.37134,6.1567 3.85945,5.03405 4.41625,3.93772 2.76946,2.06604 1.54267,-0.110581 0.863145,-2.48058 Z M 35.6217,3.89668 c -1.0228,1.16929 -2.2088,2.22095 -3.5284,3.12768 -0.2365,0.16291 -0.4775,0.32003 -0.7224,0.47362 0.6848,0.9045 1.2715,1.82093 1.7667,2.76622 C 34.7573,9.39829 36.1101,8.3755 37.1184,7.23994 36.6879,6.09541 36.1891,4.98306 35.6217,3.89668 Z m 1.7306,3.98982 c -1.0333,1.09698 -2.3684,2.08374 -3.9416,2.9237 0.3133,0.6526 0.5835,1.3196 0.8129,2.0069 0.2719,0.8145 0.4859,1.6551 0.6443,2.532 1.6008,-0.3316 2.9481,-0.7147 3.9769,-1.1346 -0.1519,-1.14 -0.3553,-2.2434 -0.6111,-3.3166 C 37.9879,9.86676 37.6948,8.86396 37.3523,7.8865 Z m 1.57,6.9504 c -1.0549,0.4155 -2.3922,0.7914 -3.9555,1.1156 0.1575,1.0542 0.2381,2.1606 0.2465,3.3327 v 0.0023 c -0.0084,1.1676 -0.0913,2.274 -0.2519,3.3311 1.5683,0.3248 2.9098,0.7017 3.9676,1.1185 0.1613,-1.4186 0.2448,-2.8982 0.2541,-4.4512 -0.0093,-1.5455 -0.096,-3.0255 -0.2608,-4.449 z m -0.0698,9.5246 c -1.0311,-0.4222 -2.3838,-0.8068 -3.9923,-1.1394 -0.1613,0.8775 -0.3779,1.7213 -0.652,2.538 -0.2294,0.6835 -0.4983,1.3467 -0.8084,1.9954 1.5831,0.8438 2.9259,1.8363 3.9631,2.9397 0.3378,-0.9597 0.6273,-1.9416 0.8692,-2.9519 0.2618,-1.0918 0.4675,-2.2164 0.6204,-3.3818 z m -1.7257,6.9809 c -1.0119,-1.1416 -2.3707,-2.1705 -3.9998,-3.0393 -0.4945,0.9498 -1.0786,1.8688 -1.7566,2.7708 0.2449,0.1526 0.4858,0.311 0.7233,0.4736 1.3206,0.9067 2.5066,1.9594 3.53,3.1293 0.5726,-1.088 1.0722,-2.1956 1.5031,-3.3344 z M 4.86131,34.1501 C 5.77034,33.1897 6.7937,32.316 7.91224,31.5474 8.31389,31.2717 8.72743,31.0092 9.15383,30.7612 8.50959,29.8644 7.95304,28.9454 7.48236,27.9943 5.87324,28.7834 4.49889,29.721 3.42732,30.7672 c 0.40936,1.1594 0.88739,2.2844 1.43399,3.3829 z M 3.21073,30.1317 C 4.29875,29.1176 5.65435,28.2099 7.22045,27.4423 6.94958,26.8443 6.71149,26.2338 6.50648,25.6066 6.24011,24.7921 6.029,23.9515 5.87317,23.0785 c -1.56388,0.295 -2.91504,0.6366 -4.00141,1.0134 0.14363,1.1395 0.33706,2.2419 0.58286,3.3135 0.21336,0.9311 0.46532,1.8394 0.75611,2.7263 z M 1.79887,23.4739 C 2.90128,23.0999 4.24183,22.7638 5.7742,22.4744 5.62447,21.4586 5.54543,20.3992 5.53771,19.2875 v -0.0022 c 0.00772,-1.1169 0.0829,-2.1756 0.22814,-3.1885 -1.5295,-0.2885 -2.86684,-0.6249 -3.96703,-0.998 -0.14588,1.3428 -0.22267,2.7354 -0.23103,4.1871 0.00835,1.4516 0.0852,2.8453 0.23108,4.188 z M 1.87116,14.4807 C 2.95433,14.857 4.30261,15.1979 5.86197,15.4919 6.0133,14.6244 6.21895,13.7905 6.48082,12.9837 6.68743,12.3472 6.92777,11.7283 7.20411,11.122 5.64476,10.3557 4.29524,9.45144 3.21109,8.44091 2.91547,9.34154 2.65971,10.2618 2.44475,11.2071 2.20376,12.2659 2.01255,13.3551 1.87116,14.4807 Z M 3.42731,7.80539 C 4.496,8.84874 5.86419,9.78376 7.46722,10.5706 7.93795,9.62468 8.49832,8.70956 9.15251,7.81049 8.72804,7.56243 8.31422,7.30056 7.91355,7.02519 6.79501,6.25659 5.77165,5.38391 4.86328,4.42347 4.31576,5.52202 3.83662,6.64704 3.42731,7.80539 Z M 30.8437,7.81695 c -1.9838,1.15613 -4.2179,2.0047 -6.6133,2.46745 0.6388,0.7875 1.1776,1.5876 1.6207,2.4214 2.1773,-0.3955 4.1848,-1.0063 5.946,-1.7881 0.2708,-0.1205 0.5366,-0.2448 0.7952,-0.373 C 32.1049,9.61352 31.524,8.70895 30.8437,7.81695 Z m 2.0224,3.27455 c -0.268,0.1327 -0.5421,0.2619 -0.8223,0.3863 -1.7572,0.7801 -3.7511,1.3941 -5.9077,1.7997 0.1443,0.3078 0.2763,0.6204 0.3955,0.9398 0.2571,0.687 0.456,1.4035 0.5974,2.158 2.1528,-0.162 4.145,-0.3956 5.9132,-0.687 0.4222,-0.0697 0.8306,-0.142 1.2261,-0.2182 -0.1535,-0.8515 -0.3608,-1.6676 -0.6243,-2.4574 -0.2194,-0.6571 -0.4788,-1.2955 -0.7779,-1.9212 z m 1.5009,4.9817 c -0.3962,0.0762 -0.8053,0.1491 -1.2268,0.2182 -1.7711,0.2917 -3.7627,0.526 -5.9116,0.6895 0.1044,0.7278 0.1581,1.4932 0.1629,2.3049 v 0.0022 c -0.0045,0.8117 -0.0585,1.5761 -0.1629,2.3039 2.1489,0.1636 4.1405,0.3978 5.9116,0.6895 0.4193,0.0691 0.8267,0.1414 1.2207,0.2173 0.1536,-1.019 0.2326,-2.086 0.241,-3.2123 -0.0078,-1.13 -0.0852,-2.1966 -0.2349,-3.2132 z m -0.1067,7.0301 c -0.393,-0.0751 -0.7991,-0.1474 -1.2184,-0.2165 -1.7682,-0.2918 -3.7604,-0.5251 -5.9133,-0.687 -0.1413,0.7548 -0.3399,1.471 -0.5973,2.1579 -0.1189,0.3194 -0.2509,0.6317 -0.3955,0.9389 2.1573,0.4055 4.1504,1.0196 5.9077,1.7997 0.2763,0.1228 0.5466,0.2497 0.8107,0.3802 0.2962,-0.6218 0.5536,-1.2567 0.7731,-1.9103 0.2657,-0.7924 0.4762,-1.6108 0.633,-2.4629 z m -1.6782,4.9204 c -0.2558,-0.1266 -0.5174,-0.2497 -0.7853,-0.3686 -1.7612,-0.7824 -3.7687,-1.3926 -5.9454,-1.7881 -0.4431,0.8345 -0.9825,1.6339 -1.6207,2.4215 2.3961,0.463 4.6296,1.3112 6.6134,2.4674 0.6731,-0.8907 1.2505,-1.7962 1.738,-2.7322 z M 9.69064,30.4589 c 2.03236,-1.1047 4.30696,-1.8926 6.73766,-2.2862 -0.6272,-0.7869 -1.1561,-1.587 -1.5892,-2.4221 -2.4414,0.3869 -4.6861,1.0411 -6.63008,1.9048 -0.05751,0.0254 -0.11502,0.0514 -0.17287,0.0774 0.46366,0.9374 1.01577,1.8421 1.65449,2.7261 z M 7.77528,27.1808 c 0.06234,-0.0283 0.12435,-0.0559 0.18733,-0.0845 1.943,-0.8631 4.17489,-1.5218 6.59729,-1.9209 -0.1221,-0.268 -0.2359,-0.5405 -0.3393,-0.8178 -0.2635,-0.7033 -0.4646,-1.4363 -0.6067,-2.2103 -2.4359,0.1619 -4.68156,0.4145 -6.64932,0.7393 -0.16516,0.027 -0.32775,0.0547 -0.48841,0.0829 0.15134,0.8454 0.35634,1.66 0.61404,2.4485 0.19728,0.6018 0.42481,1.1879 0.68507,1.7628 z m -1.39805,-4.816 c 0.1613,-0.0282 0.32389,-0.0559 0.48905,-0.0829 1.97228,-0.3248 4.21792,-0.579 6.64932,-0.7422 -0.0989,-0.7124 -0.1503,-1.4594 -0.1552,-2.2511 v -0.0023 c 0.0045,-0.7914 0.056,-1.5394 0.1552,-2.2518 C 11.0836,16.8703 8.83856,16.6168 6.86628,16.2923 6.69887,16.2646 6.53307,16.2364 6.36952,16.2078 6.22975,17.1852 6.15841,18.2086 6.1507,19.2879 c 0.00771,1.0732 0.0829,2.0966 0.22717,3.0786 z m 0.0874,-6.7631 c 0.1642,0.0293 0.33096,0.0569 0.49965,0.0852 1.96776,0.3239 4.21352,0.5764 6.64932,0.7393 0.1421,-0.7737 0.3439,-1.5069 0.6067,-2.2103 0.1038,-0.2773 0.2166,-0.5498 0.3393,-0.8178 C 12.1375,12.9991 9.90564,12.3394 7.96231,11.4773 7.89387,11.4464 7.82575,11.4159 7.75795,11.385 7.49318,11.9669 7.26184,12.5621 7.0639,13.1716 6.81071,13.953 6.61212,14.7601 6.46463,15.6017 Z m 1.55615,-4.7684 c 0.06233,0.0283 0.12499,0.0569 0.18797,0.0845 1.94395,0.8637 4.18875,1.5179 6.63015,1.9048 0.4331,-0.8354 0.962,-1.6352 1.5892,-2.4221 C 13.9973,10.0066 11.7217,9.21906 9.68971,8.11434 9.04033,9.00182 8.48504,9.90276 8.02078,10.8333 Z m 15.51542,-0.426 c -1.0488,0.168 -2.1265,0.2625 -3.2267,0.2773 v 2.5365 c 1.6975,-0.0155 3.341,-0.1559 4.9036,-0.4055 -0.456,-0.8268 -1.0143,-1.6208 -1.6769,-2.4083 z m 1.9745,2.9802 c -1.6545,0.2763 -3.3989,0.4315 -5.2006,0.4476 v 2.7977 c 2.1618,-0.0061 4.2456,-0.0813 6.204,-0.2143 -0.1336,-0.6957 -0.3187,-1.3551 -0.5558,-1.9884 -0.1327,-0.3547 -0.2818,-0.7027 -0.4476,-1.0426 z m 1.1056,3.6382 c -1.9915,0.1375 -4.1097,0.2143 -6.3068,0.2204 v 4.0814 c 2.1971,0.0071 4.3153,0.0835 6.3068,0.2204 0.1044,-0.7124 0.1581,-1.4633 0.1629,-2.2611 -0.0045,-0.7978 -0.0585,-1.5484 -0.1629,-2.2611 z m -0.1028,5.1301 c -1.9585,-0.1327 -4.0422,-0.2082 -6.204,-0.2143 v 2.7978 c 1.8025,0.016 3.546,0.1712 5.2014,0.4476 0.1658,-0.341 0.3149,-0.687 0.447,-1.0417 0.2371,-0.6334 0.4219,-1.2947 0.5556,-1.9894 z m -1.3007,3.603 c -1.5622,-0.2503 -3.2061,-0.3901 -4.9042,-0.4055 v 2.5365 c 1.0995,0.0144 2.1772,0.1099 3.2267,0.2773 0.6625,-0.7869 1.2206,-1.5816 1.6775,-2.4083 z m -8.0795,2.3125 c 0.8377,-0.1083 1.6926,-0.1696 2.5612,-0.1812 v -2.5365 c -1.4495,0.0132 -2.8598,0.1176 -4.214,0.3033 0.4482,0.83 0.9979,1.6262 1.6528,2.4144 z M 15.187,25.0785 c 1.4456,-0.2088 2.9552,-0.3255 4.5075,-0.3393 v -2.7977 c -1.8932,0.0054 -3.7257,0.0636 -5.4669,0.1674 0.1343,0.7124 0.3226,1.3881 0.5652,2.0362 0.1182,0.3171 0.2503,0.6278 0.3955,0.9335 z M 14.1261,21.5 c 1.7734,-0.1076 3.6405,-0.1674 5.5684,-0.1729 v -4.0813 c -1.9279,-0.0061 -3.7941,-0.0659 -5.5684,-0.1729 -0.0999,0.6985 -0.1514,1.4334 -0.1558,2.2132 0.0044,0.7802 0.0559,1.5154 0.1558,2.2139 z m 0.1006,-5.0357 c 1.7412,0.1038 3.5736,0.1619 5.4669,0.1674 V 13.834 c -1.5523,-0.0139 -3.0609,-0.1305 -4.5075,-0.3393 -0.1452,0.3055 -0.2773,0.6166 -0.3955,0.9343 -0.2426,0.6481 -0.43,1.3229 -0.5652,2.0352 z m 1.2527,-3.5477 c 1.3544,0.1857 2.7646,0.2902 4.2141,0.3033 v -2.5365 c -0.8682,-0.0115 -1.7235,-0.0735 -2.5613,-0.1812 -0.6548,0.7885 -1.2045,1.5848 -1.6528,2.4144 z"
       id="path169" />
  </mask>
  <path class="icon-light-rays"
     d="m 0.58346463,-1.2602043 c -0.045948,-0.16291 0.048519,-0.33257 0.21110601,-0.3791501 0.16291004,-0.04595 0.33257006,0.04852 0.37916006,0.2111001 1.05873,3.6906399 3.49692,6.8964599 6.80137,9.1675899 3.2421003,2.2270304 7.3174003,3.5530804 11.7447003,3.5530804 4.4274,0 8.503,-1.32572 11.7447,-3.5530804 3.3051,-2.27014 5.7426,-5.47719 6.8014,-9.1675899 0.0459,-0.16291 0.2156,-0.2570501 0.3792,-0.2111101 0.1629,0.04595 0.257,0.2156001 0.2111,0.3791601 -0.6151,2.14354215 -1.6767,4.1280099 -3.0924,5.8730199 0.5726,1.07642 1.0793,2.17562 1.5192,3.30576 0.4093,-0.53275 0.7448,-1.08703 0.998,-1.65996 0.0685,-0.15423 0.2487,-0.22428 0.4029,-0.15583 0.1543,0.06844 0.2243,0.2487 0.1559,0.40293 -0.321,0.72329 -0.7609,1.41795 -1.3075,2.0766704 0.3991,1.09953 0.7371,2.22868 1.0151,3.39343 0.2464,1.0356 0.446,2.1005 0.5973,3.1984 0.4383,-0.2127 0.7978,-0.4338 1.0693,-0.6609 0.1298,-0.109 0.3233,-0.0913 0.4322,0.0382 0.1089,0.1298 0.0913,0.3233 -0.0382,0.4322 -0.3432,0.2872 -0.8078,0.5626 -1.3811,0.8244 0.1803,1.4994 0.2748,3.0609 0.2847,4.6971 v 0.0023 c -0.0099,1.6406 -0.1021,3.2022 -0.2795,4.6986 0.5703,0.2609 1.0333,0.5366 1.3759,0.8222 0.1298,0.109 0.1475,0.3018 0.0382,0.4322 -0.1089,0.1298 -0.3017,0.1475 -0.4321,0.0382 -0.2709,-0.2265 -0.6279,-0.4459 -1.0633,-0.658 -0.1526,1.1224 -0.3554,2.2088 -0.6089,3.2652 -0.2741,1.1439 -0.6073,2.2525 -1.0019,3.3343 0.5427,0.6565 0.9797,1.3473 1.2991,2.0667 0.0685,0.1543 -0.0016,0.3348 -0.1558,0.4029 -0.1543,0.0685 -0.3348,-0.0016 -0.4029,-0.1558 -0.2526,-0.5687 -0.5852,-1.1201 -0.9913,-1.65 -0.4406,1.1246 -0.9489,2.2203 -1.5263,3.2967 1.4151,1.7445 2.4767,3.7289 3.0917,5.8725 0.046,0.1629 -0.0485,0.3325 -0.2111,0.3791 -0.1629,0.046 -0.3326,-0.0485 -0.3792,-0.2111 -1.0587,-3.6906 -3.4969,-6.8964 -6.8013,-9.1676 -3.2421,-2.227 -7.3174,-3.5531 -11.7447,-3.5531 -4.4274,0 -8.503,1.3258 -11.7447503,3.5531 -3.3051,2.2702 -5.74256,5.4772 -6.80137,9.1676 -0.04595,0.1629 -0.21561002,0.2571 -0.37916006,0.2111 -0.162913,-0.0459 -0.25705601,-0.2156 -0.21110701,-0.3791 0.68022707,-2.37 1.90705707,-4.5467 3.55376707,-6.419 -0.55652,-1.097 -1.04557,-2.2196 -1.46714,-3.3742 -0.6481,0.7162 -1.15934,1.4778 -1.51247,2.2749 -0.06844,0.1543 -0.24870002,0.2243 -0.40293006,0.1559 -0.15423301,-0.0685 -0.22428301,-0.2487 -0.15583701,-0.403 0.41996707,-0.9459 1.04392707,-1.8434 1.84239707,-2.6762 -0.33867,-0.9964 -0.62721,-2.0175 -0.86822,-3.0686 -0.23939,-1.0466 -0.43057,-2.122 -0.57516002,-3.2322 -0.76763005,0.305 -1.36819085,0.6295 -1.77429605,0.9688 -0.12981,0.1089 -0.32324693,0.0912 -0.43217193,-0.0383 -0.108922,-0.1298 -0.091252,-0.3232 0.038237,-0.4321 0.47587495,-0.3978 1.18467095,-0.7738 2.09271098,-1.1218 -0.15809002,-1.4086 -0.24099002,-2.8719 -0.25031002,-4.3991 v -0.0023 c 0.00932,-1.5268 0.09222,-2.9911 0.25031002,-4.3997 -0.90837003,-0.3477 -1.61685303,-0.724 -2.09271198,-1.1218 -0.129808,-0.1089 -0.147488,-0.3017 -0.038236,-0.4322 0.108925,-0.1298 0.30171993,-0.1474 0.43217193,-0.0382 0.4061458,0.34 1.006337,0.6648 1.77429605,0.9688 0.14202002,-1.0948 0.32999002,-2.1568 0.56519002,-3.1892 0.2426,-1.0664 0.535,-2.1014 0.87753,-3.11094 -0.79912,-0.83286 -1.42248,-1.7306204 -1.84240507,-2.6762404 -0.068441,-0.15424 0.00161,-0.33482 0.15583501,-0.40294 0.15423004,-0.06844 0.33481006,0.00161 0.40293006,0.15584 0.35313,0.79623 0.86436,1.55779 1.51247,2.2740004 0.42157,-1.1561204 0.90968,-2.2787704 1.46648,-3.3751004 -1.64679,-1.87168 -2.87358,-4.0483008 -3.55310507,-6.4182999 z M 35.339701,5.1172956 c -1.0228,1.16929 -2.2088,2.22095 -3.5284,3.12768 -0.2365,0.1629104 -0.4775,0.3200304 -0.7224,0.4736204 0.6848,0.9045 1.2715,1.82093 1.7667,2.76622 1.6197,-0.86591 2.9725,-1.8887 3.9808,-3.02426 -0.4305,-1.1445304 -0.9293,-2.2568804 -1.4967,-3.3432604 z m 1.7306,3.9898204 c -1.0333,1.09698 -2.3684,2.08374 -3.9416,2.9237 0.3133,0.6526 0.5835,1.3196 0.8129,2.0069 0.2719,0.8145 0.4859,1.6551 0.6443,2.532 1.6008,-0.3316 2.9481,-0.7147 3.9769,-1.1346 -0.1519,-1.14 -0.3553,-2.2434 -0.6111,-3.3166 -0.2458,-1.03114 -0.5389,-2.03394 -0.8814,-3.0114 z m 1.57,6.9504 c -1.0549,0.4155 -2.3922,0.7914 -3.9555,1.1156 0.1575,1.0542 0.2381,2.1606 0.2465,3.3327 v 0.0023 c -0.0084,1.1676 -0.0913,2.274 -0.2519,3.3311 1.5683,0.3248 2.9098,0.7017 3.9676,1.1185 0.1613,-1.4186 0.2448,-2.8982 0.2541,-4.4512 -0.0093,-1.5455 -0.096,-3.0255 -0.2608,-4.449 z m -0.0698,9.5246 c -1.0311,-0.4222 -2.3838,-0.8068 -3.9923,-1.1394 -0.1613,0.8775 -0.3779,1.7213 -0.652,2.538 -0.2294,0.6835 -0.4983,1.3467 -0.8084,1.9954 1.5831,0.8438 2.9259,1.8363 3.9631,2.9397 0.3378,-0.9597 0.6273,-1.9416 0.8692,-2.9519 0.2618,-1.0918 0.4675,-2.2164 0.6204,-3.3818 z m -1.7257,6.9809 c -1.0119,-1.1416 -2.3707,-2.1705 -3.9998,-3.0393 -0.4945,0.9498 -1.0786,1.8688 -1.7566,2.7708 0.2449,0.1526 0.4858,0.311 0.7233,0.4736 1.3206,0.9067 2.5066,1.9594 3.53,3.1293 0.5726,-1.088 1.0722,-2.1956 1.5031,-3.3344 z m -32.2654903,2.8077 c 0.90903,-0.9604 1.93239,-1.8341 3.05093,-2.6027 0.40165,-0.2757 0.81519,-0.5382 1.2415903,-0.7862 -0.6442403,-0.8968 -1.2007903,-1.8158 -1.6714703,-2.7669 -1.60912,0.7891 -2.98347,1.7267 -4.05504,2.7729 0.40936,1.1594 0.88739,2.2844 1.43399,3.3829 z m -1.65058,-4.0184 c 1.08802,-1.0141 2.44362,-1.9218 4.00972,-2.6894 -0.27087,-0.598 -0.50896,-1.2085 -0.71397,-1.8357 -0.26637,-0.8145 -0.47748,-1.6551 -0.63331,-2.5281 -1.56388,0.295 -2.91504,0.6366 -4.00141,1.0134 0.14363,1.1395 0.33706,2.2419 0.58286,3.3135 0.21336,0.9311 0.46532,1.8394 0.75611,2.7263 z m -1.41186,-6.6578 c 1.10241,-0.374 2.44296,-0.7101 3.97533,-0.9995 -0.14973,-1.0158 -0.22877,-2.0752 -0.23649,-3.1869 v -0.0022 c 0.00772,-1.1169 0.0829,-2.1756 0.22814,-3.1885 -1.5295,-0.2885 -2.86684,-0.6249 -3.96703,-0.998 -0.14588,1.3428 -0.22267,2.7354 -0.23103,4.1871 0.00835,1.4516 0.0852,2.8453 0.23108,4.188 z m 0.07229,-8.9932 c 1.08317,0.3763 2.43145,0.7172 3.99081,1.0112 0.15133,-0.8675 0.35698,-1.7014 0.61885,-2.5082 0.20661,-0.6365 0.44695,-1.2554 0.72329,-1.8617 -1.55935,-0.7663 -2.90887,-1.67056 -3.99302,-2.68109 -0.29562,0.90063 -0.55138,1.82089 -0.76634,2.76619 -0.24099,1.0588 -0.4322,2.148 -0.57359,3.2736 z m 1.55615,-6.67531 c 1.06869,1.04335 2.43688,1.97837 4.03991,2.76521 0.47073,-0.94592 1.0311,-1.86104 1.6852903,-2.76011 -0.4244703,-0.24806 -0.8382903,-0.50993 -1.2389603,-0.7853004 -1.11854,-0.7686 -2.1419,-1.64128 -3.05027,-2.60172 -0.54752,1.09855 -1.02666,2.22357 -1.43597,3.3819204 z m 27.4163903,0.01156 c -1.9838,1.15613 -4.2179,2.0047 -6.6133,2.46745 0.6388,0.7875 1.1776,1.5876 1.6207,2.4214 2.1773,-0.3955 4.1848,-1.0063 5.946,-1.7881 0.2708,-0.1205 0.5366,-0.2448 0.7952,-0.373 -0.4874,-0.93118 -1.0683,-1.83575 -1.7486,-2.72775 z m 2.0224,3.27455 c -0.268,0.1327 -0.5421,0.2619 -0.8223,0.3863 -1.7572,0.7801 -3.7511,1.3941 -5.9077,1.7997 0.1443,0.3078 0.2763,0.6204 0.3955,0.9398 0.2571,0.687 0.456,1.4035 0.5974,2.158 2.1528,-0.162 4.145,-0.3956 5.9132,-0.687 0.4222,-0.0697 0.8306,-0.142 1.2261,-0.2182 -0.1535,-0.8515 -0.3608,-1.6676 -0.6243,-2.4574 -0.2194,-0.6571 -0.4788,-1.2955 -0.7779,-1.9212 z m 1.5009,4.9817 c -0.3962,0.0762 -0.8053,0.1491 -1.2268,0.2182 -1.7711,0.2917 -3.7627,0.526 -5.9116,0.6895 0.1044,0.7278 0.1581,1.4932 0.1629,2.3049 v 0.0022 c -0.0045,0.8117 -0.0585,1.5761 -0.1629,2.3039 2.1489,0.1636 4.1405,0.3978 5.9116,0.6895 0.4193,0.0691 0.8267,0.1414 1.2207,0.2173 0.1536,-1.019 0.2326,-2.086 0.241,-3.2123 -0.0078,-1.13 -0.0852,-2.1966 -0.2349,-3.2132 z m -0.1067,7.0301 c -0.393,-0.0751 -0.7991,-0.1474 -1.2184,-0.2165 -1.7682,-0.2918 -3.7604,-0.5251 -5.9133,-0.687 -0.1413,0.7548 -0.3399,1.471 -0.5973,2.1579 -0.1189,0.3194 -0.2509,0.6317 -0.3955,0.9389 2.1573,0.4055 4.1504,1.0196 5.9077,1.7997 0.2763,0.1228 0.5466,0.2497 0.8107,0.3802 0.2962,-0.6218 0.5536,-1.2567 0.7731,-1.9103 0.2657,-0.7924 0.4762,-1.6108 0.633,-2.4629 z m -1.6782,4.9204 c -0.2558,-0.1266 -0.5174,-0.2497 -0.7853,-0.3686 -1.7612,-0.7824 -3.7687,-1.3926 -5.9454,-1.7881 -0.4431,0.8345 -0.9825,1.6339 -1.6207,2.4215 2.3961,0.463 4.6296,1.3112 6.6134,2.4674 0.6731,-0.8907 1.2505,-1.7962 1.738,-2.7322 z m -22.8914598,2.4352 c 2.0323598,-1.1047 4.3069598,-1.8926 6.7376598,-2.2862 -0.6272,-0.7869 -1.1561,-1.587 -1.5892,-2.4221 -2.4414,0.3869 -4.6861,1.0411 -6.6300803,1.9048 -0.05751,0.0254 -0.11502,0.0514 -0.17287,0.0774 0.46366,0.9374 1.0157703,1.8421 1.6544905,2.7261 z m -1.9153605,-3.2781 c 0.06234,-0.0283 0.12435,-0.0559 0.18733,-0.0845 1.9430003,-0.8631 4.1748903,-1.5218 6.5972903,-1.9209 -0.1221,-0.268 -0.2359,-0.5405 -0.3393,-0.8178 -0.2635,-0.7033 -0.4646,-1.4363 -0.6067,-2.2103 -2.4359,0.1619 -4.6815603,0.4145 -6.6493203,0.7393 -0.16516,0.027 -0.32775,0.0547 -0.48841,0.0829 0.15134,0.8454 0.35634,1.66 0.61404,2.4485 0.19728,0.6018 0.42481,1.1879 0.68507,1.7628 z m -1.39805,-4.816 c 0.1613,-0.0282 0.32389,-0.0559 0.48905,-0.0829 1.97228,-0.3248 4.2179203,-0.579 6.6493203,-0.7422 -0.0989,-0.7124 -0.1503,-1.4594 -0.1552,-2.2511 v -0.0023 c 0.0045,-0.7914 0.056,-1.5394 0.1552,-2.2518 -2.432,-0.1642 -4.6770403,-0.4177 -6.6493203,-0.7422 -0.16741,-0.0277 -0.33321,-0.0559 -0.49676,-0.0845 -0.13977,0.9774 -0.21111,2.0008 -0.21882,3.0801 0.00771,1.0732 0.0829,2.0966 0.22717,3.0786 z m 0.0874,-6.7631 c 0.1642,0.0293 0.33096,0.0569 0.49965,0.0852 1.96776,0.3239 4.2135203,0.5764 6.6493203,0.7393 0.1421,-0.7737 0.3439,-1.5069 0.6067,-2.2103 0.1038,-0.2773 0.2166,-0.5498 0.3393,-0.8178 -2.4221,-0.399 -4.65396,-1.0587 -6.5972903,-1.9208 -0.06844,-0.0309 -0.13656,-0.0614 -0.20436,-0.0923 -0.26477,0.5819 -0.49611,1.1771 -0.69405,1.7866 -0.25319,0.7814 -0.45178,1.5885 -0.59927,2.4301 z m 1.55615,-4.7684 c 0.06233,0.0283 0.12499,0.0569 0.18797,0.0845 1.9439503,0.8637 4.1887503,1.5179 6.6301503,1.9048 0.4331,-0.8354 0.962,-1.6352 1.5892,-2.4221 -2.4308,-0.3939 -4.7064,-1.18144 -6.7383898,-2.28616 -0.6493802,0.88748 -1.2046705,1.78842 -1.6689305,2.71896 z m 15.5154203,-0.426 c -1.0488,0.168 -2.1265,0.2625 -3.2267,0.2773 v 2.5365 c 1.6975,-0.0155 3.341,-0.1559 4.9036,-0.4055 -0.456,-0.8268 -1.0143,-1.6208 -1.6769,-2.4083 z m 1.9745,2.9802 c -1.6545,0.2763 -3.3989,0.4315 -5.2006,0.4476 v 2.7977 c 2.1618,-0.0061 4.2456,-0.0813 6.204,-0.2143 -0.1336,-0.6957 -0.3187,-1.3551 -0.5558,-1.9884 -0.1327,-0.3547 -0.2818,-0.7027 -0.4476,-1.0426 z m 1.1056,3.6382 c -1.9915,0.1375 -4.1097,0.2143 -6.3068,0.2204 v 4.0814 c 2.1971,0.0071 4.3153,0.0835 6.3068,0.2204 0.1044,-0.7124 0.1581,-1.4633 0.1629,-2.2611 -0.0045,-0.7978 -0.0585,-1.5484 -0.1629,-2.2611 z m -0.1028,5.1301 c -1.9585,-0.1327 -4.0422,-0.2082 -6.204,-0.2143 v 2.7978 c 1.8025,0.016 3.546,0.1712 5.2014,0.4476 0.1658,-0.341 0.3149,-0.687 0.447,-1.0417 0.2371,-0.6334 0.4219,-1.2947 0.5556,-1.9894 z m -1.3007,3.603 c -1.5622,-0.2503 -3.2061,-0.3901 -4.9042,-0.4055 v 2.5365 c 1.0995,0.0144 2.1772,0.1099 3.2267,0.2773 0.6625,-0.7869 1.2206,-1.5816 1.6775,-2.4083 z m -8.0795,2.3125 c 0.8377,-0.1083 1.6926,-0.1696 2.5612,-0.1812 v -2.5365 c -1.4495,0.0132 -2.8598,0.1176 -4.214,0.3033 0.4482,0.83 0.9979,1.6262 1.6528,2.4144 z m -1.9463,-2.9928 c 1.4456,-0.2088 2.9552,-0.3255 4.5075,-0.3393 v -2.7977 c -1.8932,0.0054 -3.7257,0.0636 -5.4669,0.1674 0.1343,0.7124 0.3226,1.3881 0.5652,2.0362 0.1182,0.3171 0.2503,0.6278 0.3955,0.9335 z m -1.0609,-3.5785 c 1.7734,-0.1076 3.6405,-0.1674 5.5684,-0.1729 v -4.0813 c -1.9279,-0.0061 -3.7941,-0.0659 -5.5684,-0.1729 -0.0999,0.6985 -0.1514,1.4334 -0.1558,2.2132 0.0044,0.7802 0.0559,1.5154 0.1558,2.2139 z m 0.1006,-5.0357 c 1.7412,0.1038 3.5736,0.1619 5.4669,0.1674 v -2.7977 c -1.5523,-0.0139 -3.0609,-0.1305 -4.5075,-0.3393 -0.1452,0.3055 -0.2773,0.6166 -0.3955,0.9343 -0.2426,0.6481 -0.43,1.3229 -0.5652,2.0352 z m 1.2527,-3.5477 c 1.3544,0.1857 2.7646,0.2902 4.2141,0.3033 v -2.5365 c -0.8682,-0.0115 -1.7235,-0.0735 -2.5613,-0.1812 -0.6548,0.7885 -1.2045,1.5848 -1.6528,2.4144 z"
     fill="#14142b"
     id="path172"
     style="display:inline;fill:#000000;fill-opacity:1" />
</svg>
