<svg
   version="1.1"
   x="0px"
   y="0px"
   width="11.646"
   height="23.958"
   viewBox="0 0 11.646 23.958"
   xml:space="preserve"
   xmlns="http://www.w3.org/2000/svg"
   xmlns:svg="http://www.w3.org/2000/svg">
  <g>
    <path style="fill:none;stroke-width:0.478;stroke-dasharray:none;stroke-opacity:1"
       d="m 5.823,22.63 c -2.479,0 -4.494,-2.016 -4.494,-4.495 v -5.326 h 3.595 c 0.2,0.292 0.52,0.495 0.899,0.495 0.379,0 0.699,-0.204 0.899,-0.495 h 3.595 v 5.326 c 0,2.479 -2.015,4.495 -4.494,4.495 z"
       id="path2631" />
    <path style="fill:none;stroke-width:0.478;stroke-dasharray:none;stroke-opacity:1"
       d="m 6.134,8.638 v 3.556 c 0,0.171 -0.139,0.311 -0.311,0.311 -0.172,0 -0.311,-0.14 -0.311,-0.311 V 8.638 c 0,-0.172 0.139,-0.312 0.311,-0.312 0.172,0 0.311,0.14 0.311,0.312 z"
       id="path2629" />
    <path style="fill:none;stroke-width:0.478;stroke-dasharray:none;stroke-opacity:1"
       d="m 5.823,6.349 c 2.479,0 4.494,2.016 4.494,4.495 V 12.01 H 6.934 V 8.638 C 6.934,8.025 6.435,7.527 5.823,7.527 5.211,7.527 4.712,8.026 4.712,8.638 V 12.01 H 1.329 v -1.166 c 0,-2.479 2.015,-4.495 4.494,-4.495 z"
       id="path2627" />
    <path style="fill:none;stroke-width:0.478;stroke-dasharray:none;stroke-opacity:1"
       d="M 6.223,5.59 V 0.928 c 0,-0.221 -0.18,-0.4 -0.4,-0.4 -0.22,0 -0.4,0.179 -0.4,0.4 V 5.59 C 2.693,5.798 0.528,8.062 0.528,10.844 v 7.292 c 0,2.919 2.376,5.294 5.295,5.294 2.919,0 5.295,-2.375 5.295,-5.294 V 10.844 C 11.118,8.062 8.953,5.798 6.223,5.59 Z"
       id="path189" />
  </g>
</svg>
