<svg
   width="39.999985"
   height="31.163767"
   viewBox="0 0 39.999985 31.163767"
   fill="none"
   version="1.1"
   id="svg221"
   xmlns="http://www.w3.org/2000/svg"
   xmlns:svg="http://www.w3.org/2000/svg">
  <defs
     id="defs225" />
  <mask
     id="path-1-inside-1_906_1140"
     fill="#ffffff">
    <path
       fill-rule="evenodd"
       clip-rule="evenodd"
       d="m 38.9547,35.4187 -10.906,-8.906 c -0.5711,-0.5711 0.2859,-1.4281 0.857,-0.8569 l 10.9059,8.9065 c 0.5712,0.5712 -0.2855,1.4276 -0.8569,0.8564 z M 15.931,14.395 5.02507,5.48844 C 4.45367,4.91729 5.31065,4.06055 5.88178,4.63173 L 16.7877,13.5377 c 0.5714,0.5711 -0.2856,1.4285 -0.8567,0.8573 z m 2.9024,6.2364 H 0.605961 C 0.271359,20.6314 0,20.36 0,20.0254 0,19.6908 0.271359,19.4195 0.605961,19.4195 H 18.8334 c 0.2882,-1.7193 1.7836,-3.0293 3.585,-3.0293 2.0076,0 3.6353,1.6274 3.6353,3.6353 0,2.0079 -1.6277,3.6353 -3.6353,3.6353 -1.8014,0 -3.2967,-1.3101 -3.585,-3.0294 z m 3.585,1.8177 c 1.3384,0 2.4236,-1.0852 2.4236,-2.4236 0,-1.3385 -1.0852,-2.4236 -2.4236,-2.4236 -1.3384,0 -2.4236,1.0851 -2.4236,2.4236 0,1.3384 1.0852,2.4236 2.4236,2.4236 z m 0.606,-12.1184 c 0,0.3349 -0.2714,0.606 -0.606,0.606 -0.3346,0 -0.6059,-0.2711 -0.6059,-0.606 V 5.06009 c 0,-0.33461 0.2713,-0.60596 0.6059,-0.60596 0.3346,0 0.606,0.27135 0.606,0.60596 z m 0,24.6596 c 0,0.3346 -0.2714,0.606 -0.606,0.606 -0.3346,0 -0.6059,-0.2714 -0.6059,-0.606 v -5.2706 c 0,-0.3348 0.2713,-0.606 0.6059,-0.606 0.3346,0 0.606,0.2712 0.606,0.606 z m 9.088,-14.3592 c -0.3346,0 -0.6058,-0.2714 -0.6058,-0.606 0,-0.3346 0.2712,-0.6059 0.6058,-0.6059 h 7.2706 c 0.3346,0 0.606,0.2713 0.606,0.6059 0,0.3346 -0.2714,0.606 -0.606,0.606 z m -3.2069,-6.2364 c -0.2365,0.2366 -0.6202,0.2366 -0.8569,0 -0.2366,-0.2368 -0.2366,-0.6204 0,-0.857 L 38.9545,4.63179 c 0.2368,-0.23655 0.6204,-0.23655 0.857,0 0.2365,0.23655 0.2365,0.62018 0,0.85672 z M 5.88123,35.4184 c -0.23655,0.2365 -0.62018,0.2365 -0.85671,0 -0.23653,-0.2366 -0.23655,-0.6202 0,-0.8567 L 15.9305,25.6551 c 0.2365,-0.2366 0.6201,-0.2366 0.8567,0 0.2368,0.2368 0.2368,0.6204 0,0.8569 z"
       id="path212" />
  </mask>
  <path
     fill-rule="evenodd"
     clip-rule="evenodd"
     d="m 38.9547,30.97534 -10.906,-8.906 c -0.5711,-0.5711 0.2859,-1.4281 0.857,-0.8569 l 10.9059,8.9065 c 0.5712,0.5712 -0.2855,1.4276 -0.8569,0.8564 z M 15.931,9.9516396 5.02507,1.0450796 c -0.5714,-0.57115 0.28558,-1.42789 0.85671,-0.85671 l 10.90592,8.90597 c 0.5714,0.5711 -0.2856,1.4285004 -0.8567,0.8573 z M 18.8334,16.18804 H 0.605961 C 0.271359,16.18804 0,15.91664 0,15.58204 c 0,-0.3346 0.271359,-0.6059 0.605961,-0.6059 H 18.8334 c 0.2882,-1.7193 1.7836,-3.0293 3.585,-3.0293 2.0076,0 3.6353,1.6274 3.6353,3.6353 0,2.0079 -1.6277,3.6353 -3.6353,3.6353 -1.8014,0 -3.2967,-1.3101 -3.585,-3.0294 z m 3.585,1.8177 c 1.3384,0 2.4236,-1.0852 2.4236,-2.4236 0,-1.3385 -1.0852,-2.4236 -2.4236,-2.4236 -1.3384,0 -2.4236,1.0851 -2.4236,2.4236 0,1.3384 1.0852,2.4236 2.4236,2.4236 z m 0.606,-12.1184004 c 0,0.3349 -0.2714,0.606 -0.606,0.606 -0.3346,0 -0.6059,-0.2711 -0.6059,-0.606 v -5.27061 c 0,-0.33461 0.2713,-0.60596 0.6059,-0.60596 0.3346,0 0.606,0.27135 0.606,0.60596 z m 0,24.6596004 c 0,0.3346 -0.2714,0.606 -0.606,0.606 -0.3346,0 -0.6059,-0.2714 -0.6059,-0.606 v -5.2706 c 0,-0.3348 0.2713,-0.606 0.6059,-0.606 0.3346,0 0.606,0.2712 0.606,0.606 z m 9.088,-14.3592 c -0.3346,0 -0.6058,-0.2714 -0.6058,-0.606 0,-0.3346 0.2712,-0.6059 0.6058,-0.6059 h 7.2706 c 0.3346,0 0.606,0.2713 0.606,0.6059 0,0.3346 -0.2714,0.606 -0.606,0.606 z M 28.9055,9.9513396 c -0.2365,0.2366004 -0.6202,0.2366004 -0.8569,0 -0.2366,-0.2368 -0.2366,-0.6204 0,-0.857 l 10.9059,-8.90591 c 0.2368,-0.23655 0.6204,-0.23655 0.857,0 0.2365,0.23655 0.2365,0.62018 0,0.85672 z M 5.88123,30.97504 c -0.23655,0.2365 -0.62018,0.2365 -0.85671,0 -0.23653,-0.2366 -0.23655,-0.6202 0,-0.8567 l 10.90598,-8.9066 c 0.2365,-0.2366 0.6201,-0.2366 0.8567,0 0.2368,0.2368 0.2368,0.6204 0,0.8569 z"
     class="icon-light-rays"
     fill="#14142b"
     id="path215" />
  <path
     d="m 38.9547,35.4187 0.071,-0.0711 -0.0078,-0.0064 z m -10.906,-8.906 -0.071,0.0711 0.0078,0.0064 z m 0.857,-0.8569 -0.0711,0.071 0.0078,0.0064 z m 10.9059,8.9065 0.0711,-0.071 -0.0078,-0.0064 z M 15.931,14.395 16.0021,14.324 15.9943,14.3176 Z M 5.02507,5.48844 4.95402,5.55953 4.96182,5.5659 Z M 5.88178,4.63173 5.81071,4.7028 5.81853,4.70919 Z M 16.7877,13.5377 16.8588,13.4666 16.851,13.4602 Z m 2.0457,7.0937 0.0986,-0.0165 -0.014,-0.0835 h -0.0846 z m 0,-1.2119 v 0.1 H 18.918 L 18.932,19.436 Z M 28.9055,14.3947 28.842,14.3169 28.8348,14.324 Z m -0.8569,0 -0.0708,0.0707 h 1e-4 z m 0,-0.857 -0.0636,-0.0778 -0.0071,0.0071 z m 10.9059,-8.90591 0.0636,0.07785 0.0071,-0.0071 z m 0.857,0.85672 0.0635,0.07784 0.0072,-0.00713 z M 5.88123,35.4184 5.81766,35.3405 5.81052,35.3477 Z M 5.02452,34.5617 4.96094,34.4838 4.95381,34.4909 Z m 10.90598,-8.9066 0.0635,0.0778 0.0072,-0.0071 z m 0.8567,0 -0.0707,0.0707 v 0 z m 0,0.8569 0.0635,0.0779 0.0071,-0.0071 z m 22.2307,8.8292 -10.9059,-8.9059 -0.1265,0.1549 10.9059,8.9059 z M 28.1194,26.442 c -0.1235,-0.1236 -0.1654,-0.2567 -0.1582,-0.3786 0.0073,-0.1242 0.0663,-0.2448 0.1584,-0.3368 0.092,-0.0921 0.2125,-0.1511 0.3368,-0.1584 0.1218,-0.0072 0.255,0.0347 0.3786,0.1583 l 0.1414,-0.1414 c -0.162,-0.162 -0.3501,-0.2272 -0.5318,-0.2165 -0.1791,0.0105 -0.3443,0.0944 -0.4665,0.2166 -0.1221,0.1221 -0.206,0.2873 -0.2166,0.4665 -0.0107,0.1816 0.0545,0.3698 0.2165,0.5317 z m 0.723,-0.7088 10.906,8.9066 0.1265,-0.1549 -10.9059,-8.9066 z m 10.8985,8.8999 c 0.1236,0.1236 0.1655,0.2567 0.1583,0.3785 -0.0073,0.1242 -0.0662,0.2446 -0.1583,0.3366 -0.092,0.0919 -0.2125,0.1509 -0.3368,0.1581 -0.1218,0.0072 -0.2551,-0.0347 -0.3787,-0.1583 l -0.1414,0.1414 c 0.162,0.162 0.3502,0.2272 0.5318,0.2166 0.1792,-0.0105 0.3443,-0.0943 0.4665,-0.2164 0.1222,-0.1221 0.206,-0.2872 0.2166,-0.4663 0.0107,-0.1816 -0.0546,-0.3697 -0.2165,-0.5317 z M 15.9943,14.3176 5.08832,5.41099 4.96182,5.5659 15.8678,14.4725 Z M 5.09577,5.41772 C 4.97211,5.29411 4.93023,5.16096 4.93738,5.03917 4.94468,4.91491 5.00364,4.79445 5.09568,4.70242 5.18772,4.6104 5.30821,4.55144 5.43249,4.54413 5.55431,4.53697 5.68747,4.57883 5.81107,4.70244 L 5.9525,4.56102 C 5.79052,4.39904 5.60239,4.3338 5.42075,4.34448 5.24157,4.35501 5.07644,4.43884 4.95427,4.56099 4.8321,4.68315 4.74825,4.84826 4.73773,5.02744 4.72706,5.20907 4.79233,5.3972 4.95437,5.55917 Z M 5.81853,4.70919 16.7245,13.6151 16.851,13.4602 5.94503,4.55428 Z M 16.717,13.6084 c 0.1237,0.1236 0.1656,0.2568 0.1584,0.3787 -0.0073,0.1243 -0.0663,0.2448 -0.1583,0.3369 -0.0921,0.0921 -0.2126,0.1512 -0.3368,0.1585 -0.1218,0.0072 -0.255,-0.0346 -0.3786,-0.1582 l -0.1414,0.1414 c 0.162,0.162 0.3501,0.2272 0.5318,0.2165 0.1792,-0.0106 0.3443,-0.0946 0.4665,-0.2168 0.1221,-0.1222 0.2059,-0.2874 0.2165,-0.4666 0.0106,-0.1817 -0.0546,-0.3699 -0.2167,-0.5318 z m 2.1164,6.923 H 0.605961 v 0.2 H 18.8334 Z m -18.227439,0 C 0.326588,20.5314 0.1,20.3048 0.1,20.0254 h -0.2 c 0,0.3899 0.316131,0.706 0.705961,0.706 z M 0.1,20.0254 c 0,-0.2793 0.226588,-0.5059 0.505961,-0.5059 v -0.2 C 0.216131,19.3195 -0.1,19.6356 -0.1,20.0254 Z M 0.605961,19.5195 H 18.8334 v -0.2 H 0.605961 Z M 18.932,19.436 c 0.2803,-1.6719 1.7346,-2.9458 3.4864,-2.9458 v -0.2 c -1.8511,0 -3.3874,1.346 -3.6837,3.1127 z m 3.4864,-2.9458 c 1.9524,0 3.5353,1.5827 3.5353,3.5353 h 0.2 c 0,-2.0631 -1.6724,-3.7353 -3.7353,-3.7353 z m 3.5353,3.5353 c 0,1.9526 -1.5829,3.5353 -3.5353,3.5353 v 0.2 c 2.0629,0 3.7353,-1.6722 3.7353,-3.7353 z m -3.5353,3.5353 c -1.7518,0 -3.2061,-1.274 -3.4864,-2.9459 l -0.1973,0.033 c 0.2963,1.7667 1.8326,3.1129 3.6837,3.1129 z m 0,-1.0117 c 1.3937,0 2.5236,-1.13 2.5236,-2.5236 h -0.2 c 0,1.2831 -1.0404,2.3236 -2.3236,2.3236 z m 2.5236,-2.5236 c 0,-1.3937 -1.1299,-2.5236 -2.5236,-2.5236 v 0.2 c 1.2832,0 2.3236,1.0404 2.3236,2.3236 z m -2.5236,-2.5236 c -1.3936,0 -2.5236,1.1299 -2.5236,2.5236 h 0.2 c 0,-1.2832 1.0404,-2.3236 2.3236,-2.3236 z m -2.5236,2.5236 c 0,1.3936 1.13,2.5236 2.5236,2.5236 v -0.2 c -1.2832,0 -2.3236,-1.0405 -2.3236,-2.3236 z m 3.0296,-9.6948 c 0,0.2796 -0.2266,0.506 -0.506,0.506 v 0.2 c 0.3898,0 0.706,-0.3159 0.706,-0.706 z m -0.506,0.506 c -0.2794,0 -0.5059,-0.2264 -0.5059,-0.506 h -0.2 c 0,0.3901 0.3161,0.706 0.7059,0.706 z m -0.5059,-0.506 V 5.06009 h -0.2 v 5.27061 z m 0,-5.27061 c 0,-0.27938 0.2265,-0.50596 0.5059,-0.50596 v -0.2 c -0.3898,0 -0.7059,0.31613 -0.7059,0.70596 z m 0.5059,-0.50596 c 0.2794,0 0.506,0.22658 0.506,0.50596 h 0.2 c 0,-0.38983 -0.3161,-0.70596 -0.706,-0.70596 z m 0.506,0.50596 v 5.27061 h 0.2 V 5.06009 Z m 0,29.93021 c 0,0.2794 -0.2266,0.506 -0.506,0.506 v 0.2 c 0.3899,0 0.706,-0.3161 0.706,-0.706 z m -0.506,0.506 c -0.2794,0 -0.5059,-0.2266 -0.5059,-0.506 h -0.2 c 0,0.3899 0.3161,0.706 0.7059,0.706 z m -0.5059,-0.506 v -5.2706 h -0.2 v 5.2706 z m 0,-5.2706 c 0,-0.2796 0.2265,-0.506 0.5059,-0.506 v -0.2 c -0.3898,0 -0.7059,0.3159 -0.7059,0.706 z m 0.5059,-0.506 c 0.2794,0 0.506,0.2264 0.506,0.506 h 0.2 c 0,-0.3901 -0.3162,-0.706 -0.706,-0.706 z m 0.506,0.506 v 5.2706 h 0.2 v -5.2706 z m 9.188,-9.1886 c -0.2794,0 -0.5058,-0.2265 -0.5058,-0.506 h -0.2 c 0,0.3898 0.3159,0.706 0.7058,0.706 z m -0.5058,-0.506 c 0,-0.2794 0.2264,-0.5059 0.5058,-0.5059 v -0.2 c -0.3899,0 -0.7058,0.3162 -0.7058,0.7059 z m 0.5058,-0.5059 h 7.2706 v -0.2 h -7.2706 z m 7.2706,0 c 0.2794,0 0.506,0.2266 0.506,0.5059 h 0.2 c 0,-0.3898 -0.3162,-0.7059 -0.706,-0.7059 z m 0.506,0.5059 c 0,0.2794 -0.2266,0.506 -0.506,0.506 v 0.2 c 0.3898,0 0.706,-0.3161 0.706,-0.706 z m -0.506,0.506 h -7.2706 v 0.2 H 39.383 Z M 28.8348,14.324 c -0.1975,0.1975 -0.5178,0.1975 -0.7156,0 l -0.1413,0.1414 c 0.2758,0.2756 0.7227,0.2756 0.9983,0 z m -0.7155,0 c -0.1976,-0.1977 -0.1975,-0.5181 0,-0.7155 L 27.9779,13.467 c -0.2757,0.2756 -0.2756,0.7226 -1e-4,0.9984 z M 28.1118,13.6152 39.0178,4.70925 38.8913,4.55434 27.9853,13.4603 Z M 39.0252,4.70254 c 0.1978,-0.19757 0.5181,-0.19751 0.7156,-4e-5 l 0.1414,-0.14142 c -0.2756,-0.27562 -0.7225,-0.27557 -0.9984,-3e-5 z m 0.7156,-4e-5 c 0.1975,0.1975 0.1975,0.51782 0,0.71529 l 0.1414,0.14143 c 0.2756,-0.27559 0.2756,-0.72254 0,-0.99814 z m 0.0074,0.70855 -10.9059,8.90615 0.1265,0.155 10.9059,-8.90624 z M 5.81052,35.3477 c -0.1975,0.1975 -0.51781,0.1975 -0.71529,0 L 4.9538,35.4891 c 0.27559,0.2756 0.72254,0.2756 0.99814,0 z m -0.71529,0 C 4.89774,35.1502 4.89774,34.8298 5.09522,34.6324 L 4.95381,34.4909 C 4.6782,34.7665 4.67823,35.2135 4.9538,35.4891 Z M 5.08777,34.6391 15.9937,25.7325 15.8672,25.5776 4.96126,34.4842 Z M 16.0012,25.7258 c 0.1975,-0.1975 0.5178,-0.1975 0.7153,0 l 0.1414,-0.1414 c -0.2756,-0.2756 -0.7225,-0.2756 -0.9981,0 z m 0.7153,0 c 0.1977,0.1978 0.1977,0.518 0,0.7155 l 0.1413,0.1415 c 0.276,-0.2756 0.2759,-0.7226 10e-5,-0.9984 z m 0.0074,0.7088 -10.90592,8.9063 0.1265,0.1549 10.90592,-8.9063 z"
     fill="#ffffff"
     mask="url(#path-1-inside-1_906_1140)"
     id="path217"
     transform="translate(0,-4.4433604)" />
  <path
     fill-rule="evenodd"
     clip-rule="evenodd"
     d="M 18.8334,16.18804 H 0.605961 C 0.271359,16.18804 0,15.91664 0,15.58204 c 0,-0.3346 0.271359,-0.606 0.605961,-0.606 H 18.8334 c 0.2882,-1.7193 1.7836,-3.0293 3.585,-3.0293 2.0076,0 3.6353,1.6275 3.6353,3.6354 0,2.0078 -1.6277,3.6353 -3.6353,3.6353 -1.8014,0 -3.2967,-1.3101 -3.585,-3.0294 z m 3.585,1.8176 c 1.3384,0 2.4236,-1.0852 2.4236,-2.4236 0,-1.3384 -1.0852,-2.4236 -2.4236,-2.4236 -1.3384,0 -2.4236,1.0852 -2.4236,2.4236 0,1.3384 1.0852,2.4236 2.4236,2.4236 z"
     fill="#ff0000"
     id="path219" />
</svg>
