<svg
   width="40"
   height="32"
   viewBox="0 0 40 32"
   fill="none"
   version="1.1"
   id="svg196"
   xmlns="http://www.w3.org/2000/svg"
   xmlns:svg="http://www.w3.org/2000/svg">
  <mask
     id="path-1-inside-1_906_1131"
     fill="#ffffff">
    <path
       fill-rule="evenodd"
       clip-rule="evenodd"
       d="M38.9547 31.4187L28.0487 22.5127C27.4776 21.9416 28.3346 21.0846 28.9057 21.6558L39.8116 30.5623C40.3828 31.1335 39.5261 31.9899 38.9547 31.4187ZM15.931 10.395L5.02507 1.48844C4.45367 0.917285 5.31065 0.0605478 5.88178 0.631731L16.7877 9.53768C17.3591 10.1088 16.5021 10.9662 15.931 10.395ZM18.8334 16.6314H0.605961C0.271359 16.6314 0 16.36 0 16.0254C0 15.6908 0.271359 15.4195 0.605961 15.4195H18.8334C19.1216 13.7002 20.617 12.3902 22.4184 12.3902C24.426 12.3902 26.0537 14.0176 26.0537 16.0255C26.0537 18.0334 24.426 19.6608 22.4184 19.6608C20.617 19.6608 19.1217 18.3507 18.8334 16.6314ZM22.4184 18.4491C23.7568 18.4491 24.842 17.3639 24.842 16.0255C24.842 14.687 23.7568 13.6019 22.4184 13.6019C21.08 13.6019 19.9948 14.687 19.9948 16.0255C19.9948 17.3639 21.08 18.4491 22.4184 18.4491ZM23.0244 6.33072C23.0244 6.66557 22.753 6.93668 22.4184 6.93668C22.0838 6.93668 21.8125 6.66557 21.8125 6.33072V1.06009C21.8125 0.725485 22.0838 0.454126 22.4184 0.454126C22.753 0.454126 23.0244 0.725485 23.0244 1.06009V6.33072ZM23.0244 30.9903C23.0244 31.3249 22.753 31.5963 22.4184 31.5963C22.0838 31.5963 21.8125 31.3249 21.8125 30.9903V25.7197C21.8125 25.3849 22.0838 25.1137 22.4184 25.1137C22.753 25.1137 23.0244 25.3849 23.0244 25.7197V30.9903ZM32.1124 16.6311C31.7778 16.6311 31.5066 16.3597 31.5066 16.0251C31.5066 15.6905 31.7778 15.4192 32.1124 15.4192H39.383C39.7176 15.4192 39.989 15.6905 39.989 16.0251C39.989 16.3597 39.7176 16.6311 39.383 16.6311H32.1124ZM28.9055 10.3947C28.669 10.6313 28.2853 10.6313 28.0486 10.3947C27.812 10.1579 27.812 9.77428 28.0486 9.53774L38.9545 0.631794C39.1913 0.395244 39.5749 0.395244 39.8115 0.631794C40.048 0.868343 40.048 1.25197 39.8115 1.48851L28.9055 10.3947ZM5.88123 31.4184C5.64468 31.6549 5.26105 31.6549 5.02452 31.4184C4.78799 31.1818 4.78797 30.7982 5.02452 30.5617L15.9305 21.6551C16.167 21.4185 16.5506 21.4185 16.7872 21.6551C17.024 21.8919 17.024 22.2755 16.7872 22.512L5.88123 31.4184Z"
       id="path187" fill="#ffffff"/>
  </mask>
  <path
     id="path190"
     d="m 38.9547,31.4187 -10.906,-8.906 c -0.5711,-0.5711 0.2859,-1.4281 0.857,-0.8569 l 10.9059,8.9065 c 0.5712,0.5712 -0.2855,1.4276 -0.8569,0.8564 z M 15.931,10.395 5.02507,1.48844 C 4.45367,0.917285 5.31065,0.0605478 5.88178,0.631731 L 16.7877,9.53768 C 17.3591,10.1088 16.5021,10.9662 15.931,10.395 Z m 7.0934,-4.06428 c 0,0.33485 -0.2714,0.60596 -0.606,0.60596 -0.3346,0 -0.6059,-0.27111 -0.6059,-0.60596 V 1.06009 c 0,-0.334605 0.2713,-0.605964 0.6059,-0.605964 0.3346,0 0.606,0.271359 0.606,0.605964 z m 0,24.65958 c 0,0.3346 -0.2714,0.606 -0.606,0.606 -0.3346,0 -0.6059,-0.2714 -0.6059,-0.606 v -5.2706 c 0,-0.3348 0.2713,-0.606 0.6059,-0.606 0.3346,0 0.606,0.2712 0.606,0.606 z m 9.088,-14.3592 c -0.3346,0 -0.6058,-0.2714 -0.6058,-0.606 0,-0.3346 0.2712,-0.6059 0.6058,-0.6059 h 7.2706 c 0.3346,0 0.606,0.2713 0.606,0.6059 0,0.3346 -0.2714,0.606 -0.606,0.606 z m -3.2069,-6.2364 c -0.2365,0.2366 -0.6202,0.2366 -0.8569,0 -0.2366,-0.2368 -0.2366,-0.62042 0,-0.85696 L 38.9545,0.631794 c 0.2368,-0.23655 0.6204,-0.23655 0.857,0 0.2365,0.236549 0.2365,0.620176 0,0.856716 z M 5.88123,31.4184 c -0.23655,0.2365 -0.62018,0.2365 -0.85671,0 -0.23653,-0.2366 -0.23655,-0.6202 0,-0.8567 L 15.9305,21.6551 c 0.2365,-0.2366 0.6201,-0.2366 0.8567,0 0.2368,0.2368 0.2368,0.6204 0,0.8569 z" fill="#000000" class="icon-light-rays"/>
  <path
     id="path192"
     d="m 38.9547,31.4187 0.071,-0.0711 -0.0078,-0.0064 z m -10.906,-8.906 -0.071,0.0711 0.0078,0.0064 z m 0.857,-0.8569 -0.0711,0.071 0.0078,0.0064 z m 10.9059,8.9065 0.0711,-0.071 -0.0078,-0.0064 z M 15.931,10.395 16.0021,10.324 15.9943,10.3176 Z M 5.02507,1.48844 4.95402,1.55953 4.96182,1.5659 Z M 5.88178,0.631731 5.81071,0.702798 5.81853,0.709186 Z M 16.7877,9.53768 16.8588,9.46659 16.851,9.46022 Z M 28.9055,10.3947 28.842,10.3169 28.8348,10.324 Z m -0.8569,0 -0.0708,0.0707 h 1e-4 z m 0,-0.85696 -0.0636,-0.07785 -0.0071,0.00714 z m 10.9059,-8.905946 0.0636,0.077845 0.0071,-0.007098 z m 0.857,0.856716 0.0635,0.07784 0.0072,-0.00713 z M 5.88123,31.4184 5.81766,31.3405 5.81052,31.3477 Z M 5.02452,30.5617 4.96094,30.4838 4.95381,30.4909 Z m 10.90598,-8.9066 0.0635,0.0778 0.0072,-0.0071 z m 0.8567,0 -0.0707,0.0707 v 0 z m 0,0.8569 0.0635,0.0779 0.0071,-0.0071 z m 22.2307,8.8292 -10.9059,-8.9059 -0.1265,0.1549 10.9059,8.9059 z M 28.1194,22.442 c -0.1235,-0.1236 -0.1654,-0.2567 -0.1582,-0.3786 0.0073,-0.1242 0.0663,-0.2448 0.1584,-0.3368 0.092,-0.0921 0.2125,-0.1511 0.3368,-0.1584 0.1218,-0.0072 0.255,0.0347 0.3786,0.1583 l 0.1414,-0.1414 c -0.162,-0.162 -0.3501,-0.2272 -0.5318,-0.2165 -0.1791,0.0105 -0.3443,0.0944 -0.4665,0.2166 -0.1221,0.1221 -0.206,0.2873 -0.2166,0.4665 -0.0107,0.1816 0.0545,0.3698 0.2165,0.5317 z m 0.723,-0.7088 10.906,8.9066 0.1265,-0.1549 -10.9059,-8.9066 z m 10.8985,8.8999 c 0.1236,0.1236 0.1655,0.2567 0.1583,0.3785 -0.0073,0.1242 -0.0662,0.2446 -0.1583,0.3366 -0.092,0.0919 -0.2125,0.1509 -0.3368,0.1581 -0.1218,0.0072 -0.2551,-0.0347 -0.3787,-0.1583 l -0.1414,0.1414 c 0.162,0.162 0.3502,0.2272 0.5318,0.2166 0.1792,-0.0105 0.3443,-0.0943 0.4665,-0.2164 0.1222,-0.1221 0.206,-0.2872 0.2166,-0.4663 0.0107,-0.1816 -0.0546,-0.3697 -0.2165,-0.5317 z M 15.9943,10.3176 5.08832,1.41099 4.96182,1.5659 15.8678,10.4725 Z M 5.09577,1.41772 C 4.97211,1.29411 4.93023,1.16096 4.93738,1.03917 4.94468,0.914914 5.00364,0.79445 5.09568,0.702425 5.18772,0.6104 5.30821,0.55144 5.43249,0.544133 5.55431,0.53697 5.68747,0.578835 5.81107,0.702439 L 5.9525,0.561023 C 5.79052,0.399036 5.60239,0.333798 5.42075,0.344478 5.24157,0.355012 5.07644,0.438837 4.95427,0.560993 4.8321,0.68315 4.74825,0.848263 4.73773,1.02744 4.72706,1.20907 4.79233,1.3972 4.95437,1.55917 Z M 5.81853,0.709186 16.7245,9.61513 16.851,9.46022 5.94503,0.554276 Z M 16.717,9.6084 c 0.1237,0.1236 0.1656,0.25679 0.1584,0.37865 -0.0073,0.12435 -0.0663,0.24485 -0.1583,0.33695 -0.0921,0.0921 -0.2126,0.1512 -0.3368,0.1585 -0.1218,0.0072 -0.255,-0.0346 -0.3786,-0.1582 l -0.1414,0.1414 c 0.162,0.162 0.3501,0.2272 0.5318,0.2165 0.1792,-0.0106 0.3443,-0.0946 0.4665,-0.2168 0.1221,-0.1222 0.2059,-0.2874 0.2165,-0.46662 C 17.0857,9.8171 17.0205,9.62893 16.8584,9.46695 Z m 6.2074,-3.27768 c 0,0.27959 -0.2266,0.50596 -0.506,0.50596 v 0.2 c 0.3898,0 0.706,-0.31586 0.706,-0.70596 z m -0.506,0.50596 c -0.2794,0 -0.5059,-0.22637 -0.5059,-0.50596 h -0.2 c 0,0.3901 0.3161,0.70596 0.7059,0.70596 z M 21.9125,6.33072 V 1.06009 h -0.2 v 5.27063 z m 0,-5.27063 c 0,-0.279377 0.2265,-0.505964 0.5059,-0.505964 v -0.2 c -0.3898,0 -0.7059,0.316131 -0.7059,0.705964 z m 0.5059,-0.505964 c 0.2794,0 0.506,0.226587 0.506,0.505964 h 0.2 c 0,-0.389833 -0.3161,-0.705964 -0.706,-0.705964 z m 0.506,0.505964 v 5.27063 h 0.2 V 1.06009 Z m 0,29.93021 c 0,0.2794 -0.2266,0.506 -0.506,0.506 v 0.2 c 0.3899,0 0.706,-0.3161 0.706,-0.706 z m -0.506,0.506 c -0.2794,0 -0.5059,-0.2266 -0.5059,-0.506 h -0.2 c 0,0.3899 0.3161,0.706 0.7059,0.706 z m -0.5059,-0.506 v -5.2706 h -0.2 v 5.2706 z m 0,-5.2706 c 0,-0.2796 0.2265,-0.506 0.5059,-0.506 v -0.2 c -0.3898,0 -0.7059,0.3159 -0.7059,0.706 z m 0.5059,-0.506 c 0.2794,0 0.506,0.2264 0.506,0.506 h 0.2 c 0,-0.3901 -0.3162,-0.706 -0.706,-0.706 z m 0.506,0.506 v 5.2706 h 0.2 v -5.2706 z m 9.188,-9.1886 c -0.2794,0 -0.5058,-0.2265 -0.5058,-0.506 h -0.2 c 0,0.3898 0.3159,0.706 0.7058,0.706 z m -0.5058,-0.506 c 0,-0.2794 0.2264,-0.5059 0.5058,-0.5059 v -0.2 c -0.3899,0 -0.7058,0.3162 -0.7058,0.7059 z m 0.5058,-0.5059 h 7.2706 v -0.2 h -7.2706 z m 7.2706,0 c 0.2794,0 0.506,0.2266 0.506,0.5059 h 0.2 c 0,-0.3898 -0.3162,-0.7059 -0.706,-0.7059 z m 0.506,0.5059 c 0,0.2794 -0.2266,0.506 -0.506,0.506 v 0.2 c 0.3898,0 0.706,-0.3161 0.706,-0.706 z m -0.506,0.506 h -7.2706 v 0.2 H 39.383 Z M 28.8348,10.324 c -0.1975,0.1975 -0.5178,0.1975 -0.7156,0 l -0.1413,0.1414 c 0.2758,0.2756 0.7227,0.2756 0.9983,0 z m -0.7155,0 c -0.1976,-0.1977 -0.1975,-0.51808 0,-0.71555 L 27.9779,9.46703 c -0.2757,0.27561 -0.2756,0.72257 -1e-4,0.99837 z M 28.1118,9.6152 39.0178,0.709249 38.8913,0.554339 27.9853,9.46029 Z M 39.0252,0.702541 c 0.1978,-0.197567 0.5181,-0.197512 0.7156,-3.8e-5 L 39.8822,0.561085 C 39.6066,0.285459 39.1597,0.285514 38.8838,0.561047 Z m 0.7156,-3.8e-5 c 0.1975,0.197501 0.1975,0.517817 0,0.715287 l 0.1414,0.14143 c 0.2756,-0.27559 0.2756,-0.722537 0,-0.998135 z m 0.0074,0.708547 -10.9059,8.90615 0.1265,0.155 10.9059,-8.90624 z M 5.81052,31.3477 c -0.1975,0.1975 -0.51781,0.1975 -0.71529,0 L 4.9538,31.4891 c 0.27559,0.2756 0.72254,0.2756 0.99814,0 z m -0.71529,0 C 4.89774,31.1502 4.89774,30.8298 5.09522,30.6324 L 4.95381,30.4909 C 4.6782,30.7665 4.67823,31.2135 4.9538,31.4891 Z M 5.08777,30.6391 15.9937,21.7325 15.8672,21.5776 4.96126,30.4842 Z M 16.0012,21.7258 c 0.1975,-0.1975 0.5178,-0.1975 0.7153,0 l 0.1414,-0.1414 c -0.2756,-0.2756 -0.7225,-0.2756 -0.9981,0 z m 0.7153,0 c 0.1977,0.1978 0.1977,0.518 0,0.7155 l 0.1413,0.1415 c 0.276,-0.2756 0.2759,-0.7226 10e-5,-0.9984 z m 0.0074,0.7088 -10.90592,8.9063 0.1265,0.1549 10.90592,-8.9063 z" fill="white"/>
  <path
     fill-rule="evenodd"
     clip-rule="evenodd"
     d="M 18.8334,16.6314 H 0.605961 C 0.271359,16.6314 0,16.36 0,16.0254 0,15.6908 0.271359,15.4194 0.605961,15.4194 H 18.8334 c 0.2882,-1.7193 1.7836,-3.0293 3.585,-3.0293 2.0076,0 3.6353,1.6275 3.6353,3.6354 0,2.0078 -1.6277,3.6353 -3.6353,3.6353 -1.8014,0 -3.2967,-1.3101 -3.585,-3.0294 z m 3.585,1.8176 c 1.3384,0 2.4236,-1.0852 2.4236,-2.4236 0,-1.3384 -1.0852,-2.4236 -2.4236,-2.4236 -1.3384,0 -2.4236,1.0852 -2.4236,2.4236 0,1.3384 1.0852,2.4236 2.4236,2.4236 z"
     fill="#ff0000"
     id="path194"
     style="display:inline;stroke-width:1.00157;stroke-dasharray:none" />
</svg>
