<svg width="40" height="40" viewBox="0 0 40 40" fill="none" xmlns="http://www.w3.org/2000/svg">
<path d="M20 0C14.6969 0 9.60625 2.10844 5.85938 5.85781C2.10938 9.60719 0 14.6978 0 20C0 25.3022 2.10938 30.3928 5.85938 34.1422C9.60625 37.8916 14.6969 40 20 40C25.3031 40 30.3937 37.8916 34.1406 34.1422C37.8906 30.3928 40 25.3022 40 20C40 14.6978 37.8906 9.60719 34.1406 5.85781C30.3937 2.10844 25.3031 0 20 0Z" fill="url(#paint0_linear_344_4939)"/>
<path d="M9.30543 18.6864C15.1367 16.1464 19.0241 14.4717 20.9679 13.6626C26.5241 11.3523 27.6772 10.9511 28.4303 10.9376C28.596 10.9348 28.9647 10.9758 29.2053 11.1704C29.4053 11.3345 29.4616 11.5564 29.4898 11.712C29.5148 11.8676 29.5492 12.2223 29.521 12.4992C29.221 15.6617 27.9179 23.3361 27.2554 26.8783C26.9773 28.3771 26.4241 28.8796 25.8897 28.9286C24.7272 29.0355 23.846 28.1611 22.721 27.4239C20.9616 26.2698 19.9679 25.5517 18.2585 24.4258C16.2835 23.1245 17.5647 22.4092 18.6897 21.2404C18.9835 20.9345 24.1022 16.2798 24.1991 15.8576C24.2116 15.8048 24.2241 15.6079 24.1054 15.5042C23.9898 15.4001 23.8178 15.4358 23.6928 15.4639C23.5147 15.5039 20.7053 17.3626 15.2553 21.0398C14.4584 21.5879 13.7366 21.8551 13.0866 21.8411C12.3741 21.8258 10.9991 21.4373 9.97727 21.1054C8.72727 20.6983 7.73035 20.4829 7.81785 19.7914C7.8616 19.4314 8.35856 19.0629 9.30543 18.6864Z" fill="white"/>
<defs>
<linearGradient id="paint0_linear_344_4939" x1="20" y1="0" x2="20" y2="40" gradientUnits="userSpaceOnUse">
<stop stop-color="#2AABEE"/>
<stop offset="1" stop-color="#229ED9"/>
</linearGradient>
<clipPath id="clip0_344_4939">
<rect width="40" height="40" fill="white"/>
</clipPath>
</defs>
</svg>
