<svg width="40" height="40" viewBox="0 0 40 40" fill="none" xmlns="http://www.w3.org/2000/svg">
<g clip-path="url(#clip0_104_1484)">
<path d="M0 40L2.82001 29.724C1.08112 26.7101 0.166513 23.2962 0.167154 19.822C0.167154 8.89843 9.0661 0 19.9902 0C25.2959 0 30.2673 2.06809 34.0266 5.80647C35.874 7.64858 37.3379 9.83465 38.3343 12.2396C39.3308 14.6445 39.8403 17.2211 39.8338 19.822C39.8338 30.7467 30.936 39.6451 20.0107 39.6451C16.6904 39.6451 13.4314 38.8089 10.5273 37.2222L0 40Z" fill="url(#paint0_linear_104_1484)"/>
<path fill-rule="evenodd" clip-rule="evenodd" d="M14.8721 11.2162C14.4968 10.3596 14.0784 10.3393 13.7236 10.3393C13.4098 10.3178 13.0755 10.3178 12.7207 10.3178C12.3864 10.3178 11.8224 10.4433 11.3425 10.9654C10.8615 11.4875 9.5459 12.7204 9.5459 15.2484C9.5459 17.7754 11.3846 20.2198 11.6348 20.5532C11.8849 20.8877 15.1859 26.2353 20.4075 28.3034C24.7523 30.0155 25.6302 29.6821 26.5706 29.577C27.5098 29.4731 29.5987 28.3452 30.0376 27.1326C30.4549 25.9426 30.4549 24.8984 30.3298 24.6893C30.2047 24.4803 29.8488 24.3548 29.3474 24.0836C28.8254 23.8327 26.3193 22.5806 25.8383 22.4122C25.3584 22.2449 25.0241 22.1613 24.6898 22.6631C24.3555 23.1852 23.3742 24.3345 23.0603 24.6679C22.7681 25.0024 22.4554 25.0442 21.9539 24.7933C21.4309 24.5435 19.7821 24 17.8172 22.2449C16.2935 20.8877 15.2701 19.1959 14.9562 18.6941C14.664 18.172 14.9142 17.9008 15.1859 17.6499C15.4156 17.4205 15.709 17.0442 15.9591 16.7515C16.2093 16.4588 16.2923 16.2294 16.4811 15.8949C16.6482 15.5615 16.5641 15.2473 16.439 14.9976C16.3139 14.767 15.3315 12.2401 14.8721 11.2162Z" fill="white"/>
</g>
<defs>
<linearGradient id="paint0_linear_104_1484" x1="19.9129" y1="39.9977" x2="19.9129" y2="-0.00791185" gradientUnits="userSpaceOnUse">
<stop stop-color="#20B038"/>
<stop offset="1" stop-color="#60D66A"/>
</linearGradient>
<clipPath id="clip0_104_1484">
<rect width="40" height="40" fill="white"/>
</clipPath>
</defs>
</svg>
