<?xml version="1.0" encoding="UTF-8" standalone="no"?>
<svg
   width="21.500799"
   height="21.470352"
   viewBox="0 0 21.500799 21.470352"
   fill="none"
   version="1.1"
   id="svg808"
   sodipodi:docname="security-card.svg"
   inkscape:version="1.2.2 (b0a8486541, 2022-12-01)"
   xmlns:inkscape="http://www.inkscape.org/namespaces/inkscape"
   xmlns:sodipodi="http://sodipodi.sourceforge.net/DTD/sodipodi-0.dtd"
   xmlns="http://www.w3.org/2000/svg"
   xmlns:svg="http://www.w3.org/2000/svg">
  <defs
     id="defs812" />
  <sodipodi:namedview
     id="namedview810"
     pagecolor="#ffffff"
     bordercolor="#000000"
     borderopacity="0.25"
     inkscape:showpageshadow="2"
     inkscape:pageopacity="0.0"
     inkscape:pagecheckerboard="0"
     inkscape:deskcolor="#d1d1d1"
     showgrid="false"
     inkscape:zoom="22.625"
     inkscape:cx="10.762431"
     inkscape:cy="10.718232"
     inkscape:window-width="1854"
     inkscape:window-height="1011"
     inkscape:window-x="66"
     inkscape:window-y="32"
     inkscape:window-maximized="1"
     inkscape:current-layer="svg808" />
  <path
     d="m 10.49,16.47684 h 5.92 c -0.09,0.08 -0.18,0.15 -0.27,0.23 l -4.27,3.1999 c -1.41,1.05 -3.70999,1.05 -5.12999,0 l -4.28,-3.1999 c -0.94,-0.7 -1.71001,-2.25 -1.71001,-3.42 V 5.87679 c 0,-1.22 0.93001,-2.57 2.07001,-3 L 7.8,1.00679 c 0.82,-0.30999999 2.18,-0.30999999 3,0 l 4.97,1.87 c 0.95,0.36 1.76,1.36 2.01,2.38 h -7.3 c -0.22,0 -0.42,0.01001 -0.61,0.01001 -1.85,0.11 -2.33001,0.77999 -2.33001,2.88999 v 5.42995 c 0.01,2.3 0.60002,2.8901 2.95001,2.8901 z"
     stroke="#14142b"
     stroke-width="1.5"
     stroke-linecap="round"
     stroke-linejoin="round"
     id="path798" />
  <path
     d="M 7.55078,9.94714 H 20.7508"
     stroke="#14142b"
     stroke-width="1.5"
     stroke-miterlimit="10"
     stroke-linecap="round"
     stroke-linejoin="round"
     id="path800" />
  <path
     d="m 20.7508,8.14719 v 5.54995 c -0.02,2.22 -0.63,2.77 -2.94,2.77 h -7.32 c -2.35002,0 -2.94002,-0.59 -2.94002,-2.9 V 8.13718 c 0,-2.1 0.48,-2.77002 2.33002,-2.89002 0.19,0 0.39,-0.00998 0.61,-0.00998 h 7.32 c 2.35,0.01 2.94,0.59001 2.94,2.91001 z"
     stroke="#292d32"
     stroke-width="1.5"
     stroke-linecap="round"
     stroke-linejoin="round"
     id="path802" />
  <path
     d="m 10.0703,13.98714 h 1.33"
     stroke="#14142b"
     stroke-width="1.5"
     stroke-miterlimit="10"
     stroke-linecap="round"
     stroke-linejoin="round"
     id="path804" />
  <path
     d="m 13.5,13.98714 h 3.27"
     stroke="#14142b"
     stroke-width="1.5"
     stroke-miterlimit="10"
     stroke-linecap="round"
     stroke-linejoin="round"
     id="path806" />
</svg>
