<svg
   id="svg257"
   width="22"
   height="22"
   viewBox="0 0 22 22"
   xmlns="http://www.w3.org/2000/svg"
   xmlns:svg="http://www.w3.org/2000/svg">
  <g
     fill="none"
     stroke="#000000"
     stroke-width="1.5"
     stroke-dasharray="none"
     stroke-opacity="1"
     stroke-linejoin="bevel"
     id="g263">
    <path
       d="m 13.795576,20.999743 c -0.355562,-0.07071 -0.670155,-0.320661 -0.82634,-0.656571 -0.07536,-0.16207 -0.07608,-0.184018 -0.07608,-2.315776 v -2.152153 l 0.09682,-0.182552 c 0.05326,-0.100402 0.152799,-0.238194 0.221221,-0.306203 0.06841,-0.06801 0.207052,-0.166957 0.308065,-0.219884 l 0.18366,-0.09624 h 3.29186 3.291861 l 0.200771,0.098 c 0.251928,0.122965 0.494991,0.386592 0.580103,0.629178 0.05921,0.168761 0.06409,0.341372 0.06409,2.265592 v 2.082915 l -0.115138,0.232468 c -0.131898,0.266296 -0.291131,0.419958 -0.569786,0.549869 l -0.195259,0.09103 -3.151032,0.0054 c -1.733068,0.003 -3.220239,-0.0082 -3.304825,-0.02512 z"
       id="path476-6" />
    <path
       d="M 1.9024399,6.9283411 C 1.5468713,6.8576493 1.232274,6.607735 1.0760855,6.2718841 1.0007267,6.1098422 1.0000056,6.0878978 1.0000056,3.9565103 V 1.8047315 L 1.0968247,1.6222121 C 1.1500764,1.5218267 1.2496264,1.384059 1.3180494,1.3160613 1.3864721,1.2480644 1.5251057,1.149133 1.62612,1.096215 L 1.8097836,1 h 3.2919182 3.2919191 l 0.200774,0.097981 c 0.251934,0.1229436 0.495001,0.3865248 0.580115,0.6290682 0.05922,0.1687322 0.06409,0.3413129 0.06409,2.2651987 v 2.082552 l -0.115143,0.2324288 c -0.131902,0.2662487 -0.291137,0.4198847 -0.569796,0.5497731 l -0.195263,0.091012 -3.1510874,0.00538 C 3.4742116,6.9563749 1.9870139,6.9451608 1.902426,6.9282711 Z"
       id="path476" />
    <path
       d="M 1.9140925,20.895338 C 1.5937192,20.776042 1.3102616,20.354302 1.1695333,19.787537 1.1016343,19.514085 1.1009849,19.477053 1.1009849,15.880243 V 12.249021 L 1.1882209,11.94101 C 1.2362029,11.771607 1.3258975,11.539116 1.387548,11.424368 1.449197,11.309616 1.574109,11.14267 1.6651248,11.053369 L 1.8306079,10.891 h 2.966074 2.9660746 l 0.1809009,0.165347 c 0.2269962,0.207474 0.4460036,0.652278 0.5226931,1.06158 0.053354,0.284742 0.057742,0.575981 0.057742,3.822622 v 3.514402 l -0.1037428,0.392234 c -0.1188452,0.449306 -0.2623192,0.708574 -0.513396,0.927765 l -0.1759349,0.15359 -2.839183,0.0092 c -1.561551,0.0049 -2.9015415,-0.01397 -2.9777566,-0.04241 z"
       id="path476-3" />
    <path
       d="m 13.94219,11.667662 c -0.332915,-0.127206 -0.62747,-0.576909 -0.773707,-1.181252 -0.07056,-0.291583 -0.07123,-0.331071 -0.07123,-4.166362 V 2.4480617 l 0.09065,-0.328433 C 13.237763,1.9389946 13.33097,1.6910886 13.395034,1.568732 13.459104,1.4463725 13.588898,1.2683558 13.683477,1.1731336 L 13.855438,1 h 3.082187 3.082187 l 0.187983,0.1763099 c 0.235882,0.2212298 0.463464,0.6955261 0.543155,1.1319664 0.05544,0.3036218 0.06001,0.6141706 0.06001,4.0760764 v 3.7474193 l -0.107808,0.418241 c -0.123493,0.479096 -0.272589,0.755554 -0.533494,0.98928 l -0.182823,0.163773 -2.950328,0.0098 c -1.622681,0.0052 -3.015128,-0.0149 -3.094326,-0.04522 z"
       id="path476-3-7" />
  </g>
</svg>
