<svg
   width="43.800205"
   height="44.041603"
   viewBox="0 0 43.800205 44.041603"
   fill="none"
   version="1.1"
   id="svg188"
   xmlns="http://www.w3.org/2000/svg"
   xmlns:svg="http://www.w3.org/2000/svg">
  <path
     d="m 18.0606,32.4754 0.6067,-0.7949 -0.6718,-0.5128 -0.6176,0.5769 z m -1.0342,-1.1071 0.6827,0.7308 0.6176,-0.5769 -0.466,-0.7052 z M 17.3779,31.7446 4.385,43.8819 5.75027,45.3434 18.7432,33.2061 Z M 4.385,43.8819 c 0.0899,-0.084 0.24166,-0.0876 0.33834,0.0159 L 3.26182,45.263 c 0.6677,0.7148 1.78232,0.74 2.48845,0.0804 z m 0.33834,0.0159 c 0.09667,0.1034 0.08271,0.2546 -0.00719,0.3386 L 3.35088,42.7749 C 2.64474,43.4345 2.59412,44.5483 3.26182,45.263 Z M 4.71615,44.2364 17.7091,32.0991 16.3438,30.6376 3.35088,42.7749 Z M 17.8607,30.817 c -0.9338,-1.4131 -0.736,-3.3538 0.5647,-4.5689 l -1.3652,-1.4615 c -2.0171,1.8842 -2.3375,4.9092 -0.8681,7.133 z m 0.5647,-4.5689 c 1.4508,-1.3552 3.7051,-1.2795 5.0362,0.1454 l 1.4615,-1.3652 C 22.8276,22.785 19.3069,22.6878 17.0602,24.7866 Z m 5.0362,0.1454 c 1.3311,1.4249 1.2533,3.6792 -0.1974,5.0344 l 1.3652,1.4615 c 2.2467,-2.0987 2.3893,-5.6179 0.2937,-7.8611 z m -0.1974,5.0344 c -1.3007,1.2151 -3.2505,1.2804 -4.5969,0.2526 l -1.2135,1.5897 c 2.1187,1.6173 5.1586,1.5035 7.1756,-0.3808 z m 0.3313,0.3547 c 1.6304,-1.5231 1.7361,-4.0804 0.2118,-5.7121 l -1.4615,1.3653 c 0.7599,0.8134 0.7188,2.1058 -0.1156,2.8853 z m 0.2118,-5.7121 c -1.5242,-1.6317 -4.0827,-1.7002 -5.7132,-0.1771 l 1.3653,1.4615 c 0.8344,-0.7795 2.1265,-0.7325 2.8864,0.0809 z m -5.7132,-0.1771 c -1.6305,1.5231 -1.7361,4.0803 -0.2118,5.712 l 1.4615,-1.3653 c -0.7599,-0.8134 -0.7189,-2.1057 0.1156,-2.8852 z m -0.2118,5.712 c 1.5242,1.6317 4.0827,1.7003 5.7132,0.1772 l -1.3653,-1.4615 c -0.8345,0.7795 -2.1266,0.7325 -2.8864,-0.081 z"
     fill="#196f93"
     id="path180"
     transform="translate(-3.7898756,-0.77781724)"
     />
  <path
     d="m 19.376124,19.806183 c 3.6667,0.0833 6.1667,2.5833 6.25,6.25"
     stroke="#196f93"
     stroke-width="1.5"
     stroke-linecap="round"
     stroke-linejoin="round"
     id="path182"
     style="display:inline" />
  <path
     d="m 31.876124,26.056183 c -0.0208,-1.5833 -0.2916,-3.0625 -0.7708,-4.4167 -1.2292,-3.4791 -3.8542,-6.0833 -7.3125,-7.3125 -1.3542,-0.4792 -2.8334,-0.75 -4.4167,-0.7708"
     fill="none"
     stroke="#196f93"
     stroke-width="1.5"
     stroke-linecap="round"
     stroke-linejoin="round"
     id="path184"
     style="display:inline" />
  <path
     d="m 20.960224,41.659283 h 12.9167 c 2.9792,0 5.8334,-2.4168 6.3334,-5.3543 l 2.7708,-16.5833 c 0.3333,-2.0416 -0.7084,-4.7709 -2.3126,-6.0625 L 26.231124,2.1173828 c -2.2292,-1.79166004 -5.8333,-1.79168004 -8.0417,-0.02085 L 3.7519644,13.659183 c -1.625,1.2916 -2.6667,4.0209 -2.31253,6.0625 l 0.58333,3.4999"
     fill="none"
     stroke="#196f93"
     stroke-width="1.5"
     stroke-linecap="round"
     stroke-linejoin="round"
     id="path186"
     style="display:inline" />
</svg>
