<svg width="56" height="68" viewBox="0 0 56 68" fill="none" xmlns="http://www.w3.org/2000/svg">
<path d="M47.8392 47.7955L28.1372 67.4976L8.43511 47.7955C4.53847 43.8988 1.88484 38.9341 0.809776 33.5293C-0.265286 28.1245 0.286509 22.5222 2.39538 17.431C4.50426 12.3398 8.07549 7.98823 12.6575 4.92665C17.2395 1.86507 22.6264 0.230957 28.1372 0.230957C33.6479 0.230957 39.0348 1.86507 43.6168 4.92665C48.1988 7.98823 51.7701 12.3398 53.8789 17.431C55.9878 22.5222 56.5396 28.1245 55.4645 33.5293C54.3895 38.9341 51.7358 43.8988 47.8392 47.7955Z" fill="#2460D4"/>
<path d="M44.4756 25.0181V40.8093H38.8519V34.1007V31.8663L37.4111 33.5741L35.0269 36.3998L35.0254 36.4016L31.2852 40.8093H27.0213V33.8966V31.6451L25.5778 33.3731L19.4258 40.7377H15.1337L26.7347 26.8468L26.9206 26.6242L26.9245 26.3343L27.0126 19.8271L27.0441 17.493L25.5644 19.2983L6.51635 42.5366C5.50574 41.9803 4.57133 41.3868 3.71952 40.7561C7.65308 35.9055 11.6605 31.0748 15.6793 26.2302L15.0833 25.7358L15.6793 26.2302L15.7351 26.1629C15.7351 26.1629 15.7351 26.1629 15.7351 26.1628C18.7506 22.5282 21.773 18.8851 24.8067 15.1812C25.8522 14.2713 26.7817 13.7919 27.5756 13.5988L27.5757 13.5988C28.4895 13.3764 29.2662 13.5187 29.9234 13.8903L29.9235 13.8904C30.5853 14.2646 31.1595 14.8948 31.6006 15.7082C32.1057 16.6401 32.4154 17.7779 32.4825 18.9216L32.5989 20.9075L33.9114 19.4127L35.8713 17.1807L35.8713 17.1807L35.8765 17.1747C36.0533 16.9693 36.2694 16.7039 36.4916 16.431L36.4975 16.4237C37.037 15.761 37.5899 15.0861 37.927 14.7856C38.7773 14.0332 39.578 13.5857 40.279 13.3952C40.9566 13.2111 41.5378 13.2638 42.0281 13.502C42.5163 13.7394 42.9842 14.1968 43.3629 14.9636L43.3629 14.9637C43.8062 15.861 44.113 17.1606 44.171 18.9105L44.2379 20.9294L45.5929 19.4312L49.604 14.9961C50.3659 15.4201 51.0944 15.867 51.7868 16.3349L44.677 24.4811L44.4756 24.7118V25.0181ZM38.4676 27.5296L38.6565 27.3026V27.0072V19.8036V17.5206L37.2085 19.2856C35.6171 21.2252 34.0226 23.1506 32.4152 25.0792L32.2259 25.3064V25.6021V32.7267V34.9552L33.6658 33.2544L35.8797 30.6394L35.8798 30.6394L35.8842 30.6341L38.4676 27.5296Z" fill="white" stroke="#2460D4" stroke-width="1.63333"/>
</svg>
