<?xml version="1.0" encoding="UTF-8" standalone="no"?>
<svg
   width="20"
   height="21"
   viewBox="0 0 20 21"
   fill="none"
   xmlns="http://www.w3.org/2000/svg"
   xmlns:svg="http://www.w3.org/2000/svg">
  <path
     d="m 13.8956,5.7272694 c -0.2531,0 -0.4959,-0.10057 -0.6749,-0.27958 -0.179,-0.17901 -0.2796,-0.4218 -0.2796,-0.67496 v -2.86364 H 7.21382 v 2.86364 c 0,0.25316 -0.10057,0.49595 -0.27958,0.67496 -0.17901,0.17901 -0.42181,0.27958 -0.67497,0.27958 -0.25316,0 -0.49595,-0.10057 -0.67496,-0.27958 -0.17901,-0.17901 -0.27958,-0.4218 -0.27958,-0.67496 v -2.86364 c 0,-0.50632 0.20113,-0.99191 0.55916,-1.34993 C 6.22191,0.2011354 6.7075,0 7.21382,0 h 5.72728 c 0.5063,0 0.9919,0.2011354 1.3499,0.5591594 0.358,0.35802 0.5592,0.84361 0.5592,1.34993 v 2.86364 c 0,0.25316 -0.1006,0.49595 -0.2796,0.67496 -0.179,0.17901 -0.4218,0.27958 -0.675,0.27958 z"/>
  <path
     d="M 17.7138,3.8181794 H 2.44109 c -0.50632,0 -0.991906,0.20114 -1.34993,0.55916 -0.358024,0.35803 -0.55916,0.84361 -0.55916,1.34993 V 18.136409 c 0,0.7594 0.301704,1.4878 0.83874,2.0249 0.53704,0.537 1.26541,0.8387 2.0249,0.8387 H 16.7593 c 0.7595,0 1.4878,-0.3017 2.0249,-0.8387 0.537,-0.5371 0.8387,-1.2655 0.8387,-2.0249 V 5.7272694 c 0,-0.50632 -0.2011,-0.9919 -0.5591,-1.34993 -0.3581,-0.35802 -0.8437,-0.55916 -1.35,-0.55916 z m 0,14.3182296 c 0,0.2531 -0.1005,0.4959 -0.2796,0.6749 -0.179,0.179 -0.4218,0.2796 -0.6749,0.2796 H 3.39564 c -0.25316,0 -0.49596,-0.1006 -0.67497,-0.2796 -0.17901,-0.179 -0.27958,-0.4218 -0.27958,-0.6749 V 5.7272694 H 17.7138 Z" />
</svg>
