<svg
   viewBox="0 0 24.00012 26"
   version="1.1"
   width="24.00012"
   height="26"
   xmlns="http://www.w3.org/2000/svg"
   xmlns:svg="http://www.w3.org/2000/svg">
  <g fill='currentColor'
     transform="translate(-3.9999979,-3)">
    <path
       id="path201"
       d="M 27,26 H 5 A 1,1 0 0 1 4,25 7,7 0 0 1 7,19.25 V 14 a 9,9 0 0 1 8.94,-9 h 0.11 a 9,9 0 0 1 9,9 v 5.25 A 7,7 0 0 1 28,25 v 0 a 1,1 0 0 1 -1,1 z M 6.1,24 H 25.9 A 5,5 0 0 0 23.5,20.67 1,1 0 0 1 23,19.8 V 14 A 7,7 0 1 0 9,14 v 5.8 A 1,1 0 0 1 8.5,20.67 5,5 0 0 0 6.1,24 Z M 18,7 H 14 A 1,1 0 0 1 13,6 3,3 0 0 1 19,6 1,1 0 0 1 18,7 Z M 16,5 Z m 0,24 a 4,4 0 0 1 -4,-4 1,1 0 0 1 1,-1 h 6 a 1,1 0 0 1 1,1 4,4 0 0 1 -4,4 z m -1.73,-3 a 2,2 0 0 0 3.46,0 z" />
  </g>
</svg>
