<svg
   width="21.5"
   height="20.200819"
   viewBox="0 0 21.5 20.200819"
   xmlns="http://www.w3.org/2000/svg"
   xmlns:svg="http://www.w3.org/2000/svg">
  <g
    fill="none"
    stroke="#292d32"
    stroke-width="1.5"
    stroke-linecap="round"
    stroke-linejoin="round"
  >
  <path
     d="M 20.75,14.82705 V 2.7570904 c 0,-1.2 -0.98,-2.09 -2.17,-1.99 h -0.06 c -2.1,0.18 -5.29,1.25 -7.07,2.37 l -0.17,0.11 c -0.29,0.18 -0.77,0.18 -1.06,0 l -0.25,-0.15 c -1.78,-1.11 -4.96,-2.17 -7.06,-2.34 -1.19,-0.1 -2.16,0.8 -2.16,1.99 V 14.82705 c 0,0.96 0.78,1.86 1.74,1.98 l 0.29,0.04 c 2.17,0.29 5.52,1.39 7.44,2.44 l 0.04,0.02 c 0.27,0.15 0.7,0.15 0.96,0 1.92,-1.06 5.28,-2.17 7.46,-2.46 l 0.33,-0.04 c 0.96,-0.12 1.74,-1.02 1.74,-1.98 z"
     id="path186" />
  <path
     d="M 10.75,3.5771404 V 18.57715"
     id="path188" />
  <path
     d="M 6.5,6.5771404 H 4.25"
     id="path190" />
  <path
     d="m 7.25,9.5771504 h -3"
     id="path192" />
  </g>
</svg>
