<svg width="18" height="18" viewBox="0 0 18 18" fill="none" xmlns="http://www.w3.org/2000/svg">
<path d="M1.71429 12V1.71429H0V0H2.57143C2.79876 0 3.01677 0.0903058 3.17752 0.251051C3.33827 0.411797 3.42857 0.629814 3.42857 0.857143V11.1429H14.0897L15.804 4.28571H5.14286V2.57143H16.9029C17.0331 2.57143 17.1617 2.60114 17.2788 2.65829C17.3959 2.71544 17.4984 2.79853 17.5786 2.90125C17.6587 3.00396 17.7144 3.1236 17.7414 3.25107C17.7684 3.37853 17.7659 3.51047 17.7343 3.63686L15.5914 12.2083C15.545 12.3936 15.438 12.5582 15.2873 12.6757C15.1367 12.7933 14.9511 12.8571 14.76 12.8571H2.57143C2.3441 12.8571 2.12608 12.7668 1.96534 12.6061C1.80459 12.4453 1.71429 12.2273 1.71429 12V12ZM3.42857 18C2.97391 18 2.53788 17.8194 2.21639 17.4979C1.8949 17.1764 1.71429 16.7404 1.71429 16.2857C1.71429 15.8311 1.8949 15.395 2.21639 15.0735C2.53788 14.752 2.97391 14.5714 3.42857 14.5714C3.88323 14.5714 4.31926 14.752 4.64075 15.0735C4.96225 15.395 5.14286 15.8311 5.14286 16.2857C5.14286 16.7404 4.96225 17.1764 4.64075 17.4979C4.31926 17.8194 3.88323 18 3.42857 18ZM13.7143 18C13.2596 18 12.8236 17.8194 12.5021 17.4979C12.1806 17.1764 12 16.7404 12 16.2857C12 15.8311 12.1806 15.395 12.5021 15.0735C12.8236 14.752 13.2596 14.5714 13.7143 14.5714C14.1689 14.5714 14.605 14.752 14.9265 15.0735C15.248 15.395 15.4286 15.8311 15.4286 16.2857C15.4286 16.7404 15.248 17.1764 14.9265 17.4979C14.605 17.8194 14.1689 18 13.7143 18Z"/>
</svg>
