<svg
   width="22.827784"
   height="22.692001"
   viewBox="0 0 22.827784 22.692001"
   fill="none"
   version="1.1"
   id="svg325"
   xmlns="http://www.w3.org/2000/svg"
   xmlns:svg="http://www.w3.org/2000/svg">
  <path
     d="m 5.1057242,21.938392 c 2.47908,0.1633 6.0600498,-6.104 7.5399498,-8.9795 0.4861,-0.9104 1.4855,-0.8741 3.0686,-1.54 1.2664,-0.5327 2.5925,-1.2623 3.0972,-2.8671604 0.4405,-1.40064 0.4847,-5.09895 -3.7022,-6.31087 -4.1024,-1.18745 -5.0973,3.06028 -5.0775,3.03193 0.0197,-0.02835 -1.0496398,4.0462 -1.7583098,4.6416 -0.28558,0.2399004 -8.230741,5.4493004 -7.46821,8.6084004 0.26174,1.0844 1.82138,3.2523 4.30047,3.4156 z"
     fill="none"
     stroke="#292d32"
     stroke-width="1.5"
     id="path317" />
  <path
     d="m 22.582374,7.3292816 -0.0413,0.05638 c 0.0292,0.0702 0.0422,0.14841 0.0346,0.22946 m 0.0067,-0.28584 -0.9655,0.19643 c -0.1372,1.47286 -0.5388,2.6476804 -1.1997,3.5532804 -0.6594,0.9036 -1.5896,1.5567 -2.8156,1.9671 l -10e-5,10e-5 c -0.2522,0.0845 -0.3879,0.3573 -0.3038,0.6093 l 10e-5,2e-4 c 0.0846,0.2523 0.3573,0.388 0.6093,0.3039 l 2e-4,-1e-4 c 1.4054,-0.4705 2.5012,-1.2279 3.2824,-2.2925 0.7797,-1.0626 1.2333,-2.4137004 1.386,-4.0518704 m 0.0067,-0.28584 -0.2018,-0.14765 m 0.2018,0.14765 -0.2018,-0.14765 m 0.1951,0.43349 -0.2489,-0.02336 0.2489,0.02319 c 0,6e-5 0,1.2e-4 0,1.7e-4 z m -0.1951,-0.43349 c -0.0678,-0.04967 -0.1498,-0.08249 -0.2398,-0.09075 m 0.2398,0.09075 -0.7637,0.34407 c 0.0247,-0.26475 0.2593,-0.45926 0.5239,-0.43482 m 0,0 c 10e-5,10e-6 2e-4,2e-5 3e-4,3e-5 l -0.0196,0.21087 m 0.0193,-0.2109 -0.0194,0.21086 m 10e-5,4e-5 -10e-5,-4e-5 m 10e-5,4e-5 v 10e-6 l -0.0036,0.03805 c 0.0426,0.0039 0.0812,0.01915 0.1136,0.04249 5e-4,3.5e-4 0.001,6.9e-4 0.0015,0.00104 z m -10e-5,-4e-5 -0.0902,-0.06602 v 1e-5 l -0.1476,0.20174 0.0156,0.01146 z"
     fill="#292d32"
     stroke="#292d32"
     stroke-width="0.5"
     id="path319" />
  <path
     d="m 9.4079742,0.22885161 -0.0281,0.06395 c -0.0754,0.0099 -0.14961,0.03786 -0.21595,0.08506 m 0.24405,-0.14901 0.3137,0.93390999 c -1.20584,0.85678 -2.0213,1.79294 -2.47391,2.8187 -0.45155,1.02336 -0.55073,2.15564 -0.29162,3.42225 l 2e-5,1.1e-4 c 0.05319,0.26063 -0.11486,0.51478 -0.37504,0.56821 l -3.1e-4,7e-5 c -0.26062,0.05319 -0.51477,-0.11487 -0.56821,-0.37504 l -4e-5,-2e-4 c -0.29704,-1.45208 -0.19059,-2.77984 0.3393,-3.98936 0.52888,-1.20722 1.47082,-2.2767 2.81206,-3.22963999 m 0.24405,-0.14901 0.2288,0.10061 m -0.2288,-0.10061 0.2288,0.10061 m -0.47285,0.0484 0.14495,0.2037 -0.1448,-0.20381 c -5e-5,4e-5 -10e-5,7e-5 -1.5e-4,1.1e-4 z m 0.47285,-0.0484 c 0.077,0.03384 0.1465,0.08832 0.1988,0.1621 m -0.1988,-0.1621 0.0849,0.83328999 c 0.2168,-0.154 0.2675,-0.45452999 0.1139,-0.67118999 m 0,0 c -10e-5,-10e-5 -2e-4,-2e-4 -2e-4,-2.9e-4 l -0.1727,0.12265 m 0.1729,-0.12236 -0.1728,0.12238 m -10e-5,-2e-5 10e-5,2e-5 m -10e-5,-2e-5 v 0 l -0.0312,0.02213 c -0.0247,-0.0349 -0.0572,-0.06066 -0.0937,-0.07701 -5e-4,-2.4e-4 -10e-4,-4.8e-4 -0.0016,-7.2e-4 z m 10e-5,2e-5 0.1023,0.04499 v 0 l -0.1006,0.22886 -0.0178,-0.0078 z"
     fill="#292d32"
     stroke="#292d32"
     stroke-width="0.5"
     id="path321" />
  <path
     d="m 14.038474,8.2683016 c 0.8267,0.05445 1.5409,-0.57153 1.5954,-1.39816 0.0544,-0.82664 -0.5715,-1.5409 -1.3982,-1.59535 -0.8266,-0.05446 -1.5409,0.57152 -1.5953,1.39816 -0.0545,0.82663 0.5715,1.5409 1.3981,1.59535 z"
     stroke="#292d32"
     stroke-width="1.5"
     stroke-linecap="round"
     stroke-linejoin="round"
     id="path323" />
</svg>
