<svg
   width="20"
   height="15"
   viewBox="0 0 20 15"
   fill="none"
   version="1.1"
   xmlns="http://www.w3.org/2000/svg"
   xmlns:svg="http://www.w3.org/2000/svg">
  <path
     fill-rule="evenodd"
     clip-rule="evenodd"
     d="m 17.107043,1.6004156 c 0.360098,-0.3661219 0.360098,-0.95970935 0,-1.32583122 -0.360098,-0.36611251 -0.944001,-0.36611251 -1.304099,0 L 11.873773,4.2692062 C 11.324635,3.9393094 10.68402,3.75 9.9999719,3.75 7.9628216,3.75 6.311387,5.4289313 6.311387,7.5 c 0,0.6954375 0.1862089,1.3467188 0.5107029,1.905 l -3.9292,3.994594 c -0.3601165,0.366093 -0.3601165,0.959719 0,1.325812 0.3601257,0.366094 0.9439918,0.366094 1.3041175,0 L 8.1261982,10.730812 C 8.6753085,11.060719 9.3159239,11.25 9.9999719,11.25 c 2.0371131,0 3.6885841,-1.6789688 3.6885841,-3.75 0,-0.6954375 -0.186181,-1.3467188 -0.510685,-1.9049719 z M 10.477644,5.6884687 C 10.325305,5.647125 10.16522,5.625 9.9999719,5.625 8.9813688,5.625 8.1556792,6.4644375 8.1556792,7.5 c 0,0.168 0.021763,0.33075 0.062429,0.485625 z M 9.5223002,9.3115313 11.781835,7.014375 C 11.822505,7.16925 11.844265,7.332 11.844265,7.5 c 0,1.0355625 -0.82569,1.875 -1.8442921,1.875 -0.1652496,0 -0.3253342,-0.022125 -0.4776727,-0.063469 z M 13.471944,0.76940625 C 12.424017,0.30045937 11.261007,0 9.9999719,0 7.3695865,0 5.1653161,1.3074562 3.543215,2.7243281 1.9152214,4.1463375 0.78549097,5.754 0.28412013,6.5341875 c -0.37882684,0.5894063 -0.37882684,1.3422188 0,1.931625 0.42316363,0.6585 1.29394617,1.9064065 2.53412207,3.1347185 L 4.1224519,10.274625 C 3.0428401,9.2089688 2.2644935,8.1122813 1.8666612,7.5 2.3373061,6.7756875 3.3405273,5.3733563 4.7450941,4.1465062 6.195215,2.8798594 7.9857646,1.875 9.9999719,1.875 c 0.7118041,0 1.3956681,0.1254844 2.0465191,0.3436688 z M 9.9999719,13.125 c -0.7117124,0 -1.3955764,-0.125531 -2.0463995,-0.343687 l -1.425518,1.449281 C 7.5759813,14.699531 8.7390288,15 9.9999719,15 12.630393,15 14.834691,13.692562 16.456838,12.275719 18.084795,10.853625 19.214516,9.246 19.715887,8.4658125 c 0.378817,-0.5894062 0.378817,-1.3422187 0,-1.931625 -0.423173,-0.6585 -1.293956,-1.9064344 -2.53415,-3.1347094 l -1.304191,1.325925 C 16.957194,5.7910313 17.735578,6.8877187 18.133392,7.5 17.662728,8.2243125 16.659526,9.626625 15.254913,10.853531 13.804839,12.120188 12.014216,13.125 9.9999719,13.125 Z"
     fill="#000000"
     id="path382"
     style="stroke-width:0.929791" />
</svg>
