<svg
   width="20"
   height="15"
   viewBox="0 0 20 15"
   fill="none"
   version="1.1"
   xmlns="http://www.w3.org/2000/svg"
   xmlns:svg="http://www.w3.org/2000/svg">
  <path
     fill-rule="evenodd"
     clip-rule="evenodd"
     d="M 4.745094,10.853532 C 3.3405273,9.6266246 2.337306,8.2243116 1.866661,7.4999989 2.337306,6.7756866 3.3405273,5.3733566 4.745094,4.1465036 6.1952139,2.8798566 7.9857639,1.8749973 9.9999716,1.8749973 c 2.0142434,0 3.8048674,1.0048593 5.2549414,2.2715063 1.404613,1.22685 2.407816,2.62918 2.87848,3.3534953 -0.470664,0.7243134 -1.473867,2.1266267 -2.87848,3.3535331 -1.450074,1.266653 -3.240697,2.271466 -5.2549414,2.271466 -2.0142067,0 -3.8047567,-1.004813 -5.2548776,-2.271466 z M 9.9999716,0 C 7.3695863,0 5.165316,1.3074563 3.543215,2.724328 1.9152213,4.1463376 0.78549099,5.7540003 0.28412,6.5341876 c -0.37882667,0.5894067 -0.37882667,1.34222 0,1.9316267 C 0.78549099,9.2460009 1.9152213,10.853628 3.543215,12.275721 5.165315,13.692564 7.3695863,15 9.9999716,15 c 2.6304204,0 4.8347194,-1.307437 6.4568664,-2.72428 1.627956,-1.422093 2.757676,-3.0297201 3.25905,-3.8099067 0.378816,-0.5894067 0.378816,-1.34222 0,-1.9316267 C 19.214516,5.7540003 18.084795,4.1463376 16.456838,2.724328 14.834691,1.3074563 12.630393,0 9.9999716,0 Z M 8.1556783,7.4999999 C 8.1556783,6.4644366 8.9814616,5.625 9.9999716,5.625 c 1.0186034,0 1.8442934,0.8394366 1.8442934,1.8749999 0,1.0355634 -0.82569,1.875 -1.8442934,1.875 -1.01851,0 -1.8442933,-0.8394366 -1.8442933,-1.875 z M 9.9999716,3.75 c -2.0371133,0 -3.688548,1.67893 -3.688548,3.7499999 0,2.07103 1.6514333,3.7500001 3.688548,3.7500001 2.0372034,0 3.6885844,-1.6789697 3.6885844,-3.7500001 C 13.688556,5.42893 12.037176,3.75 9.9999716,3.75 Z"
     fill="#000000"
     id="path230"
     style="stroke-width:0.929793" />
</svg>
