<svg width="17" height="18" viewBox="0 0 17 18" fill="none" xmlns="http://www.w3.org/2000/svg">
<path d="M9.69027 15.7086C11.2873 15.4947 12.747 14.6487 13.7727 13.3426C14.7985 12.0364 15.3133 10.3682 15.2124 8.6769C15.1116 6.9856 14.4028 5.39816 13.23 4.23724C12.0572 3.07631 10.5085 2.42902 8.8986 2.42692C7.28673 2.42566 5.73506 3.07137 4.55974 4.23249C3.38443 5.3936 2.67392 6.98275 2.57298 8.67612C2.47205 10.3695 2.98828 12.0397 4.01651 13.3463C5.04473 14.653 6.50756 15.4978 8.10693 15.7086V10.7603H6.5236V9.09359H8.10693V7.71525C8.10693 6.60109 8.21777 6.19692 8.4236 5.78942C8.62636 5.38624 8.93973 5.05666 9.32293 4.84359C9.62535 4.67275 10.0014 4.57025 10.6585 4.52609C10.9189 4.50859 11.2562 4.53025 11.6702 4.59275V6.17609H11.2736C10.5476 6.17609 10.2476 6.21192 10.0687 6.31275C9.96192 6.37055 9.87501 6.46204 9.8201 6.57442C9.7251 6.76275 9.69027 6.94942 9.69027 7.71442V9.09359H11.6694L11.2736 10.7603H9.69027V15.7086ZM8.8986 17.4269C4.52623 17.4269 0.981934 13.6961 0.981934 9.09359C0.981934 4.49109 4.52623 0.760254 8.8986 0.760254C13.271 0.760254 16.8153 4.49109 16.8153 9.09359C16.8153 13.6961 13.271 17.4269 8.8986 17.4269Z" fill="white"/>
</svg>
