<svg width="17" height="17" viewBox="0 0 17 17" fill="none" xmlns="http://www.w3.org/2000/svg">
<path d="M2.74419 1.73682H14.2558C15.2151 1.73682 16 2.38763 16 3.18308V4.77397C16 5.35247 15.564 6.0756 15.1279 6.43717L11.3779 9.18506C10.8547 9.54663 10.5058 10.2698 10.5058 10.8483V13.9577C10.5058 14.3916 10.157 14.9701 9.72093 15.187L8.5 15.8379C7.36628 16.4164 5.79651 15.7656 5.79651 14.6085V10.776C5.79651 10.2698 5.44767 9.61894 5.09884 9.25738L1.78488 6.36485C1.34884 6.00329 1 5.35247 1 4.91859V3.25539C1 2.38763 1.78488 1.73682 2.74419 1.73682Z" stroke="#686868" stroke-width="1.5" stroke-miterlimit="10" stroke-linecap="round" stroke-linejoin="round"/>
</svg>
