<svg viewBox="0 0 40 40" fill="none" xmlns="http://www.w3.org/2000/svg">
<path d="M34.25 28.0625H24.625" stroke="#14142B" stroke-width="1.5" stroke-miterlimit="10" stroke-linecap="round" stroke-linejoin="round"/>
<path d="M10.875 28.0625H6.75" stroke="#14142B" stroke-width="1.5" stroke-miterlimit="10" stroke-linecap="round" stroke-linejoin="round"/>
<path d="M34.25 12.9375H30.125" stroke="#14142B" stroke-width="1.5" stroke-miterlimit="10" stroke-linecap="round" stroke-linejoin="round"/>
<path d="M16.375 12.9375H6.75" stroke="#14142B" stroke-width="1.5" stroke-miterlimit="10" stroke-linecap="round" stroke-linejoin="round"/>
<path d="M14.825 23.9375H20.675C21.7475 23.9375 22.625 24.625 22.625 26.6875V29.4375C22.625 31.5 21.7475 32.1875 20.675 32.1875H14.825C13.7525 32.1875 12.875 31.5 12.875 29.4375V26.6875C12.875 24.625 13.7525 23.9375 14.825 23.9375Z" stroke="#2460D4" stroke-width="1.5" stroke-miterlimit="10" stroke-linecap="round" stroke-linejoin="round"/>
<path d="M20.325 8.8125H26.175C27.2475 8.8125 28.125 9.5 28.125 11.5625V14.3125C28.125 16.375 27.2475 17.0625 26.175 17.0625H20.325C19.2525 17.0625 18.375 16.375 18.375 14.3125V11.5625C18.375 9.5 19.2525 8.8125 20.325 8.8125Z" stroke="#2460D4" stroke-width="1.5" stroke-miterlimit="10" stroke-linecap="round" stroke-linejoin="round"/>
</svg>
