<svg width="21" height="21" viewBox="0 0 21 21" fill="none" xmlns="http://www.w3.org/2000/svg">
<path d="M10.5293 20.0879C5.0063 20.0879 0.529297 15.6109 0.529297 10.0879C0.529297 4.56489 5.0063 0.0878906 10.5293 0.0878906C16.0523 0.0878906 20.5293 4.56489 20.5293 10.0879C20.5293 15.6109 16.0523 20.0879 10.5293 20.0879ZM8.2393 17.7549C7.25271 15.6622 6.68117 13.3981 6.5563 11.0879H2.5913C2.78588 12.6268 3.42322 14.0761 4.42587 15.2596C5.42851 16.4431 6.75331 17.31 8.2393 17.7549V17.7549ZM8.5593 11.0879C8.7103 13.5269 9.4073 15.8179 10.5293 17.8399C11.6816 15.7644 12.3547 13.4574 12.4993 11.0879H8.5593V11.0879ZM18.4673 11.0879H14.5023C14.3774 13.3981 13.8059 15.6622 12.8193 17.7549C14.3053 17.31 15.6301 16.4431 16.6327 15.2596C17.6354 14.0761 18.2727 12.6268 18.4673 11.0879V11.0879ZM2.5913 9.08789H6.5563C6.68117 6.77768 7.25271 4.51358 8.2393 2.42089C6.75331 2.86577 5.42851 3.73264 4.42587 4.91619C3.42322 6.09973 2.78588 7.54899 2.5913 9.08789V9.08789ZM8.5603 9.08789H12.4983C12.354 6.71849 11.6813 4.41142 10.5293 2.33589C9.37698 4.41134 8.70385 6.71841 8.5593 9.08789H8.5603ZM12.8193 2.42089C13.8059 4.51358 14.3774 6.77768 14.5023 9.08789H18.4673C18.2727 7.54899 17.6354 6.09973 16.6327 4.91619C15.6301 3.73264 14.3053 2.86577 12.8193 2.42089V2.42089Z" fill="white"/>
</svg>
