<svg width="93" height="89" viewBox="0 0 93 89" fill="none" xmlns="http://www.w3.org/2000/svg">
<path d="M52.8382 22.6508L52.8095 22.6326L52.9479 22.29C52.9028 22.4015 52.8666 22.5224 52.8382 22.6508Z" fill="#14142B"/>
<path fill-rule="evenodd" clip-rule="evenodd" d="M52.4385 1.20645C52.596 1.09158 52.8193 0.968375 53.1394 0.830964L73.3808 9.00711C90.1492 15.7804 90.976 16.1294 91.3686 16.5581C91.5981 16.8009 91.8854 17.2321 92.0068 17.5213C92.1282 17.8105 92.2355 18.319 92.2488 18.6546C92.2741 19.145 92.1533 19.5915 91.606 20.9463C91.064 22.2882 90.8356 22.7062 90.4768 23.0415C90.2342 23.2737 89.7061 23.5857 89.3203 23.73C88.9164 23.882 88.3462 23.9668 88.0461 23.9357C87.7332 23.8993 84.3971 22.6118 79.5202 20.6418C71.6684 17.4853 69.5578 16.5137 69.3164 16.1161C69.2519 16.0118 69.2082 15.9224 69.1844 15.8349C69.3215 15.513 69.4821 15.1283 69.6739 14.6656C69.7472 14.6256 69.8341 14.5951 69.9418 14.5678C70.2982 14.4739 71.7036 15.048 76.1526 16.8655C77.3191 17.3421 78.6948 17.9041 80.3157 18.5619C88.1238 21.7159 88.2903 21.7831 88.6505 21.6285C88.9567 21.497 89.0785 21.3061 89.558 20.119C90.0375 18.932 90.0825 18.71 89.9534 18.4028C89.8017 18.0413 89.6353 17.9741 71.3692 10.5959L69.9601 13.9738C69.8576 14.222 69.7624 14.4521 69.6739 14.6656C69.4986 14.7613 69.4011 14.9112 69.2835 15.2023C69.171 15.4808 69.135 15.6536 69.1844 15.8349C68.5655 17.2885 68.426 17.4629 68.0557 17.7669C67.777 18.0145 67.213 18.342 66.7859 18.5147C66.3768 18.6796 65.6857 18.8056 65.2572 18.7976C64.8467 18.7819 64.1981 18.655 63.2125 18.2569L62.3559 20.2671C61.6034 22.0192 61.4243 22.3521 60.9778 22.7571C60.7067 23.0228 60.1631 23.3735 59.7848 23.5358C59.4014 23.7111 58.7434 23.8656 58.3301 23.8937C57.7987 23.9192 57.1757 23.8026 54.9959 23.1172L52.9479 22.29L51.7427 21.6981C50.8524 21.2484 50.3821 20.9384 50.0151 20.52C49.7244 20.2075 49.3716 19.5697 49.2051 19.0972C49.0462 18.6429 48.9323 17.9665 48.9602 17.6026C48.9862 17.1328 49.2268 16.3896 50.5141 13.2026L49.6878 12.7788C49.1582 12.5049 48.6523 12.1354 48.3389 11.7687C48.0535 11.4433 47.731 10.8778 47.5973 10.5086C47.4687 10.1265 47.3415 9.51984 47.331 9.1404C47.3067 8.50025 47.4062 8.18024 48.7698 4.69391C49.5729 2.63204 50.3205 0.817933 50.4215 0.678612C50.5404 0.531559 50.7802 0.343283 50.9784 0.258228C51.1765 0.173174 51.505 0.170799 51.7226 0.258697C51.9532 0.351846 52.1532 0.554048 52.4385 1.20645ZM52.0816 2.31867C52.0063 2.0701 52.0109 1.81844 52.0952 1.60983C52.1473 1.48076 52.2415 1.35013 52.4385 1.20645C52.4541 1.24209 52.4699 1.27908 52.4861 1.31747L52.0816 2.31867ZM52.0816 2.31867C52.0948 2.36221 52.1105 2.40564 52.1286 2.44874L52.3183 2.90057L69.3212 9.76858C66.9394 15.6651 66.8095 15.9128 66.4228 16.2068C66.1882 16.3822 65.7535 16.5368 65.4686 16.5418C65.0168 16.5544 63.8416 16.1097 57.6462 13.6072C50.9517 10.9031 50.3169 10.6316 49.9831 10.2417C49.746 9.98081 49.607 9.62452 49.5761 9.22183C49.5461 8.66944 49.6717 8.28492 51.0111 4.96893L52.0816 2.31867ZM51.175 18.017C51.1489 17.6762 51.3009 17.1524 51.8586 15.7718L52.5883 13.9654L61.1645 17.4296L60.4898 19.0631C60.1145 19.9921 59.6805 20.8823 59.4866 21.1042C59.2928 21.326 58.9245 21.5374 58.5879 21.5966C58.0329 21.7176 57.938 21.6943 54.9096 20.456C52.1959 19.3598 51.7711 19.1582 51.5165 18.8303C51.3638 18.6185 51.212 18.257 51.175 18.017Z" fill="#14142B"/>
<path d="M11.5 57.1936C11.5 51.6708 15.9772 47.1936 21.5 47.1936H28.5C34.0228 47.1936 38.5 51.6708 38.5 57.1936V73.1936H11.5V57.1936Z" fill="#D0E3F0"/>
<path d="M58.248 74.5058H3.74805C2.64348 74.5058 1.74805 73.6103 1.74805 72.5058V36.7582C1.74805 35.9922 2.18565 35.2934 2.87485 34.9589L29.9474 19.3943C30.4571 19.147 31.0477 19.1274 31.5727 19.3404L59.0001 32.4993C59.7545 32.8055 60.248 33.5384 60.248 34.3526V72.5058C60.248 73.6103 59.3526 74.5058 58.248 74.5058Z" stroke="black"  fill="none"  stroke-width="2"/>
<path d="M16.748 56.0058C16.748 50.4829 21.2252 46.0058 26.748 46.0058H34.748C40.2709 46.0058 44.748 50.4829 44.748 56.0058V74.0058H16.748V56.0058Z" stroke="black" stroke-width="2" fill="none" />
<rect x="8.50391" y="86.1938" width="47.9313" height="1.91725" rx="0.958626" fill="#14142B"/>
</svg>
