<?xml version="1.0" encoding="UTF-8" standalone="no"?>
<svg
   width="100"
   height="89"
   viewBox="0 0 100 89"
   fill="none"
   version="1.1"
   id="svg316"
   sodipodi:docname="hospital.svg"
   inkscape:version="1.2 (1:1.2.1+202207142221+cd75a1ee6d)"
   xmlns:inkscape="http://www.inkscape.org/namespaces/inkscape"
   xmlns:sodipodi="http://sodipodi.sourceforge.net/DTD/sodipodi-0.dtd"
   xmlns="http://www.w3.org/2000/svg"
   xmlns:svg="http://www.w3.org/2000/svg">
  <defs
     id="defs320" />
  <sodipodi:namedview
     id="namedview318"
     pagecolor="#ffffff"
     bordercolor="#666666"
     borderopacity="1.0"
     inkscape:showpageshadow="2"
     inkscape:pageopacity="0.0"
     inkscape:pagecheckerboard="0"
     inkscape:deskcolor="#d1d1d1"
     showgrid="false"
     inkscape:zoom="9.5505618"
     inkscape:cx="47.588824"
     inkscape:cy="44.552353"
     inkscape:window-width="1848"
     inkscape:window-height="1016"
     inkscape:window-x="72"
     inkscape:window-y="27"
     inkscape:window-maximized="1"
     inkscape:current-layer="svg316" />
  <path
     d="M5 54.8938C5 51.5801 7.68629 48.8938 11 48.8938C14.3137 48.8938 17 51.5801 17 54.8938V71.8938H5V54.8938Z"
     fill="#D0E3F0"
     id="path304" />
  <path
     fill-rule="evenodd"
     clip-rule="evenodd"
     d="M59.5635 1.20645C59.721 1.09158 59.9443 0.968375 60.2644 0.830964L80.5058 9.00711C97.2742 15.7804 98.101 16.1294 98.4936 16.5581C98.7231 16.8009 99.0104 17.2321 99.1318 17.5213C99.2532 17.8105 99.3605 18.319 99.3738 18.6546C99.3991 19.145 99.2783 19.5915 98.731 20.9463C98.189 22.2882 97.9606 22.7062 97.6018 23.0415C97.3592 23.2737 96.8311 23.5857 96.4453 23.73C96.0414 23.882 95.4712 23.9668 95.1711 23.9357C94.8582 23.8993 91.5221 22.6118 86.6452 20.6418C78.7934 17.4853 76.6828 16.5137 76.4414 16.1161C76.3769 16.0118 76.3332 15.9224 76.3094 15.8349C76.4465 15.513 76.6071 15.1283 76.7989 14.6656C76.8722 14.6256 76.9591 14.5951 77.0668 14.5678C77.4232 14.4739 78.8286 15.048 83.2776 16.8655C84.4441 17.3421 85.8198 17.9041 87.4407 18.5619C95.2488 21.7159 95.4153 21.7831 95.7755 21.6285C96.0817 21.497 96.2035 21.3061 96.683 20.119C97.1625 18.932 97.2075 18.71 97.0784 18.4028C96.9267 18.0413 96.7603 17.9741 78.4942 10.5959L77.0851 13.9738C76.9826 14.222 76.8874 14.4521 76.7989 14.6656C76.6236 14.7613 76.5261 14.9112 76.4085 15.2023C76.296 15.4808 76.26 15.6536 76.3094 15.8349C75.6905 17.2885 75.551 17.4629 75.1807 17.7669C74.902 18.0145 74.338 18.342 73.9109 18.5147C73.5018 18.6796 72.8107 18.8056 72.3822 18.7976C71.9717 18.7819 71.3231 18.655 70.3375 18.2569L69.4809 20.2671C68.7284 22.0192 68.5493 22.3521 68.1028 22.7571C67.8317 23.0228 67.2881 23.3735 66.9098 23.5358C66.5264 23.7111 65.8684 23.8656 65.4551 23.8937C64.9237 23.9192 64.3007 23.8026 62.1209 23.1172L60.0729 22.29L58.8677 21.6981C57.9774 21.2484 57.5071 20.9384 57.1401 20.52C56.8494 20.2075 56.4966 19.5697 56.3301 19.0972C56.1712 18.6429 56.0573 17.9665 56.0852 17.6026C56.1112 17.1328 56.3518 16.3896 57.6391 13.2026L56.8128 12.7788C56.2832 12.5049 55.7773 12.1354 55.4639 11.7687C55.1785 11.4433 54.856 10.8778 54.7223 10.5086C54.5937 10.1265 54.4665 9.51984 54.456 9.1404C54.4317 8.50025 54.5312 8.18024 55.8948 4.69391C56.6979 2.63204 57.4455 0.817933 57.5465 0.678612C57.6654 0.531559 57.9052 0.343283 58.1034 0.258228C58.3015 0.173174 58.63 0.170799 58.8476 0.258697C59.0782 0.351846 59.2782 0.554048 59.5635 1.20645ZM59.2066 2.31867C59.1313 2.0701 59.1359 1.81844 59.2202 1.60983C59.2723 1.48076 59.3665 1.35013 59.5635 1.20645C59.5791 1.24209 59.5949 1.27908 59.6111 1.31747L59.2066 2.31867ZM59.2066 2.31867C59.2198 2.36221 59.2355 2.40564 59.2536 2.44874L59.4433 2.90057L76.4462 9.76858C74.0644 15.6651 73.9345 15.9128 73.5478 16.2068C73.3132 16.3822 72.8785 16.5368 72.5936 16.5418C72.1418 16.5544 70.9666 16.1097 64.7712 13.6072C58.0767 10.9031 57.4419 10.6316 57.1081 10.2417C56.871 9.98081 56.732 9.62452 56.7011 9.22183C56.6711 8.66944 56.7967 8.28492 58.1361 4.96893L59.2066 2.31867ZM58.3 18.017C58.2739 17.6762 58.4259 17.1524 58.9836 15.7718L59.7133 13.9654L68.2895 17.4296L67.6148 19.0631C67.2395 19.9921 66.8055 20.8823 66.6116 21.1042C66.4178 21.326 66.0495 21.5374 65.7129 21.5966C65.1579 21.7176 65.063 21.6943 62.0346 20.456C59.3209 19.3598 58.8961 19.1582 58.6415 18.8303C58.4888 18.6185 58.337 18.257 58.3 18.017Z"
     fill="#14142B"
     id="path308" />
  <path
     d="M48.7464 39.2161V5.28735C48.7464 4.68384 48.2562 4.1936 47.6527 4.1936H25.7777C25.1741 4.1936 24.6839 4.68384 24.6839 5.28735V17.9336L0.628906 32.9761L0.621094 74.1936H70.6211V39.2161H48.7464ZM57.4964 41.4036V50.1454H48.7464V41.4036H57.4964ZM26.8714 19.6336H35.6214V28.286L26.8714 28.2855V19.6336ZM35.6214 30.473V39.2156H26.8714V30.473H35.6214ZM35.6214 41.4031V50.1449H26.8714V41.4031H35.6214ZM46.5589 50.1449H37.8089V41.4031H46.5589V50.1449ZM46.5589 61.0765H37.8089V52.3324H46.5589V61.0765ZM35.6214 52.3324V61.076H26.8714V52.3324H35.6214ZM35.6214 63.264V72.0062H26.8714V63.264H35.6214ZM37.8089 63.264H46.5589V72.0062H37.8089V63.264ZM48.7464 63.264H57.4964V72.0062H48.7464V63.264ZM48.7464 61.0765V52.3324H57.4964V61.076L48.7464 61.0765ZM46.5589 39.2152H37.8089V30.4726H46.5589V39.2152ZM37.8089 28.2851V19.6332H46.5589V28.2856L37.8089 28.2851ZM26.8714 6.38135H46.5589V17.4464H26.8714V6.38135ZM2.81641 34.1889L24.6839 20.5139V72.0064H19.4887V57.8889C19.4887 54.8737 17.0355 52.4221 14.0199 52.4221C11.0043 52.4221 8.55116 54.8737 8.55116 57.8889V72.0064H2.80891L2.81641 34.1889ZM17.3014 72.0064H10.7389V57.8889C10.7389 56.0802 12.2105 54.6096 14.0202 54.6096C15.8298 54.6096 17.3014 56.0804 17.3014 57.8889V72.0064ZM68.4339 72.0064H59.6839V63.2641H68.4339V72.0064ZM68.4339 61.0766H59.6839V52.3325H68.4339V61.0766ZM68.4339 50.145H59.6839V41.4032H68.4339V50.145Z"
     fill="black"
     id="path310" />
  <path
     d="M37.7927 15.176V12.99H39.9802V10.8025H37.7927V8.61601H35.6052V10.8025H33.4177V12.99H35.6052V15.176H37.7927Z"
     fill="black"
     id="path312" />
  <rect
     x="13.0039"
     y="86.1938"
     width="47.9313"
     height="1.91725"
     rx="0.958626"
     fill="#14142B"
     id="rect314" />
</svg>
