<svg width="40" height="32" viewBox="0 0 40 32" fill="none" xmlns="http://www.w3.org/2000/svg">
<mask id="path-1-inside-1_906_1131" fill="white">
<path fill-rule="evenodd" clip-rule="evenodd" d="M38.9547 31.4187L28.0487 22.5127C27.4776 21.9416 28.3346 21.0846 28.9057 21.6558L39.8116 30.5623C40.3828 31.1335 39.5261 31.9899 38.9547 31.4187ZM15.931 10.395L5.02507 1.48844C4.45367 0.917285 5.31065 0.0605478 5.88178 0.631731L16.7877 9.53768C17.3591 10.1088 16.5021 10.9662 15.931 10.395ZM18.8334 16.6314H0.605961C0.271359 16.6314 0 16.36 0 16.0254C0 15.6908 0.271359 15.4195 0.605961 15.4195H18.8334C19.1216 13.7002 20.617 12.3902 22.4184 12.3902C24.426 12.3902 26.0537 14.0176 26.0537 16.0255C26.0537 18.0334 24.426 19.6608 22.4184 19.6608C20.617 19.6608 19.1217 18.3507 18.8334 16.6314ZM22.4184 18.4491C23.7568 18.4491 24.842 17.3639 24.842 16.0255C24.842 14.687 23.7568 13.6019 22.4184 13.6019C21.08 13.6019 19.9948 14.687 19.9948 16.0255C19.9948 17.3639 21.08 18.4491 22.4184 18.4491ZM23.0244 6.33072C23.0244 6.66557 22.753 6.93668 22.4184 6.93668C22.0838 6.93668 21.8125 6.66557 21.8125 6.33072V1.06009C21.8125 0.725485 22.0838 0.454126 22.4184 0.454126C22.753 0.454126 23.0244 0.725485 23.0244 1.06009V6.33072ZM23.0244 30.9903C23.0244 31.3249 22.753 31.5963 22.4184 31.5963C22.0838 31.5963 21.8125 31.3249 21.8125 30.9903V25.7197C21.8125 25.3849 22.0838 25.1137 22.4184 25.1137C22.753 25.1137 23.0244 25.3849 23.0244 25.7197V30.9903ZM32.1124 16.6311C31.7778 16.6311 31.5066 16.3597 31.5066 16.0251C31.5066 15.6905 31.7778 15.4192 32.1124 15.4192H39.383C39.7176 15.4192 39.989 15.6905 39.989 16.0251C39.989 16.3597 39.7176 16.6311 39.383 16.6311H32.1124ZM28.9055 10.3947C28.669 10.6313 28.2853 10.6313 28.0486 10.3947C27.812 10.1579 27.812 9.77428 28.0486 9.53774L38.9545 0.631794C39.1913 0.395244 39.5749 0.395244 39.8115 0.631794C40.048 0.868343 40.048 1.25197 39.8115 1.48851L28.9055 10.3947ZM5.88123 31.4184C5.64468 31.6549 5.26105 31.6549 5.02452 31.4184C4.78799 31.1818 4.78797 30.7982 5.02452 30.5617L15.9305 21.6551C16.167 21.4185 16.5506 21.4185 16.7872 21.6551C17.024 21.8919 17.024 22.2755 16.7872 22.512L5.88123 31.4184Z"/>
</mask>
<path fill-rule="evenodd" clip-rule="evenodd" d="M38.9547 31.4187L28.0487 22.5127C27.4776 21.9416 28.3346 21.0846 28.9057 21.6558L39.8116 30.5623C40.3828 31.1335 39.5261 31.9899 38.9547 31.4187ZM15.931 10.395L5.02507 1.48844C4.45367 0.917285 5.31065 0.0605478 5.88178 0.631731L16.7877 9.53768C17.3591 10.1088 16.5021 10.9662 15.931 10.395ZM18.8334 16.6314H0.605961C0.271359 16.6314 0 16.36 0 16.0254C0 15.6908 0.271359 15.4195 0.605961 15.4195H18.8334C19.1216 13.7002 20.617 12.3902 22.4184 12.3902C24.426 12.3902 26.0537 14.0176 26.0537 16.0255C26.0537 18.0334 24.426 19.6608 22.4184 19.6608C20.617 19.6608 19.1217 18.3507 18.8334 16.6314ZM22.4184 18.4491C23.7568 18.4491 24.842 17.3639 24.842 16.0255C24.842 14.687 23.7568 13.6019 22.4184 13.6019C21.08 13.6019 19.9948 14.687 19.9948 16.0255C19.9948 17.3639 21.08 18.4491 22.4184 18.4491ZM23.0244 6.33072C23.0244 6.66557 22.753 6.93668 22.4184 6.93668C22.0838 6.93668 21.8125 6.66557 21.8125 6.33072V1.06009C21.8125 0.725485 22.0838 0.454126 22.4184 0.454126C22.753 0.454126 23.0244 0.725485 23.0244 1.06009V6.33072ZM23.0244 30.9903C23.0244 31.3249 22.753 31.5963 22.4184 31.5963C22.0838 31.5963 21.8125 31.3249 21.8125 30.9903V25.7197C21.8125 25.3849 22.0838 25.1137 22.4184 25.1137C22.753 25.1137 23.0244 25.3849 23.0244 25.7197V30.9903ZM32.1124 16.6311C31.7778 16.6311 31.5066 16.3597 31.5066 16.0251C31.5066 15.6905 31.7778 15.4192 32.1124 15.4192H39.383C39.7176 15.4192 39.989 15.6905 39.989 16.0251C39.989 16.3597 39.7176 16.6311 39.383 16.6311H32.1124ZM28.9055 10.3947C28.669 10.6313 28.2853 10.6313 28.0486 10.3947C27.812 10.1579 27.812 9.77428 28.0486 9.53774L38.9545 0.631794C39.1913 0.395244 39.5749 0.395244 39.8115 0.631794C40.048 0.868343 40.048 1.25197 39.8115 1.48851L28.9055 10.3947ZM5.88123 31.4184C5.64468 31.6549 5.26105 31.6549 5.02452 31.4184C4.78799 31.1818 4.78797 30.7982 5.02452 30.5617L15.9305 21.6551C16.167 21.4185 16.5506 21.4185 16.7872 21.6551C17.024 21.8919 17.024 22.2755 16.7872 22.512L5.88123 31.4184Z" fill="#14142B"/>
<path d="M38.9547 31.4187L39.0257 31.3476L39.0179 31.3412L38.9547 31.4187ZM28.0487 22.5127L27.9777 22.5838L27.9855 22.5902L28.0487 22.5127ZM28.9057 21.6558L28.8346 21.7268L28.8424 21.7332L28.9057 21.6558ZM39.8116 30.5623L39.8827 30.4913L39.8749 30.4849L39.8116 30.5623ZM15.931 10.395L16.0021 10.324L15.9943 10.3176L15.931 10.395ZM5.02507 1.48844L4.95402 1.55953L4.96182 1.5659L5.02507 1.48844ZM5.88178 0.631731L5.81071 0.702798L5.81853 0.709186L5.88178 0.631731ZM16.7877 9.53768L16.8588 9.46659L16.851 9.46022L16.7877 9.53768ZM18.8334 16.6314L18.932 16.6149L18.918 16.5314H18.8334V16.6314ZM18.8334 15.4195V15.5195H18.918L18.932 15.436L18.8334 15.4195ZM28.9055 10.3947L28.842 10.3169L28.8348 10.324L28.9055 10.3947ZM28.0486 10.3947L27.9778 10.4654L27.9779 10.4654L28.0486 10.3947ZM28.0486 9.53774L27.985 9.45989L27.9779 9.46703L28.0486 9.53774ZM38.9545 0.631794L39.0181 0.709639L39.0252 0.702541L38.9545 0.631794ZM39.8115 1.48851L39.875 1.56635L39.8822 1.55922L39.8115 1.48851ZM5.88123 31.4184L5.81766 31.3405L5.81052 31.3477L5.88123 31.4184ZM5.02452 30.5617L4.96094 30.4838L4.95381 30.4909L5.02452 30.5617ZM15.9305 21.6551L15.994 21.7329L16.0012 21.7258L15.9305 21.6551ZM16.7872 21.6551L16.7165 21.7258L16.7165 21.7258L16.7872 21.6551ZM16.7872 22.512L16.8507 22.5899L16.8578 22.5828L16.7872 22.512ZM39.0179 31.3412L28.112 22.4353L27.9855 22.5902L38.8914 31.4961L39.0179 31.3412ZM28.1194 22.442C27.9959 22.3184 27.954 22.1853 27.9612 22.0634C27.9685 21.9392 28.0275 21.8186 28.1196 21.7266C28.2116 21.6345 28.3321 21.5755 28.4564 21.5682C28.5782 21.561 28.7114 21.6029 28.835 21.7265L28.9764 21.5851C28.8144 21.4231 28.6263 21.3579 28.4446 21.3686C28.2655 21.3791 28.1003 21.463 27.9781 21.5852C27.856 21.7073 27.7721 21.8725 27.7615 22.0517C27.7508 22.2333 27.816 22.4215 27.978 22.5834L28.1194 22.442ZM28.8424 21.7332L39.7484 30.6398L39.8749 30.4849L28.969 21.5783L28.8424 21.7332ZM39.7409 30.6331C39.8645 30.7567 39.9064 30.8898 39.8992 31.0116C39.8919 31.1358 39.833 31.2562 39.7409 31.3482C39.6489 31.4401 39.5284 31.4991 39.4041 31.5063C39.2823 31.5135 39.149 31.4716 39.0254 31.348L38.884 31.4894C39.046 31.6514 39.2342 31.7166 39.4158 31.706C39.595 31.6955 39.7601 31.6117 39.8823 31.4896C40.0045 31.3675 40.0883 31.2024 40.0989 31.0233C40.1096 30.8417 40.0443 30.6536 39.8824 30.4916L39.7409 30.6331ZM15.9943 10.3176L5.08832 1.41099L4.96182 1.5659L15.8678 10.4725L15.9943 10.3176ZM5.09577 1.41772C4.97211 1.29411 4.93023 1.16096 4.93738 1.03917C4.94468 0.914914 5.00364 0.79445 5.09568 0.702425C5.18772 0.6104 5.30821 0.55144 5.43249 0.544133C5.55431 0.53697 5.68747 0.578835 5.81107 0.702439L5.9525 0.561023C5.79052 0.399036 5.60239 0.333798 5.42075 0.344478C5.24157 0.355012 5.07644 0.438837 4.95427 0.560993C4.8321 0.68315 4.74825 0.848263 4.73773 1.02744C4.72706 1.20907 4.79233 1.3972 4.95437 1.55917L5.09577 1.41772ZM5.81853 0.709186L16.7245 9.61513L16.851 9.46022L5.94503 0.554276L5.81853 0.709186ZM16.717 9.6084C16.8407 9.732 16.8826 9.86519 16.8754 9.98705C16.8681 10.1114 16.8091 10.2319 16.7171 10.324C16.625 10.4161 16.5045 10.4752 16.3803 10.4825C16.2585 10.4897 16.1253 10.4479 16.0017 10.3243L15.8603 10.4657C16.0223 10.6277 16.2104 10.6929 16.3921 10.6822C16.5713 10.6716 16.7364 10.5876 16.8586 10.4654C16.9807 10.3432 17.0645 10.178 17.0751 9.99878C17.0857 9.8171 17.0205 9.62893 16.8584 9.46695L16.717 9.6084ZM18.8334 16.5314H0.605961V16.7314H18.8334V16.5314ZM0.605961 16.5314C0.326588 16.5314 0.1 16.3048 0.1 16.0254H-0.1C-0.1 16.4153 0.216131 16.7314 0.605961 16.7314V16.5314ZM0.1 16.0254C0.1 15.7461 0.326588 15.5195 0.605961 15.5195V15.3195C0.216131 15.3195 -0.1 15.6356 -0.1 16.0254H0.1ZM0.605961 15.5195H18.8334V15.3195H0.605961V15.5195ZM18.932 15.436C19.2123 13.7641 20.6666 12.4902 22.4184 12.4902V12.2902C20.5673 12.2902 19.031 13.6362 18.7347 15.4029L18.932 15.436ZM22.4184 12.4902C24.3708 12.4902 25.9537 14.0729 25.9537 16.0255H26.1537C26.1537 13.9624 24.4813 12.2902 22.4184 12.2902V12.4902ZM25.9537 16.0255C25.9537 17.9781 24.3708 19.5608 22.4184 19.5608V19.7608C24.4813 19.7608 26.1537 18.0886 26.1537 16.0255H25.9537ZM22.4184 19.5608C20.6666 19.5608 19.2123 18.2868 18.932 16.6149L18.7347 16.6479C19.031 18.4146 20.5673 19.7608 22.4184 19.7608V19.5608ZM22.4184 18.5491C23.8121 18.5491 24.942 17.4191 24.942 16.0255H24.742C24.742 17.3086 23.7016 18.3491 22.4184 18.3491V18.5491ZM24.942 16.0255C24.942 14.6318 23.8121 13.5019 22.4184 13.5019V13.7019C23.7016 13.7019 24.742 14.7423 24.742 16.0255H24.942ZM22.4184 13.5019C21.0248 13.5019 19.8948 14.6318 19.8948 16.0255H20.0948C20.0948 14.7423 21.1352 13.7019 22.4184 13.7019V13.5019ZM19.8948 16.0255C19.8948 17.4191 21.0248 18.5491 22.4184 18.5491V18.3491C21.1352 18.3491 20.0948 17.3086 20.0948 16.0255H19.8948ZM22.9244 6.33072C22.9244 6.61031 22.6978 6.83668 22.4184 6.83668V7.03668C22.8082 7.03668 23.1244 6.72082 23.1244 6.33072H22.9244ZM22.4184 6.83668C22.139 6.83668 21.9125 6.61031 21.9125 6.33072H21.7125C21.7125 6.72082 22.0286 7.03668 22.4184 7.03668V6.83668ZM21.9125 6.33072V1.06009H21.7125V6.33072H21.9125ZM21.9125 1.06009C21.9125 0.780713 22.139 0.554126 22.4184 0.554126V0.354126C22.0286 0.354126 21.7125 0.670257 21.7125 1.06009H21.9125ZM22.4184 0.554126C22.6978 0.554126 22.9244 0.780713 22.9244 1.06009H23.1244C23.1244 0.670257 22.8083 0.354126 22.4184 0.354126V0.554126ZM22.9244 1.06009V6.33072H23.1244V1.06009H22.9244ZM22.9244 30.9903C22.9244 31.2697 22.6978 31.4963 22.4184 31.4963V31.6963C22.8083 31.6963 23.1244 31.3802 23.1244 30.9903H22.9244ZM22.4184 31.4963C22.139 31.4963 21.9125 31.2697 21.9125 30.9903H21.7125C21.7125 31.3802 22.0286 31.6963 22.4184 31.6963V31.4963ZM21.9125 30.9903V25.7197H21.7125V30.9903H21.9125ZM21.9125 25.7197C21.9125 25.4401 22.139 25.2137 22.4184 25.2137V25.0137C22.0286 25.0137 21.7125 25.3296 21.7125 25.7197H21.9125ZM22.4184 25.2137C22.6978 25.2137 22.9244 25.4401 22.9244 25.7197H23.1244C23.1244 25.3296 22.8082 25.0137 22.4184 25.0137V25.2137ZM22.9244 25.7197V30.9903H23.1244V25.7197H22.9244ZM32.1124 16.5311C31.833 16.5311 31.6066 16.3046 31.6066 16.0251H31.4066C31.4066 16.4149 31.7225 16.7311 32.1124 16.7311V16.5311ZM31.6066 16.0251C31.6066 15.7457 31.833 15.5192 32.1124 15.5192V15.3192C31.7225 15.3192 31.4066 15.6354 31.4066 16.0251H31.6066ZM32.1124 15.5192H39.383V15.3192H32.1124V15.5192ZM39.383 15.5192C39.6624 15.5192 39.889 15.7458 39.889 16.0251H40.089C40.089 15.6353 39.7728 15.3192 39.383 15.3192V15.5192ZM39.889 16.0251C39.889 16.3045 39.6624 16.5311 39.383 16.5311V16.7311C39.7728 16.7311 40.089 16.415 40.089 16.0251H39.889ZM39.383 16.5311H32.1124V16.7311H39.383V16.5311ZM28.8348 10.324C28.6373 10.5215 28.317 10.5215 28.1192 10.324L27.9779 10.4654C28.2537 10.741 28.7006 10.741 28.9762 10.4654L28.8348 10.324ZM28.1193 10.324C27.9217 10.1263 27.9218 9.80592 28.1193 9.60845L27.9779 9.46703C27.7022 9.74264 27.7023 10.1896 27.9778 10.4654L28.1193 10.324ZM28.1118 9.6152L39.0178 0.709249L38.8913 0.554339L27.9853 9.46029L28.1118 9.6152ZM39.0252 0.702541C39.223 0.504974 39.5433 0.505029 39.7408 0.702503L39.8822 0.561085C39.6066 0.285459 39.1597 0.285514 38.8838 0.561047L39.0252 0.702541ZM39.7408 0.702503C39.9383 0.900004 39.9383 1.22032 39.7408 1.41779L39.8822 1.55922C40.1578 1.28363 40.1578 0.836683 39.8822 0.561085L39.7408 0.702503ZM39.7482 1.41105L28.8423 10.3172L28.9688 10.4722L39.8747 1.56596L39.7482 1.41105ZM5.81052 31.3477C5.61302 31.5452 5.29271 31.5452 5.09523 31.3477L4.9538 31.4891C5.22939 31.7647 5.67634 31.7647 5.95194 31.4891L5.81052 31.3477ZM5.09523 31.3477C4.89774 31.1502 4.89774 30.8298 5.09522 30.6324L4.95381 30.4909C4.6782 30.7665 4.67823 31.2135 4.9538 31.4891L5.09523 31.3477ZM5.08777 30.6391L15.9937 21.7325L15.8672 21.5776L4.96126 30.4842L5.08777 30.6391ZM16.0012 21.7258C16.1987 21.5283 16.519 21.5283 16.7165 21.7258L16.8579 21.5844C16.5823 21.3088 16.1354 21.3088 15.8598 21.5844L16.0012 21.7258ZM16.7165 21.7258C16.9142 21.9236 16.9142 22.2438 16.7165 22.4413L16.8578 22.5828C17.1338 22.3072 17.1337 21.8602 16.8579 21.5844L16.7165 21.7258ZM16.7239 22.4346L5.81798 31.3409L5.94448 31.4958L16.8504 22.5895L16.7239 22.4346Z" fill="white" mask="url(#path-1-inside-1_906_1131)"/>
<path fill-rule="evenodd" clip-rule="evenodd" d="M18.8334 16.6314H0.605961C0.271359 16.6314 0 16.36 0 16.0254C0 15.6908 0.271359 15.4194 0.605961 15.4194H18.8334C19.1216 13.7001 20.617 12.3901 22.4184 12.3901C24.426 12.3901 26.0537 14.0176 26.0537 16.0255C26.0537 18.0333 24.426 19.6608 22.4184 19.6608C20.617 19.6608 19.1217 18.3507 18.8334 16.6314ZM22.4184 18.449C23.7568 18.449 24.842 17.3638 24.842 16.0254C24.842 14.687 23.7568 13.6018 22.4184 13.6018C21.08 13.6018 19.9948 14.687 19.9948 16.0254C19.9948 17.3638 21.08 18.449 22.4184 18.449Z" fill="#FF81A6"/>
</svg>
