<svg width="17" height="18" viewBox="0 0 17 18" fill="none" xmlns="http://www.w3.org/2000/svg">
<path d="M8.84782 6.59359C8.21793 6.59359 7.61384 6.85698 7.16844 7.32582C6.72304 7.79466 6.47282 8.43055 6.47282 9.09359C6.47282 9.75663 6.72304 10.3925 7.16844 10.8614C7.61384 11.3302 8.21793 11.5936 8.84782 11.5936C9.47771 11.5936 10.0818 11.3302 10.5272 10.8614C10.9726 10.3925 11.2228 9.75663 11.2228 9.09359C11.2228 8.43055 10.9726 7.79466 10.5272 7.32582C10.0818 6.85698 9.47771 6.59359 8.84782 6.59359ZM8.84782 4.92692C9.89763 4.92692 10.9045 5.36591 11.6468 6.14731C12.3891 6.92871 12.8062 7.98852 12.8062 9.09359C12.8062 10.1987 12.3891 11.2585 11.6468 12.0399C10.9045 12.8213 9.89763 13.2603 8.84782 13.2603C7.798 13.2603 6.79119 12.8213 6.04885 12.0399C5.30652 11.2585 4.88949 10.1987 4.88949 9.09359C4.88949 7.98852 5.30652 6.92871 6.04885 6.14731C6.79119 5.36591 7.798 4.92692 8.84782 4.92692ZM13.9937 4.71859C13.9937 4.99485 13.8894 5.25981 13.7038 5.45516C13.5182 5.65051 13.2665 5.76025 13.0041 5.76025C12.7416 5.76025 12.4899 5.65051 12.3043 5.45516C12.1187 5.25981 12.0145 4.99485 12.0145 4.71859C12.0145 4.44232 12.1187 4.17737 12.3043 3.98202C12.4899 3.78667 12.7416 3.67692 13.0041 3.67692C13.2665 3.67692 13.5182 3.78667 13.7038 3.98202C13.8894 4.17737 13.9937 4.44232 13.9937 4.71859ZM8.84782 2.42692C6.88924 2.42692 6.5694 2.43275 5.65819 2.47525C5.03753 2.50609 4.62111 2.59359 4.23478 2.75192C3.89119 2.89192 3.6434 3.05942 3.37978 3.33775C3.13199 3.58975 2.94147 3.89741 2.82244 4.23775C2.67203 4.64609 2.5889 5.08359 2.5604 5.73609C2.51924 6.65609 2.51449 6.97775 2.51449 9.09359C2.51449 11.1553 2.52003 11.4919 2.5604 12.4511C2.58969 13.1036 2.67282 13.5428 2.82244 13.9486C2.95703 14.3111 3.11536 14.5719 3.37819 14.8486C3.64499 15.1286 3.89278 15.2961 4.23319 15.4344C4.62428 15.5936 5.04069 15.6819 5.65819 15.7119C6.53219 15.7553 6.83778 15.7603 8.84782 15.7603C10.8064 15.7603 11.1262 15.7544 12.0374 15.7119C12.6565 15.6811 13.0737 15.5936 13.4601 15.4361C13.8029 15.2953 14.0522 15.1278 14.3151 14.8511C14.5819 14.5703 14.741 14.3094 14.8724 13.9511C15.0228 13.5403 15.1067 13.1011 15.1352 12.4511C15.1764 11.5311 15.1812 11.2094 15.1812 9.09359C15.1812 7.03192 15.1756 6.69525 15.1352 5.73609C15.1059 5.08442 15.0228 4.64442 14.8724 4.23775C14.7531 3.89776 14.5629 3.59022 14.3159 3.33775C14.0766 3.07679 13.7843 2.87623 13.4609 2.75109C13.0729 2.59275 12.6565 2.50525 12.0374 2.47525C11.1634 2.43192 10.8579 2.42692 8.84782 2.42692ZM8.84782 0.760254C10.9988 0.760254 11.2672 0.768587 12.1111 0.810254C12.9542 0.851921 13.5282 0.991087 14.0332 1.19775C14.5557 1.40942 14.9959 1.69609 15.4361 2.15859C15.8386 2.57517 16.1501 3.07908 16.3489 3.63525C16.5444 4.16609 16.6774 4.77109 16.717 5.65859C16.7542 6.54692 16.7645 6.82942 16.7645 9.09359C16.7645 11.3578 16.7566 11.6403 16.717 12.5286C16.6774 13.4161 16.5444 14.0203 16.3489 14.5519C16.1507 15.1084 15.8391 15.6124 15.4361 16.0286C15.0402 16.4522 14.5615 16.78 14.0332 16.9894C13.5289 17.1953 12.9542 17.3353 12.1111 17.3769C11.2672 17.4161 10.9988 17.4269 8.84782 17.4269C6.69686 17.4269 6.42848 17.4186 5.58457 17.3769C4.74144 17.3353 4.16749 17.1953 3.6624 16.9894C3.13383 16.7806 2.65503 16.4527 2.25957 16.0286C1.85693 15.6121 1.54543 15.1081 1.34678 14.5519C1.15044 14.0211 1.01824 13.4161 0.978652 12.5286C0.941444 11.6403 0.931152 11.3578 0.931152 9.09359C0.931152 6.82942 0.939069 6.54692 0.978652 5.65859C1.01824 4.77025 1.15044 4.16692 1.34678 3.63525C1.54488 3.07874 1.85646 2.57469 2.25957 2.15859C2.65514 1.73461 3.13391 1.4067 3.6624 1.19775C4.16749 0.991087 4.74065 0.851921 5.58457 0.810254C6.42848 0.771087 6.69686 0.760254 8.84782 0.760254Z" fill="white"/>
</svg>
