<svg width="41" height="26" viewBox="0 0 41 26" fill="none" xmlns="http://www.w3.org/2000/svg">
<path fill-rule="evenodd" clip-rule="evenodd" d="M16.573 13.7881H1.58133C1.22582 13.7881 0.9375 13.5167 0.9375 13.1821C0.9375 12.8475 1.22582 12.5762 1.58133 12.5762H16.573C16.8793 10.8569 18.468 9.54688 20.3821 9.54688C22.5152 9.54688 24.2446 11.1743 24.2446 13.1822C24.2446 15.1901 22.5152 16.8175 20.3821 16.8175C18.468 16.8175 16.8793 15.5074 16.573 13.7881ZM20.3821 15.6058C21.8041 15.6058 22.9572 14.5206 22.9572 13.1822C22.9572 11.8437 21.8041 10.7585 20.3821 10.7585C18.96 10.7585 17.807 11.8437 17.807 13.1822C17.807 14.5206 18.96 15.6058 20.3821 15.6058Z" fill="#14142B"/>
<path d="M31.7757 5.02375C31.692 5.02375 31.6076 5.0454 31.5307 5.09156C31.3039 5.22717 31.2298 5.5212 31.3654 5.74798C34.5717 11.1106 34.5786 15.9101 31.3854 20.4213C31.2327 20.6373 31.284 20.9358 31.4994 21.0886C31.7153 21.2413 32.0139 21.19 32.1666 20.9746C35.6021 16.121 35.6083 10.9794 32.1866 5.25682C32.0971 5.10697 31.9387 5.02376 31.7757 5.02375Z" fill="#14142B"/>
<path d="M31.7757 5.02375C31.692 5.02375 31.6076 5.0454 31.5307 5.09156C31.3039 5.22717 31.2298 5.5212 31.3654 5.74798C34.5717 11.1106 34.5786 15.9101 31.3854 20.4213C31.2327 20.6373 31.284 20.9358 31.4994 21.0886C31.7153 21.2413 32.0139 21.19 32.1666 20.9746C35.6021 16.121 35.6083 10.9794 32.1866 5.25682C32.0971 5.10697 31.9387 5.02376 31.7757 5.02375Z" stroke="#14142B"/>
<path d="M28.1122 13.3814C28.1356 11.4989 27.484 9.57171 26.0211 7.37745L26.8532 6.82275C28.3903 9.1285 29.1387 11.2513 29.1121 13.3938C29.0855 15.5323 28.2875 17.6237 26.859 19.8685L26.0153 19.3317C27.3868 17.1765 28.0887 15.2679 28.1122 13.3814Z" fill="#14142B"/>
<path d="M28.1122 13.3814C28.1356 11.4989 27.484 9.57171 26.0211 7.37745L26.8532 6.82275C28.3903 9.1285 29.1387 11.2513 29.1121 13.3938C29.0855 15.5323 28.2875 17.6237 26.859 19.8685L26.0153 19.3317C27.3868 17.1765 28.0887 15.2679 28.1122 13.3814Z" stroke="#14142B"/>
<path d="M35.8965 0.443304C35.8127 0.443304 35.7284 0.464958 35.6515 0.511112C35.4247 0.646728 35.3506 0.940752 35.4862 1.16754C40.6904 9.86811 40.6972 17.6643 35.5062 25.0017C35.3534 25.2176 35.4047 25.5162 35.6207 25.6689C35.8367 25.8216 36.1352 25.7703 36.2879 25.5544C41.7211 17.8739 41.7274 9.73596 36.3079 0.67581C36.2184 0.526523 36.0595 0.443315 35.8965 0.443304Z" fill="#14142B"/>
<path d="M35.8965 0.443304C35.8127 0.443304 35.7284 0.464958 35.6515 0.511112C35.4247 0.646728 35.3506 0.940752 35.4862 1.16754C40.6904 9.86811 40.6972 17.6643 35.5062 25.0017C35.3534 25.2176 35.4047 25.5162 35.6207 25.6689C35.8367 25.8216 36.1352 25.7703 36.2879 25.5544C41.7211 17.8739 41.7274 9.73596 36.3079 0.67581C36.2184 0.526523 36.0595 0.443315 35.8965 0.443304Z" stroke="#14142B"/>
</svg>
