<svg viewBox="0 0 40 40" fill="none" xmlns="http://www.w3.org/2000/svg">
<path d="M34.8499 18.5332C34.8499 26.6832 28.9333 34.3165 20.8499 36.5498C20.2999 36.6998 19.6999 36.6998 19.1499 36.5498C11.0666 34.3165 5.1499 26.6832 5.1499 18.5332V11.2165C5.1499 9.84981 6.18326 8.29982 7.46659 7.78315L16.7499 3.9832C18.8332 3.1332 21.1832 3.1332 23.2666 3.9832L32.5499 7.78315C33.8166 8.29982 34.8666 9.84981 34.8666 11.2165L34.8499 18.5332Z" stroke="#14142B" stroke-width="1.5" stroke-linecap="round" stroke-linejoin="round"/>
<path d="M20.0001 18.8334C21.841 18.8334 23.3334 17.341 23.3334 15.5001C23.3334 13.6591 21.841 12.1667 20.0001 12.1667C18.1591 12.1667 16.6667 13.6591 16.6667 15.5001C16.6667 17.341 18.1591 18.8334 20.0001 18.8334Z" stroke="#2460D4" stroke-width="1.5" stroke-miterlimit="10" stroke-linecap="round" stroke-linejoin="round"/>
<path d="M20 18.8334C20 18.8334 20 24.8808 20 26.8334" stroke="#2460D4" stroke-width="1.5" stroke-miterlimit="10" stroke-linecap="round" stroke-linejoin="round"/>
</svg>
