<svg width="120" height="16" viewBox="0 0 120 16" fill="none" xmlns="http://www.w3.org/2000/svg">
<mask id="path-1-inside-1_35_598" fill="white">
<path d="M22.4199 3.90005C22.4199 1.29997 20.7653 0 17.4353 0H0V16H4.03319V10.22H17.4353C20.7653 10.22 22.4199 8.92001 22.4199 6.32008V3.90005ZM17.4353 3.71999C18.0559 3.71999 18.3662 3.92003 18.3662 4.30005V5.92006C18.3662 6.30007 18.0559 6.49999 17.4353 6.49999H4.03319V3.71999H17.4353ZM47.7353 0H43.5988C41.3858 0 40.0414 0.659987 38.6557 2.16005L30.6515 11.08C30.0724 11.72 29.2037 12.28 28.3144 12.28H28.1076V0H24.1572V16H28.3144C30.6102 16 32.0785 15.32 33.423 13.7401L41.2409 4.92005C41.8201 4.26007 42.7094 3.71999 43.5988 3.71999H43.8056V16H47.7353V0ZM73.0093 0H67.4044L61.2616 5.90002H53.8367V0H49.8035V16H53.8367V9.52001H61.5306L68.0455 16H73.6298L64.7569 7.41999L73.0093 0ZM97.849 0H74.6639V3.71999H84.3226V16H88.3557V3.71999H97.849V0ZM111.355 1.33995C110.817 0.440034 109.969 0 108.831 0H104.653C103.185 0 102.73 0.460025 102.234 1.35999L93.5677 16H98.242L100.062 12.86H113.485L115.346 16H120L111.355 1.33995ZM107.549 3.71999C107.942 3.71999 108.314 3.92004 108.625 4.45998L111.499 9.34005H102.027L104.86 4.48002C105.15 3.97997 105.522 3.71999 105.957 3.71999H107.549Z"/>
</mask>
<path d="M22.4199 3.90005C22.4199 1.29997 20.7653 0 17.4353 0H0V16H4.03319V10.22H17.4353C20.7653 10.22 22.4199 8.92001 22.4199 6.32008V3.90005ZM17.4353 3.71999C18.0559 3.71999 18.3662 3.92003 18.3662 4.30005V5.92006C18.3662 6.30007 18.0559 6.49999 17.4353 6.49999H4.03319V3.71999H17.4353ZM47.7353 0H43.5988C41.3858 0 40.0414 0.659987 38.6557 2.16005L30.6515 11.08C30.0724 11.72 29.2037 12.28 28.3144 12.28H28.1076V0H24.1572V16H28.3144C30.6102 16 32.0785 15.32 33.423 13.7401L41.2409 4.92005C41.8201 4.26007 42.7094 3.71999 43.5988 3.71999H43.8056V16H47.7353V0ZM73.0093 0H67.4044L61.2616 5.90002H53.8367V0H49.8035V16H53.8367V9.52001H61.5306L68.0455 16H73.6298L64.7569 7.41999L73.0093 0ZM97.849 0H74.6639V3.71999H84.3226V16H88.3557V3.71999H97.849V0ZM111.355 1.33995C110.817 0.440034 109.969 0 108.831 0H104.653C103.185 0 102.73 0.460025 102.234 1.35999L93.5677 16H98.242L100.062 12.86H113.485L115.346 16H120L111.355 1.33995ZM107.549 3.71999C107.942 3.71999 108.314 3.92004 108.625 4.45998L111.499 9.34005H102.027L104.86 4.48002C105.15 3.97997 105.522 3.71999 105.957 3.71999H107.549Z" fill="#14142B"/>
<path d="M0 0V-0.6H-0.6V0H0ZM0 16H-0.6V16.6H0V16ZM4.03319 16V16.6H4.63319V16H4.03319ZM4.03319 10.22V9.62002H3.43319V10.22H4.03319ZM4.03319 6.49999H3.43319V7.09999H4.03319V6.49999ZM4.03319 3.71999V3.11999H3.43319V3.71999H4.03319ZM47.7353 0H48.3353V-0.6H47.7353V0ZM38.6557 2.16005L38.2149 1.75287L38.2091 1.75933L38.6557 2.16005ZM30.6515 11.08L31.0964 11.4827L31.0981 11.4808L30.6515 11.08ZM28.1076 12.28H27.5076V12.88H28.1076V12.28ZM28.1076 0H28.7076V-0.6H28.1076V0ZM24.1572 0V-0.6H23.5572V0H24.1572ZM24.1572 16H23.5572V16.6H24.1572V16ZM33.423 13.7401L32.9739 13.342L32.9661 13.3512L33.423 13.7401ZM41.2409 4.92005L41.6899 5.31805L41.6919 5.31581L41.2409 4.92005ZM43.8056 3.71999H44.4056V3.11999H43.8056V3.71999ZM43.8056 16H43.2056V16.6H43.8056V16ZM47.7353 16V16.6H48.3353V16H47.7353ZM73.0093 0L73.4105 0.446169L74.574 -0.6H73.0093V0ZM67.4044 0V-0.6H67.1629L66.9887 -0.432728L67.4044 0ZM61.2616 5.90002V6.50002H61.5031L61.6772 6.33275L61.2616 5.90002ZM53.8367 5.90002H53.2367V6.50002H53.8367V5.90002ZM53.8367 0H54.4367V-0.6H53.8367V0ZM49.8035 0V-0.6H49.2035V0H49.8035ZM49.8035 16H49.2035V16.6H49.8035V16ZM53.8367 16V16.6H54.4367V16H53.8367ZM53.8367 9.52001V8.92001H53.2367V9.52001H53.8367ZM61.5306 9.52001L61.9537 9.0946L61.7782 8.92001H61.5306V9.52001ZM68.0455 16L67.6224 16.4254L67.7979 16.6H68.0455V16ZM73.6298 16V16.6H75.1134L74.0468 15.5687L73.6298 16ZM64.7569 7.41999L64.3558 6.97382L63.8773 7.40403L64.3399 7.85131L64.7569 7.41999ZM97.849 0H98.449V-0.6H97.849V0ZM74.6639 0V-0.6H74.0639V0H74.6639ZM74.6639 3.71999H74.0639V4.31999H74.6639V3.71999ZM84.3226 3.71999H84.9226V3.11999H84.3226V3.71999ZM84.3226 16H83.7226V16.6H84.3226V16ZM88.3557 16V16.6H88.9557V16H88.3557ZM88.3557 3.71999V3.11999H87.7557V3.71999H88.3557ZM97.849 3.71999V4.31999H98.449V3.71999H97.849ZM111.355 1.33995L111.871 1.03516L111.87 1.0322L111.355 1.33995ZM102.234 1.35999L102.75 1.66562L102.755 1.65778L102.759 1.6498L102.234 1.35999ZM93.5677 16L93.0514 15.6944L92.5153 16.6H93.5677V16ZM98.242 16V16.6H98.5877L98.7611 16.3009L98.242 16ZM100.062 12.86V12.26H99.7162L99.5428 12.5591L100.062 12.86ZM113.485 12.86L114.001 12.554L113.827 12.26H113.485V12.86ZM115.346 16L114.83 16.306L115.005 16.6H115.346V16ZM120 16V16.6H121.05L120.517 15.6952L120 16ZM108.625 4.45998L108.104 4.75892L108.108 4.76453L108.625 4.45998ZM111.499 9.34005V9.94005H112.549L112.016 9.0355L111.499 9.34005ZM102.027 9.34005L101.509 9.03785L100.983 9.94005H102.027V9.34005ZM104.86 4.48002L105.379 4.78223L105.38 4.78066L104.86 4.48002ZM23.0199 3.90005C23.0199 2.46368 22.5555 1.29306 21.5463 0.502636C20.5652 -0.265819 19.1618 -0.6 17.4353 -0.6V0.6C19.0388 0.6 20.1277 0.915803 20.8064 1.44735C21.457 1.95693 21.8199 2.73633 21.8199 3.90005H23.0199ZM17.4353 -0.6H0V0.6H17.4353V-0.6ZM-0.6 0V16H0.6V0H-0.6ZM0 16.6H4.03319V15.4H0V16.6ZM4.63319 16V10.22H3.43319V16H4.63319ZM4.03319 10.82H17.4353V9.62002H4.03319V10.82ZM17.4353 10.82C19.1619 10.82 20.5652 10.4858 21.5463 9.71739C22.5555 8.92697 23.0199 7.75638 23.0199 6.32008H21.8199C21.8199 7.48371 21.457 8.26309 20.8064 8.77267C20.1277 9.30421 19.0388 9.62002 17.4353 9.62002V10.82ZM23.0199 6.32008V3.90005H21.8199V6.32008H23.0199ZM17.4353 4.31999C17.56 4.31999 17.6524 4.33019 17.718 4.34412C17.7842 4.35817 17.8108 4.37338 17.8142 4.3755C17.8151 4.37611 17.8102 4.37314 17.8026 4.3652C17.7947 4.35702 17.7864 4.34609 17.7794 4.33304C17.7643 4.30481 17.7662 4.28808 17.7662 4.30005H18.9662C18.9662 3.91467 18.7917 3.57255 18.4528 3.35953C18.1579 3.17418 17.7918 3.11999 17.4353 3.11999V4.31999ZM17.7662 4.30005V5.92006H18.9662V4.30005H17.7662ZM17.7662 5.92006C17.7662 5.93202 17.7643 5.91527 17.7795 5.88701C17.7865 5.87395 17.7948 5.863 17.8027 5.85482C17.8103 5.84687 17.8152 5.84389 17.8142 5.8445C17.8109 5.84662 17.7843 5.86182 17.7181 5.87587C17.6525 5.88979 17.56 5.89999 17.4353 5.89999V7.09999C17.7917 7.09999 18.1578 7.04584 18.4527 6.86056C18.7916 6.64758 18.9662 6.30546 18.9662 5.92006H17.7662ZM17.4353 5.89999H4.03319V7.09999H17.4353V5.89999ZM4.63319 6.49999V3.71999H3.43319V6.49999H4.63319ZM4.03319 4.31999H17.4353V3.11999H4.03319V4.31999ZM47.7353 -0.6H43.5988V0.6H47.7353V-0.6ZM43.5988 -0.6C42.4311 -0.6 41.4535 -0.425565 40.5714 -0.0299555C39.6901 0.365328 38.9441 0.963615 38.2149 1.75292L39.0964 2.56719C39.753 1.85642 40.372 1.37469 41.0625 1.06496C41.7524 0.755558 42.5534 0.6 43.5988 0.6V-0.6ZM38.2091 1.75933L30.205 10.6793L31.0981 11.4808L39.1022 2.56077L38.2091 1.75933ZM30.2067 10.6774C29.687 11.2517 28.9674 11.68 28.3144 11.68V12.88C29.4401 12.88 30.4577 12.1884 31.0964 11.4827L30.2067 10.6774ZM28.3144 11.68H28.1076V12.88H28.3144V11.68ZM28.7076 12.28V0H27.5076V12.28H28.7076ZM28.1076 -0.6H24.1572V0.6H28.1076V-0.6ZM23.5572 0V16H24.7572V0H23.5572ZM24.1572 16.6H28.3144V15.4H24.1572V16.6ZM28.3144 16.6C29.5218 16.6 30.5512 16.4211 31.4703 16.0103C32.3915 15.5985 33.1636 14.9707 33.8799 14.1289L32.9661 13.3512C32.3379 14.0893 31.7036 14.5916 30.9806 14.9147C30.2554 15.2389 29.4028 15.4 28.3144 15.4V16.6ZM33.872 14.138L41.6899 5.31804L40.7919 4.52206L32.974 13.3421L33.872 14.138ZM41.6919 5.31581C42.1986 4.73842 42.9363 4.31999 43.5988 4.31999V3.11999C42.4824 3.11999 41.4416 3.78173 40.7899 4.52429L41.6919 5.31581ZM43.5988 4.31999H43.8056V3.11999H43.5988V4.31999ZM43.2056 3.71999V16H44.4056V3.71999H43.2056ZM43.8056 16.6H47.7353V15.4H43.8056V16.6ZM48.3353 16V0H47.1353V16H48.3353ZM73.0093 -0.6H67.4044V0.6H73.0093V-0.6ZM66.9887 -0.432728L60.846 5.46729L61.6772 6.33275L67.82 0.432728L66.9887 -0.432728ZM61.2616 5.30002H53.8367V6.50002H61.2616V5.30002ZM54.4367 5.90002V0H53.2367V5.90002H54.4367ZM53.8367 -0.6H49.8035V0.6H53.8367V-0.6ZM49.2035 0V16H50.4035V0H49.2035ZM49.8035 16.6H53.8367V15.4H49.8035V16.6ZM54.4367 16V9.52001H53.2367V16H54.4367ZM53.8367 10.12H61.5306V8.92001H53.8367V10.12ZM61.1075 9.94541L67.6224 16.4254L68.4686 15.5746L61.9537 9.0946L61.1075 9.94541ZM68.0455 16.6H73.6298V15.4H68.0455V16.6ZM74.0468 15.5687L65.174 6.98867L64.3399 7.85131L73.2127 16.4313L74.0468 15.5687ZM65.1581 7.86616L73.4105 0.446169L72.6082 -0.446169L64.3558 6.97382L65.1581 7.86616ZM97.849 -0.6H74.6639V0.6H97.849V-0.6ZM74.0639 0V3.71999H75.2639V0H74.0639ZM74.6639 4.31999H84.3226V3.11999H74.6639V4.31999ZM83.7226 3.71999V16H84.9226V3.71999H83.7226ZM84.3226 16.6H88.3557V15.4H84.3226V16.6ZM88.9557 16V3.71999H87.7557V16H88.9557ZM88.3557 4.31999H97.849V3.11999H88.3557V4.31999ZM98.449 3.71999V0H97.249V3.71999H98.449ZM111.87 1.0322C111.21 -0.07228 110.151 -0.6 108.831 -0.6V0.6C109.786 0.6 110.424 0.952348 110.84 1.6477L111.87 1.0322ZM108.831 -0.6H104.653V0.6H108.831V-0.6ZM104.653 -0.6C103.864 -0.6 103.253 -0.477781 102.758 -0.164442C102.266 0.147392 101.968 0.600189 101.708 1.07018L102.759 1.6498C102.996 1.21982 103.174 0.992627 103.4 0.849458C103.624 0.707793 103.975 0.6 104.653 0.6V-0.6ZM101.717 1.05436L93.0514 15.6944L94.084 16.3056L102.75 1.66562L101.717 1.05436ZM93.5677 16.6H98.242V15.4H93.5677V16.6ZM98.7611 16.3009L100.581 13.1608L99.5428 12.5591L97.7229 15.6991L98.7611 16.3009ZM100.062 13.46H113.485V12.26H100.062V13.46ZM112.969 13.1659L114.83 16.306L115.863 15.694L114.001 12.554L112.969 13.1659ZM115.346 16.6H120V15.4H115.346V16.6ZM120.517 15.6952L111.871 1.03517L110.838 1.64473L119.483 16.3048L120.517 15.6952ZM107.549 4.31999C107.682 4.31999 107.876 4.36233 108.104 4.75891L109.145 4.16106C108.752 3.47776 108.202 3.11999 107.549 3.11999V4.31999ZM108.108 4.76453L110.983 9.6446L112.016 9.0355L109.142 4.15543L108.108 4.76453ZM111.499 8.74005H102.027V9.94005H111.499V8.74005ZM102.545 9.64225L105.379 4.78223L104.342 4.17782L101.509 9.03785L102.545 9.64225ZM105.38 4.78066C105.604 4.39386 105.808 4.31999 105.957 4.31999V3.11999C105.236 3.11999 104.696 3.56607 104.341 4.17939L105.38 4.78066ZM105.957 4.31999H107.549V3.11999H105.957V4.31999Z" fill="white" mask="url(#path-1-inside-1_35_598)"/>
</svg>
