<svg width="63" height="39" viewBox="0 0 63 39" fill="none" xmlns="http://www.w3.org/2000/svg">
<path d="M51.9446 15.4612V34.7974H45.0585V26.5827V23.8468L43.2942 25.9379L40.3748 29.398L40.3729 29.4002L35.793 34.7974H30.572V26.3328V23.5759L28.8045 25.6918L21.2714 34.7097H16.0157L30.2211 17.7004L30.4486 17.4279L30.4535 17.0729L30.5613 9.10481L30.6 6.24677L28.788 8.45735L5.4639 36.9124C4.22642 36.2312 3.08225 35.5045 2.03922 34.7322C6.85582 28.7927 11.7628 22.8775 16.6838 16.9454L15.9142 16.3069L16.6838 16.9454L16.7522 16.863C16.7522 16.8629 16.7522 16.8629 16.7522 16.8629C20.4446 12.4124 24.1455 7.95145 27.8602 3.41598C29.1404 2.30186 30.2786 1.71487 31.2507 1.47837L31.2508 1.47836C32.3697 1.20609 33.3208 1.3803 34.1256 1.83538L34.1257 1.8354C34.9361 2.29366 35.6393 3.06534 36.1793 4.06135C36.7978 5.20248 37.1771 6.59568 37.2592 7.99615L37.4017 10.4278L39.0089 8.59744L41.4087 5.86434L41.4087 5.86437L41.4151 5.857C41.6316 5.60555 41.8963 5.28044 42.1683 4.94621L42.1755 4.93741C42.836 4.12603 43.5131 3.29961 43.9259 2.93163C44.9671 2.01035 45.9476 1.46236 46.8059 1.22908C47.6356 1.00359 48.3473 1.06822 48.9476 1.35987C49.5454 1.65051 50.1184 2.21057 50.5821 3.14956L50.5822 3.14966C51.1249 4.24842 51.5006 5.83977 51.5716 7.98249L51.6535 10.4547L53.3127 8.62012L58.2243 3.18939C59.1572 3.70859 60.0492 4.25583 60.8971 4.82876L52.1912 14.8036L51.9446 15.0862V15.4612ZM44.5878 18.5365L44.8192 18.2585V17.8969V9.07603V6.28055L43.0461 8.44176C41.0975 10.8169 39.145 13.1744 37.1768 15.536L36.9449 15.8142V16.1763V24.9003V27.6291L38.7081 25.5464L41.419 22.3444L41.4191 22.3445L41.4245 22.3379L44.5878 18.5365Z" fill="white" stroke="#181828" stroke-width="2"/>
</svg>
