<svg width="22" height="19" viewBox="0 0 22 19" fill="none" xmlns="http://www.w3.org/2000/svg">
<path d="M22 17.1007C21.9982 17.3634 21.8931 17.6147 21.7075 17.8005C21.5219 17.9863 21.2706 18.0917 21.008 18.0938H2.992C2.72881 18.0935 2.4765 17.9887 2.29049 17.8026C2.10448 17.6164 2 17.3639 2 17.1007V16.0938H20V4.39375L12 11.5938L2 2.59375V1.09375C2 0.828534 2.10536 0.57418 2.29289 0.386643C2.48043 0.199107 2.73478 0.09375 3 0.09375H21C21.2652 0.09375 21.5196 0.199107 21.7071 0.386643C21.8946 0.57418 22 0.828534 22 1.09375V17.1007ZM4.434 2.09375L12 8.90375L19.566 2.09375H4.434ZM0 12.0938H8V14.0938H0V12.0938ZM0 7.09375H5V9.09375H0V7.09375Z" fill="currentColor"/>
</svg>
