<svg width="74" height="73" viewBox="0 0 74 73" fill="none" xmlns="http://www.w3.org/2000/svg">
<path fill-rule="evenodd" clip-rule="evenodd" d="M34.8732 0C35.0341 0 35.4146 0.0725646 35.7219 0.145129C36.0145 0.232207 36.4535 0.464414 36.7023 0.69662C36.9364 0.914314 37.39 1.55288 38.2387 3.12028L39.2629 3.07674C39.8336 3.04771 41.1066 3.10577 42.1163 3.19284C43.1259 3.27992 44.5745 3.4831 45.3354 3.64274C46.0963 3.80239 47.4133 4.16521 48.2619 4.44095C49.1106 4.7167 50.4276 5.23916 51.1884 5.60199C51.9493 5.96481 53.1346 6.60338 53.8223 7.00974C54.51 7.4161 55.7245 8.28688 56.5147 8.92545C57.3195 9.56402 58.4315 10.5799 58.9729 11.1749C59.529 11.77 60.4069 12.8439 60.9191 13.5696C61.4458 14.2952 62.2653 15.6594 62.7481 16.6173C63.2164 17.5751 63.8163 18.9829 64.065 19.7376C64.3138 20.4922 64.665 21.7694 64.8406 22.5676C65.104 23.7867 65.1479 24.5123 65.1625 27.0666C65.1625 29.5048 65.104 30.361 64.8845 31.3479C64.7381 32.03 64.4162 33.2056 64.1821 33.9602C63.9334 34.7149 63.509 35.8324 63.231 36.4274C62.953 37.0225 62.3823 38.1109 61.9433 38.8221C61.519 39.5332 60.7142 40.7233 60.1582 41.4344C59.5875 42.1455 58.7827 43.1179 58.3437 43.5823C57.9048 44.0467 57.5829 44.4386 57.6267 44.4676C57.6706 44.4966 58.7827 45.2948 60.1143 46.2382C61.4458 47.167 63.4212 48.6038 64.504 49.4165C65.5868 50.2292 67.5037 51.695 68.7475 52.6819C69.9912 53.6688 71.4837 54.9314 72.069 55.4974C72.7714 56.194 73.2396 56.8036 73.5177 57.3986C73.7518 57.9066 73.942 58.6322 73.9859 59.1402C74.0298 59.7207 73.9713 60.2722 73.8103 60.8091C73.6786 61.2445 73.0787 62.3911 72.4934 63.3489C71.6008 64.8147 71.3374 65.1485 70.7814 65.4533C70.3424 65.7 69.9181 65.8016 69.4059 65.8016C68.9962 65.8016 68.4694 65.6855 68.2353 65.5549C68.0012 65.4388 64.6357 62.899 60.7727 59.9384C56.9098 56.9632 53.4418 54.3799 53.0468 54.1912C52.6663 54.0026 51.9201 53.7849 51.364 53.6978C50.8226 53.6252 50.0764 53.5527 48.9936 53.5527V54.6412C48.9936 55.6716 48.9789 55.7296 48.657 55.7296C48.4814 55.7296 48.1156 55.6861 47.384 55.5119V53.4076L46.4621 53.335C45.9646 53.2915 44.4721 53.2044 43.1406 53.1173C41.809 53.0447 40.3457 52.9431 39.0435 52.827V55.004H37.4339V53.8429C37.4339 52.7545 37.4192 52.6819 37.0973 52.6239C36.9217 52.5803 35.3268 52.4497 33.5563 52.3336C31.7857 52.203 29.942 51.9998 29.4592 51.8692C28.9763 51.7386 28.1569 51.4193 27.6301 51.1435C27.1033 50.8678 22.5087 47.5008 17.402 43.6404C12.2952 39.7944 7.97863 36.4565 7.81767 36.2388C7.61281 35.963 7.49575 35.5421 7.45186 35.0052C7.40796 34.3811 7.48112 34.0328 7.70061 33.5974C7.86157 33.2781 8.3737 32.6831 8.84195 32.2767C9.32482 31.8704 10.0711 31.3044 10.5101 31.0141C10.949 30.7239 11.7831 30.3175 12.3391 30.0998C13.1732 29.7805 13.6121 29.708 14.6803 29.708C15.5875 29.6934 16.2314 29.7805 16.7289 29.9547C17.1239 30.0998 17.8556 30.4481 18.3384 30.7384C18.8213 31.0141 19.9334 31.7833 20.826 32.4509C21.7186 33.104 23.094 34.1779 23.8988 34.831C24.7036 35.4841 26.7375 37.2111 28.4056 38.6624C30.0884 40.0992 31.6687 41.3763 31.9174 41.4634C32.1808 41.565 34.2001 41.7682 36.4096 41.9278C38.6191 42.0875 40.4774 42.1745 40.5506 42.1455C40.6091 42.1165 40.653 41.594 40.653 39.9105H41.2383C41.5602 39.9105 41.9261 40.0121 42.0431 40.1282C42.1894 40.2734 42.2626 40.6362 42.2626 42.16L43.3161 42.2616C43.9014 42.3197 45.0282 42.4213 47.2377 42.5954V37.5885H45.0428V35.8469H47.9254C50.2666 35.8469 50.8812 35.8034 51.1445 35.6292C51.364 35.4841 51.4811 35.2664 51.4811 35.0197C51.4811 34.7875 51.4226 34.5408 51.364 34.4537C51.3055 34.3666 51.1153 34.2215 50.9251 34.1199C50.7495 34.0328 50.2373 33.9602 48.9936 33.9602V32.3638H50.1203C50.8958 32.3638 51.4518 32.4509 51.8469 32.625C52.1688 32.7702 52.5785 33.075 52.7541 33.3217C52.9297 33.5539 53.1346 34.0328 53.2077 34.3956C53.2809 34.7584 53.3102 35.2519 53.2516 35.4841C53.1931 35.7308 53.076 36.0501 52.9882 36.2097C52.9004 36.3694 52.6371 36.6742 52.3737 36.9064C52.1249 37.1241 51.6713 37.3563 51.364 37.4433C51.0714 37.5159 50.4129 37.5885 48.9936 37.5885V42.8131H49.7545C50.1788 42.8131 50.7641 42.8567 51.0421 42.9147C51.5396 43.0018 51.6128 42.9437 53.4711 41.1296C54.5393 40.0992 55.7538 38.764 56.1928 38.169C56.6317 37.574 57.2609 36.6306 57.5975 36.0646C57.934 35.5131 58.4462 34.4972 58.7242 33.8151C59.0168 33.133 59.3826 32.0881 59.529 31.493C59.6899 30.898 59.8802 29.9547 59.9679 29.3887C60.0411 28.8372 60.1143 27.7922 60.1143 27.0666C60.1143 26.3555 60.0118 25.1074 59.8948 24.3091C59.7631 23.5109 59.4412 22.2048 59.1778 21.4066C58.9144 20.6083 58.4754 19.5344 58.212 19.0119C57.9487 18.4895 57.3926 17.5461 56.9683 16.9076C56.5439 16.269 55.7392 15.2676 55.1977 14.6726C54.6417 14.0775 53.6613 13.1922 53.0175 12.7133C52.3737 12.2199 51.5835 11.6539 51.2616 11.4507C50.9397 11.233 50.0764 10.7831 49.3594 10.4203C48.6424 10.0575 47.5157 9.57853 46.8718 9.36084C46.228 9.14314 45.1452 8.85288 44.4575 8.70775C43.7698 8.56262 42.7308 8.38847 42.1455 8.3159C41.3408 8.22883 41.092 8.24334 41.092 8.38847C41.092 8.47555 41.3554 9.0996 41.6773 9.7672C42.0431 10.5074 42.2626 11.1604 42.2626 11.5087C42.2626 11.799 42.1894 12.2199 42.1016 12.4521C42.0285 12.6698 41.7797 13.0326 41.5602 13.2503C41.3408 13.4825 41.0335 13.7437 40.8725 13.8308C40.7116 13.9034 40.3457 14.034 40.0677 14.092C39.7751 14.1646 39.3068 14.1501 38.9703 14.063C38.6484 13.9759 38.1801 13.7583 37.946 13.5841C37.6387 13.3519 36.7608 11.8425 34.9171 8.40298C32.5174 3.91849 32.3271 3.49761 32.3125 2.80099C32.3125 2.32207 32.4149 1.81412 32.5905 1.49483C32.7368 1.19006 32.9856 0.827237 33.1319 0.69662C33.2929 0.551491 33.6733 0.34831 33.9952 0.232207C34.3172 0.10159 34.7122 0.0145129 34.8732 0ZM34.0538 2.65586C34.0684 2.94612 34.961 4.78926 36.4242 7.54672C37.7265 9.98489 38.9264 12.0893 39.102 12.2344C39.3068 12.4085 39.5263 12.4666 39.7751 12.4085C39.9799 12.365 40.2287 12.2054 40.3311 12.0748C40.4335 11.9441 40.5067 11.6974 40.5067 11.5378C40.5067 11.3781 39.4385 9.23022 38.1509 6.74851C36.8486 4.28131 35.6487 2.1334 35.4878 1.98827C35.3122 1.84314 35.0634 1.72704 34.9463 1.72704C34.8293 1.74155 34.5659 1.84314 34.3757 1.95924C34.1269 2.1334 34.0391 2.30755 34.0538 2.65586ZM40.0677 6.45825C42.5114 6.61789 43.8722 6.79205 44.677 6.9662C45.4818 7.14036 46.7987 7.51769 47.6035 7.79344C48.4083 8.06918 49.7545 8.6497 50.6031 9.0996C51.4518 9.53499 52.6663 10.2606 53.3102 10.7105C53.954 11.175 55.1392 12.1909 55.944 12.9891C56.7488 13.7873 57.817 15.0354 58.3145 15.7465C58.7973 16.4722 59.4265 17.5171 59.7192 18.0686C59.9972 18.6346 60.4508 19.7376 60.7435 20.5358C61.0215 21.334 61.3727 22.5821 61.519 23.2932C61.7238 24.2656 61.7824 25.238 61.797 27.0666C61.797 28.9243 61.7239 29.8386 61.5336 30.7674C61.3873 31.4495 61.08 32.5235 60.8459 33.162C60.6264 33.8006 60.2899 34.6569 60.1143 35.0487C59.9387 35.4551 59.4265 36.3984 58.9729 37.1531C58.5193 37.9078 57.6414 39.1559 57.0268 39.9105C56.3976 40.6652 55.4904 41.6811 55.0075 42.16L54.1149 43.0308C55.8855 43.4952 55.9586 43.4952 56.222 43.2775C56.3683 43.1469 56.9975 42.4793 57.5975 41.7972C58.1974 41.1151 59.1632 39.8525 59.7631 38.9672C60.3484 38.0964 61.1239 36.7467 61.4751 35.992C61.8263 35.2374 62.2945 34.0909 62.4994 33.4523C62.7042 32.8137 62.9969 31.7688 63.1432 31.1302C63.3481 30.2014 63.4066 29.3742 63.392 27.0666C63.392 24.6284 63.3334 23.9318 63.0554 22.7127C62.8798 21.9145 62.5725 20.768 62.3677 20.173C62.1628 19.5779 61.6507 18.3734 61.2263 17.4881C60.7874 16.6173 60.0411 15.3402 59.5436 14.6581C59.0607 13.9759 58.2413 12.9746 57.7292 12.4085C57.217 11.8571 56.3098 11.0008 55.7099 10.5074C55.11 10.0139 54.1296 9.28827 53.5296 8.89642C52.9297 8.49006 51.7737 7.83698 50.969 7.43062C50.1642 7.03877 48.8472 6.47276 48.0424 6.19702C47.2377 5.92127 45.95 5.55845 45.1891 5.39881C44.4282 5.22465 43.1113 5.02147 42.2626 4.93439C41.4139 4.86183 40.375 4.78926 39.9507 4.78926H39.1605L40.0677 6.45825ZM12.1196 32.0736L11.5343 32.3638C12.1489 32.8718 16.3192 36.0646 21.1918 39.7944C27.5569 44.6708 30.2054 46.6155 30.6298 46.7316C30.9517 46.8187 36.0584 47.2105 41.97 47.6024C49.0521 48.0668 53.0321 48.3861 53.6028 48.5457C54.0857 48.6618 54.949 48.9956 55.505 49.2714C56.1635 49.5907 59.1339 51.7386 63.9187 55.3813C67.9866 58.4726 71.352 61.0704 71.4106 61.1575C71.4691 61.2445 71.5423 61.2881 71.5715 61.2445C71.6154 61.201 71.7471 60.9543 71.8788 60.7076C72.0105 60.4463 72.1568 59.9529 72.2007 59.6191C72.2739 59.1402 72.2154 58.8064 71.952 58.2113C71.7178 57.6744 71.2935 57.1374 70.6497 56.5423C70.1229 56.0489 68.9084 55.033 67.9427 54.2638C66.9769 53.4946 65.2356 52.1594 64.065 51.2742C62.8944 50.3889 60.7581 48.8215 59.3095 47.791C57.8609 46.7606 56.3098 45.7447 55.8708 45.5415C55.4319 45.3239 54.7734 45.0916 54.4076 45.0046C54.0418 44.9175 52.3298 44.7433 50.6031 44.6272C48.8765 44.5111 44.0331 44.1773 39.8482 43.9016C35.3561 43.5968 31.9467 43.3066 31.5077 43.1759C30.9663 43.0308 30.4249 42.6825 29.4445 41.8408C28.7129 41.2167 27.0009 39.7509 25.6401 38.5899C24.2792 37.4143 22.4063 35.8614 21.4844 35.1358C20.5626 34.3956 19.2164 33.3942 18.4848 32.9008C17.7678 32.4219 16.9045 31.8994 16.5825 31.7543C16.2606 31.6237 15.6022 31.464 15.1193 31.4205C14.5633 31.3769 13.9633 31.435 13.4805 31.5656C13.0561 31.6817 12.4415 31.9139 12.1196 32.0736ZM9.23702 34.7875C9.26629 35.339 9.33945 35.397 18.5579 42.3342C24.9231 47.1235 28.1569 49.4745 28.8007 49.7648C29.3275 49.997 30.1761 50.2728 30.7029 50.3453C31.2297 50.4324 35.078 50.7372 39.2629 51.0129C43.4478 51.2887 47.9254 51.5934 49.2131 51.666C50.5007 51.7531 51.8615 51.8837 52.2566 51.9563C52.6371 52.0433 53.2955 52.261 53.7199 52.4497C54.1588 52.6384 57.539 55.1346 61.797 58.3855C66.4062 61.9266 69.2303 64.002 69.4498 64.002C69.6254 64.002 69.9034 63.8714 70.0644 63.7117C70.2253 63.5521 70.357 63.2763 70.357 63.1022C70.357 62.9135 70.2839 62.6668 70.1814 62.5362C70.079 62.4056 66.7282 59.8223 62.7481 56.8036C58.7681 53.7849 55.1392 51.129 54.7002 50.9113C54.2613 50.6936 53.4418 50.4179 52.8712 50.2873C52.2859 50.1712 47.4718 49.7938 41.6041 49.4165C35.9706 49.0537 30.9956 48.6909 30.5566 48.6183C30.1176 48.5312 29.4884 48.3135 29.1665 48.1394C28.8446 47.9507 24.4841 44.6563 19.4798 40.8103C14.4608 36.9644 10.2467 33.8151 10.115 33.8151C9.96865 33.8151 9.70527 33.9167 9.52967 34.0328C9.26629 34.207 9.20776 34.3666 9.23702 34.7875ZM4.51072 15.9787C4.78874 15.9642 5.38867 16.0223 5.82765 16.1093C6.26662 16.1964 7.02751 16.4431 7.51039 16.6753C7.99326 16.893 8.72489 17.3429 9.11996 17.6477C9.52967 17.967 10.1589 18.6201 10.5247 19.0845C10.9051 19.5634 11.4026 20.3181 11.6514 20.7535C11.9001 21.1889 12.2074 21.9726 12.3245 22.495C12.4562 23.0175 12.5586 23.7577 12.5586 24.164C12.5586 24.5559 12.4562 25.2815 12.3391 25.7604C12.2074 26.2394 11.9001 27.0231 11.6368 27.4875C11.3734 27.9519 10.7734 28.7066 10.2906 29.1565C9.80769 29.6064 9.0907 30.1288 8.68099 30.3175C8.12495 30.5787 7.77377 30.6513 7.2031 30.6077C6.63244 30.5642 6.31052 30.4336 5.88618 30.0998C5.43257 29.737 4.83264 28.7501 2.79872 24.9477C1.42326 22.3644 0.208763 19.9843 0.106335 19.665C-0.0399896 19.1861 -0.0399897 18.9829 0.135601 18.504C0.252661 18.1847 0.545311 17.7058 0.779431 17.43C1.02818 17.1688 1.46716 16.8205 1.77444 16.6753C2.06709 16.5157 2.69629 16.3125 3.16453 16.1964C3.61814 16.0803 4.2327 15.9787 4.51072 15.9787ZM8.22738 23.54C9.16386 25.3686 9.95402 26.8489 9.99791 26.8489C10.0418 26.8489 10.2028 26.5441 10.3784 26.1523C10.5393 25.7749 10.7149 25.1074 10.7588 24.672C10.8027 24.2366 10.7588 23.5109 10.671 23.0755C10.5832 22.6402 10.2613 21.8565 9.96865 21.3485C9.66137 20.826 9.0468 20.0423 8.60783 19.5779C8.09569 19.0555 7.46649 18.5911 6.85192 18.3008C6.32515 18.0541 5.73985 17.8509 5.54963 17.8509C5.21308 17.8509 5.21308 17.8799 5.85691 19.041C6.22273 19.7085 7.2909 21.7258 8.22738 23.54ZM1.8476 19.1716C1.87687 19.3602 2.94504 21.5081 4.2327 23.9463C5.535 26.3845 6.7056 28.4889 6.83729 28.634C6.96898 28.7791 7.23237 28.8952 7.43722 28.8952C7.64208 28.8952 7.9201 28.7791 8.05179 28.634C8.19812 28.4889 8.31518 28.2276 8.31518 28.039C8.31518 27.8648 7.247 25.6734 5.95934 23.1771C4.65705 20.6954 3.48645 18.562 3.35475 18.4604C3.22306 18.3588 2.94504 18.2863 2.74019 18.2863C2.53533 18.2863 2.24268 18.4024 2.09636 18.5475C1.95003 18.6926 1.83297 18.9684 1.8476 19.1716ZM33.3368 32.3638V33.9602H32.2832C31.4784 33.9457 31.1273 34.0183 30.8785 34.207C30.6444 34.3811 30.5273 34.6133 30.542 34.9036C30.542 35.1358 30.659 35.4551 30.8053 35.6002C31.0248 35.8034 31.3175 35.8614 33.6294 35.8469V37.5885H32.5027C31.8735 37.5885 31.098 37.5159 30.7761 37.4288C30.4542 37.3417 29.9567 37.0225 29.664 36.7322C29.3421 36.4274 29.0641 35.963 28.9617 35.5857C28.8739 35.2519 28.8446 34.7294 28.9031 34.4246C28.9617 34.1344 29.1519 33.699 29.3421 33.4523C29.5177 33.2201 29.9128 32.8718 30.22 32.6976C30.6883 32.4219 30.9956 32.3638 33.3368 32.3638ZM47.384 64.7276H48.9936V66.9046L49.9886 67.0642C50.53 67.1513 51.3348 67.398 51.7737 67.6012C52.2127 67.8189 52.9151 68.3123 53.3248 68.7187C53.7345 69.1105 54.2466 69.7926 54.4661 70.199C54.6856 70.6489 54.8466 71.2004 54.8466 71.5052C54.8319 71.9406 54.7295 72.1582 54.3344 72.5211C53.8223 73 53.8077 73 52.359 73C51.2616 73 50.8373 72.9419 50.6763 72.7823C50.5592 72.6662 50.4568 72.3614 50.4568 72.1292C50.4568 71.7229 50.4129 71.6938 49.9447 71.6938C49.6667 71.6938 49.4325 71.6358 49.4325 71.5487C49.4325 71.4616 49.3155 71.3745 49.1838 71.3455C49.0375 71.3165 49.8569 71.2875 51.0129 71.273C52.1542 71.273 53.0907 71.2149 53.0907 71.1423C53.1053 71.0843 52.9004 70.765 52.6517 70.4167C52.4176 70.0829 51.9054 69.604 51.525 69.3718C51.1299 69.125 50.5885 68.8638 50.3105 68.7913C50.0325 68.7042 49.1545 68.6461 46.945 68.6461V67.7753C46.945 67.0932 46.9889 66.9046 47.1645 66.9046C47.3401 66.9046 47.384 66.6869 47.384 65.8161V64.7276ZM25.1426 66.9046V68.6461L23.4306 68.6751C21.9527 68.7187 21.6161 68.7622 21.0455 69.0525C20.6796 69.2411 20.226 69.5459 20.0358 69.7056C19.8456 69.8797 19.4944 70.2861 18.836 71.1859L21.0016 71.2584C22.7136 71.3165 23.0647 71.3745 22.6989 71.4761C22.4356 71.5632 22.1868 71.7374 22.1429 71.868C22.099 72.0131 21.938 72.1582 21.7771 72.2018C21.6161 72.2453 21.4844 72.3905 21.4844 72.5211C21.4942 72.6952 21.3381 72.821 21.0162 72.8984C20.7528 72.9565 20.0212 73 19.4066 73C18.3238 73 18.236 72.971 17.7385 72.5211C17.2995 72.1437 17.2117 71.9551 17.1971 71.4761C17.1971 71.0988 17.3434 70.6199 17.6215 70.1119C17.8556 69.6765 18.4116 69.0089 18.8506 68.6026C19.2896 68.2107 19.9188 67.7463 20.2407 67.5867C20.5626 67.427 21.2211 67.2239 21.7039 67.1223C22.1868 67.0062 23.1525 66.9191 25.1426 66.9046Z" fill="#14142B"/>
<path d="M48.9936 32.3638H33.3368V33.9602H48.9936V32.3638Z" fill="#14142B"/>
<path d="M45.0428 35.8469H33.6294V37.5885L40.653 37.5885V39.9105C41.6773 39.9105 41.97 39.9686 41.97 40.0557C41.97 40.1427 42.0285 40.2008 42.1163 40.2008C42.2041 40.2008 42.2626 39.6638 42.2626 38.8946V37.5885L45.0428 37.5885V35.8469Z" fill="#14142B"/>
<path d="M39.0435 55.004H37.4339V66.9046H25.1426V68.6461H46.945V66.9046H39.0435V55.004Z" fill="#14142B"/>
<path d="M47.8815 55.6425L47.4279 55.5555L47.4132 60.1415L47.384 64.7276H48.9936V55.7296C48.4814 55.7296 48.1302 55.6861 47.8815 55.6425Z" fill="#14142B"/>
<path d="M49.374 71.5197C49.3301 71.3745 46.5792 71.331 36.2486 71.3165C26.9424 71.302 23.0209 71.3455 22.6843 71.4616C22.4356 71.5487 22.1868 71.7374 22.1429 71.8825C22.099 72.0131 21.9234 72.1728 21.7625 72.2018C21.6015 72.2453 21.4698 72.405 21.4698 72.5646C21.4698 72.7533 21.3674 72.8839 21.1479 72.9129C20.9723 72.9419 27.5569 72.971 35.7804 72.9855C45.672 73 50.7348 72.9565 50.7348 72.8549C50.7348 72.7823 50.6763 72.7097 50.5885 72.7097C50.5153 72.7097 50.4422 72.492 50.4422 72.2018C50.4422 71.7229 50.4275 71.6938 49.93 71.6938C49.652 71.6938 49.4033 71.6213 49.374 71.5197Z" fill="#14142B"/>
<path d="M46.2134 32.3203C48.9058 32.3058 46.6377 32.2913 41.1652 32.2913C35.6926 32.2913 33.4831 32.3058 36.2633 32.3203C39.0435 32.3493 43.521 32.3493 46.2134 32.3203Z" fill="#14142B"/>
<path d="M45.9207 34.0618C48.6131 34.0473 46.4475 34.0328 41.092 34.0328C35.7365 34.0328 33.527 34.0473 36.1901 34.0618C38.8386 34.0909 43.2284 34.0909 45.9207 34.0618Z" fill="#14142B"/>
<path d="M49.096 63.5666C49.1253 61.6944 49.1253 58.6467 49.096 56.8181C49.0814 54.9895 49.0667 56.5133 49.0667 60.2286C49.0667 63.9439 49.0814 65.4388 49.096 63.5666Z" fill="#14142B"/>
<path d="M47.3401 63.6392C47.3694 61.8105 47.3694 58.7338 47.3401 56.8181C47.3255 54.9024 47.3108 56.3972 47.3108 60.1561C47.3108 63.9149 47.3255 65.4678 47.3401 63.6392Z" fill="#14142B"/>
<path d="M39.1459 63.3489C39.1752 61.3606 39.1752 58.1533 39.1459 56.2376C39.1313 54.3219 39.1166 55.9618 39.1166 59.8658C39.1166 63.7698 39.1313 65.3517 39.1459 63.3489Z" fill="#14142B"/>
<path d="M37.39 63.3489C37.4192 61.3606 37.4192 58.1243 37.39 56.165C37.3753 54.2058 37.3607 55.8457 37.3607 59.7932C37.3607 63.7408 37.3753 65.3517 37.39 63.3489Z" fill="#14142B"/>
</svg>
