<?xml version="1.0" encoding="UTF-8" standalone="no"?>
<!-- Uploaded to: SVG Repo, www.svgrepo.com, Generator: SVG Repo Mixer Tools -->

<svg
   width="21.46954"
   height="23.290033"
   viewBox="0 0 21.46954 23.290033"
   fill="none"
   version="1.1"
   id="svg224"
   sodipodi:docname="media2.svg"
   inkscape:version="1.2 (1:1.2.1+202207142221+cd75a1ee6d)"
   xmlns:inkscape="http://www.inkscape.org/namespaces/inkscape"
   xmlns:sodipodi="http://sodipodi.sourceforge.net/DTD/sodipodi-0.dtd"
   xmlns="http://www.w3.org/2000/svg"
   xmlns:svg="http://www.w3.org/2000/svg">
  <defs
     id="defs228" />
  <sodipodi:namedview
     id="namedview226"
     pagecolor="#ffffff"
     bordercolor="#666666"
     borderopacity="1.0"
     inkscape:showpageshadow="2"
     inkscape:pageopacity="0.0"
     inkscape:pagecheckerboard="0"
     inkscape:deskcolor="#d1d1d1"
     showgrid="false"
     inkscape:zoom="22.627417"
     inkscape:cx="14.517786"
     inkscape:cy="15.711029"
     inkscape:window-width="1848"
     inkscape:window-height="1016"
     inkscape:window-x="72"
     inkscape:window-y="27"
     inkscape:window-maximized="1"
     inkscape:current-layer="svg224" />
  <path
     style="fill:none;fill-opacity:1;stroke:#292d32;stroke-width:1.3;stroke-dasharray:none;stroke-opacity:1"
     d="m 13.324241,12.757933 c -0.3069,-0.2045 -0.7014,-0.2236 -1.0266,-0.0496 -0.3251,0.174 -0.5281,0.5129 -0.5281,0.8817 v 4 c 0,0.3688 0.203,0.7077 0.5281,0.8817 0.3252,0.174 0.7197,0.1549 1.0266,-0.0496 l 3,-2 c 0.2782,-0.1855 0.4453,-0.4977 0.4453,-0.8321 0,-0.3344 -0.1671,-0.6466 -0.4453,-0.8321 z"
     id="path2817" />
  <path
     style="fill:none;fill-opacity:1;stroke:#292d32;stroke-width:1.4;stroke-dasharray:none;stroke-opacity:1"
     d="m 13.769541,8.5900327 c -3.8660004,0 -7.0000004,3.1340003 -7.0000004,7.0000003 0,3.866 3.134,7 7.0000004,7 3.866,0 7,-3.134 7,-7 0,-3.866 -3.134,-7.0000003 -7,-7.0000003 z"
     id="path2815" />
  <path
     id="path2811"
     style="fill:#292d32;fill-opacity:1;stroke:#292d32;stroke-opacity:1"
     d="M 14.769541,0.50018891 7.7695406,0.56464204 C 7.5043325,0.56711544 6.8828617,0.59976846 6.6953218,0.78729826 L 1.3654391,6.0423776 c -0.1875299,0.1875398 -0.82158375,0.6906399 -0.822461,0.9558582 0,0 -0.0284093,8.8049282 -0.0429687,13.2070312 -0.00548,1.65689 2.0079385,1.177115 2.8320313,1.261719 0.8240928,0.0846 2.3515625,-0.002 2.3515625,-0.002 0.5493918,0.05638 0.6757812,0.128471 0.6757812,-0.423828 0,-0.5523 -1.0805331,-0.339844 -1.6328126,-0.339844 0,0 -2.2024401,0.06177 -2.8183592,-0.193359 C 1.2549316,20.237404 1.2346963,18.704262 1.259775,18.152533 l 0.00977,-10.5625003 h 5.5 c 0.5522994,0 1,-0.4477206 1,-1 v -5.5 h 7.0000004 c 0.552299,0 1.316728,0.5844555 1.3125,1.1367188 l -0.02539,3.375 c -0.0042,0.5522632 -0.138237,1.1718749 0.414063,1.171875 0.552299,0 0.343103,-0.8471492 0.345703,-1.0976563 l 0.02734,-2.7128906 c 0.0172,-1.6567592 -0.41739,-2.47834269 -2.074216,-2.46289069 z M 6.9023531,1.7111265 6.9004,6.5919858 1.9589937,6.6740171 Z"
     sodipodi:nodetypes="cccccsscsccccsscsccsccccccc" />
</svg>
