<svg
   width="21.5"
   height="21.559999"
   viewBox="0 0 21.5 21.559999"
   fill="none"
   version="1.1"
   xmlns="http://www.w3.org/2000/svg"
   xmlns:svg="http://www.w3.org/2000/svg">
   <g
     stroke="#292d32"
     stroke-width="2"
     stroke-linecap="round"
     stroke-linejoin="round"
     fill="none"
    >
  <path
     d="m 20.75,8.75 v 3 c 0,4 -2,6 -6,6 h -0.5 c -0.31,0 -0.61,0.15 -0.8,0.4 l -1.5,2 c -0.66,0.88 -1.74,0.88 -2.4,0 l -1.5,-2 c -0.16,-0.22 -0.53,-0.4 -0.8,-0.4 h -0.5 c -4,0 -6,-1 -6,-6 v -5 c 0,-4 2,-6 6,-6 h 6"
     stroke-width="1.5"
     id="path716" />
  <path
     d="m 18.25,5.75 c 1.3807,0 2.5,-1.11929 2.5,-2.5 0,-1.38071 -1.1193,-2.5 -2.5,-2.5 -1.3807,0 -2.5,1.11929 -2.5,2.5 0,1.38071 1.1193,2.5 2.5,2.5 z"
     stroke-width="1.5"
     id="path718" />
  <path
     d="m 14.7445,9.75 h 0.009"
     id="path720" />
  <path
     d="m 10.7445,9.75 h 0.009"
     id="path722" />
  <path
     d="M 6.74451,9.75 H 6.75349"
     id="path724" />
    </g>
</svg>
