<svg width="11" height="18" viewBox="0 0 11 18" fill="none" xmlns="http://www.w3.org/2000/svg">
<path d="M6.02016 0.59375C3.58714 0.59375 1.61485 2.56611 1.61485 4.99906C1.61485 7.43207 3.58714 9.40455 6.02016 9.40455C8.45317 9.40455 10.4255 7.43207 10.4255 4.99906C10.4255 2.56611 8.45317 0.59375 6.02016 0.59375ZM6.02016 6.82024C5.01443 6.82024 4.1991 6.00484 4.1991 4.99912C4.1991 3.9934 5.01443 3.17806 6.02016 3.17806C7.02588 3.17806 7.84121 3.9934 7.84121 4.99912C7.84121 6.00484 7.02588 6.82024 6.02016 6.82024Z" fill="currentColor"/>
<path d="M7.57542 12.9099C9.33904 12.5506 10.3959 11.7154 10.4518 11.6706C10.9679 11.2567 11.0508 10.5028 10.6369 9.98669C10.2231 9.47062 9.46929 9.38772 8.9531 9.80153C8.94219 9.81036 7.81498 10.6751 5.96033 10.6763C4.10573 10.6751 2.9547 9.81036 2.94379 9.80153C2.4276 9.38772 1.67379 9.47062 1.25998 9.98669C0.846105 10.5028 0.929007 11.2567 1.44508 11.6706C1.50175 11.716 2.60223 12.573 4.41527 12.9238L1.88846 15.5645C1.42925 16.0408 1.44306 16.799 1.91928 17.2582C2.15172 17.4824 2.4513 17.5938 2.75063 17.5938C3.06446 17.5938 3.37797 17.4711 3.61299 17.2273L5.96039 14.7268L8.54489 17.2435C9.01318 17.7111 9.77146 17.7103 10.2389 17.2422C10.7063 16.7741 10.7057 16.0157 10.2375 15.5483L7.57542 12.9099Z" fill="currentColor"/>
</svg>
