<svg
   width="21.5"
   height="21.5"
   viewBox="0 0 21.5 21.5"
   version="1.1"
   xmlns="http://www.w3.org/2000/svg"
   xmlns:svg="http://www.w3.org/2000/svg">
  <g
     fill="none"
     stroke="#292d32"
     stroke-width="1.5"
     stroke-linecap="round"
     stroke-linejoin="round"
  >
  <path
     d="m 10.8687,11.53 c -0.07,-0.01 -0.16,-0.01 -0.24,0 -1.76,-0.06 -3.15995,-1.5 -3.15995,-3.27002 0,-1.81 1.45995,-3.28 3.27995,-3.28 1.81,0 3.28,1.47 3.28,3.28 -0.01,1.77002 -1.4,3.21002 -3.16,3.27002 z"
     id="path176" />
  <path
     d="m 17.4917,18.13 c -1.78,1.63 -4.14,2.62 -6.74,2.62 -2.59998,0 -4.95998,-0.99 -6.73998,-2.62 0.1,-0.94 0.7,-1.86 1.77,-2.58 2.74,-1.82 7.21998,-1.82 9.93998,0 1.07,0.72 1.67,1.64 1.77,2.58 z"
     id="path178" />
  <path
     d="m 10.75,20.75 c 5.5228,0 10,-4.4772 10,-10 0,-5.52285 -4.4772,-10 -10,-10 -5.52285,0 -10,4.47715 -10,10 0,5.5228 4.47715,10 10,10 z"
     id="path180" />
  </g>
</svg>
