<?xml version="1.0" encoding="UTF-8" standalone="no"?>
<svg
   width="19.5"
   height="21.5"
   viewBox="0 0 19.5 21.5"
   fill="none"
   version="1.1"
   id="svg174"
   xmlns="http://www.w3.org/2000/svg"
   xmlns:svg="http://www.w3.org/2000/svg">
   <g fill='none'>
  <path
     d="m 5,5.75 h 9.5 v -2 c 0,-2 -0.75,-3 -3,-3 H 8 c -2.25,0 -3,1 -3,3 z"
     stroke="#292d32"
     stroke-width="1.5"
     stroke-miterlimit="10"
     stroke-linecap="round"
     stroke-linejoin="round"
     id="path164" />
  <path
     d="m 13.75,13.75 v 4 c 0,2 -1,3 -3,3 h -2 c -2,0 -3,-1 -3,-3 v -4 z"
     stroke="#292d32"
     stroke-width="1.5"
     stroke-miterlimit="10"
     stroke-linecap="round"
     stroke-linejoin="round"
     id="path166" />
  <path
     d="m 18.75,8.75 v 5 c 0,2 -1,3 -3,3 h -2 v -3 h -8 v 3 h -2 c -2,0 -3,-1 -3,-3 v -5 c 0,-2 1,-3 3,-3 h 12 c 2,0 3,1 3,3 z"
     stroke="#292d32"
     stroke-width="1.5"
     stroke-miterlimit="10"
     stroke-linecap="round"
     stroke-linejoin="round"
     id="path168" />
  <path
     d="M 14.75,13.75 H 13.54 4.75"
     stroke="#292d32"
     stroke-width="1.5"
     stroke-miterlimit="10"
     stroke-linecap="round"
     stroke-linejoin="round"
     id="path170" />
  <path
     d="m 4.75,9.75 h 3"
     stroke="#292d32"
     stroke-width="1.5"
     stroke-miterlimit="10"
     stroke-linecap="round"
     stroke-linejoin="round"
     id="path172" />
   </g>
</svg>
