<?xml version="1.0" encoding="UTF-8" standalone="no"?>
<svg
   width="18.5"
   height="21.5"
   viewBox="0 0 18.5 21.5"
   fill="none"
   version="1.1"
   xmlns="http://www.w3.org/2000/svg"
   xmlns:svg="http://www.w3.org/2000/svg">
   <g
     stroke="#292d32"
     stroke-width="1.5"
     stroke-linecap="round"
     stroke-linejoin="round"
     fill="none"
    >
  <path
     d="m 17.75,5.79 v 9.92 c 0,1.52 -0.14,2.6 -0.5,3.37 0,0.01 -0.01,0.03 -0.02,0.04 -0.22,0.28 -0.51,0.42 -0.85,0.42 -0.53,0 -1.17,-0.35 -1.86,-1.09 -0.82,-0.88 -2.08,-0.81 -2.8,0.15 l -1.01,1.34 c -0.4,0.54 -0.93,0.81 -1.46,0.81 -0.53,0 -1.06,-0.27 -1.46,-0.81 L 6.77002,18.59 c -0.71,-0.95 -1.96003,-1.02 -2.78003,-0.15 l -0.01001,0.01 c -1.13,1.21 -2.12996,1.39 -2.70996,0.67 C 1.26002,19.11 1.25,19.09 1.25,19.08 0.89,18.31 0.75,17.23 0.75,15.71 V 5.79 c 0,-1.52 0.14,-2.6 0.5,-3.37 0,-0.01 2e-5,-0.02 0.02002,-0.03 0.57,-0.73 1.57996,-0.55 2.70996,0.66 l 0.01001,0.01 c 0.82,0.87 2.07003,0.8 2.78003,-0.15 L 7.79,1.56 c 0.4,-0.54 0.93,-0.81 1.46,-0.81 0.53,0 1.06,0.27 1.46,0.81 l 1.01,1.34 c 0.72,0.96 1.98,1.03 2.8,0.15 0.69,-0.74 1.33,-1.09 1.86,-1.09 0.34,0 0.63,0.15 0.85,0.43 0.02,0.01 0.02,0.02 0.02,0.03 0.36,0.77 0.5,1.85 0.5,3.37 z"
     id="path505" />
  <path
     d="m 5.75,9 h 8"
     id="path507" />
  <path
     d="m 5.75,12.5 h 6"
     id="path509" />
  </g>
</svg>
