<svg width="57" height="14" viewBox="0 0 57 14" fill="none" xmlns="http://www.w3.org/2000/svg">
<path d="M25.7486 3.70067V0.468612L22.708 0.862707V3.70067H21.5248V6.37503H22.708C22.708 8.35422 22.708 12.161 22.708 13.6638H25.7486V6.37503H27.953V3.70067H25.7486Z" fill="currentColor"/>
<path d="M9.13106 8.49768C10.0573 7.7505 10.6517 6.72826 10.6517 5.44509V4.88696C10.6517 2.6337 8.82527 0.978163 6.57316 0.978163L0.132324 0.953157L0.136182 13.5968L3.17834 13.6208V9.32931H6.30524L8.34358 13.6208H11.904L9.13106 8.49768ZM7.54311 5.29177C7.54311 6.18899 6.8155 6.69825 5.91829 6.69825H3.17849V3.66195H5.91829C6.8155 3.66195 7.54311 4.29224 7.54311 5.18975V5.29177Z" fill="currentColor"/>
<path d="M43.3079 3.6478H41.698V0.418457L38.7235 0.812409L38.7227 13.6208H43.3079C45.561 13.6208 47.3867 11.8912 47.3867 9.63896V7.72664C47.3867 5.4741 45.561 3.6478 43.3079 3.6478ZM44.472 9.38304C44.472 10.3317 43.8318 10.8945 42.8836 10.8945H41.7079V6.37603H42.8836C43.8318 6.37603 44.472 6.93945 44.472 7.88797V9.38304Z" fill="currentColor"/>
<path d="M34.4551 3.70067V9.45434C34.4551 10.4026 34.1104 11.0436 33.1616 11.0436H33.1145C32.1666 11.0436 31.8208 10.4026 31.8208 9.45434V3.70067H28.8197V9.67397C28.8197 11.9268 29.8056 13.7534 32.8018 13.7534H33.3773C36.5329 13.7534 37.457 11.9268 37.457 9.67397V3.70067H34.4551Z" fill="currentColor"/>
<path d="M17.5394 3.70067V9.45434C17.5394 10.4026 17.1941 11.0436 16.2456 11.0436H16.1986C15.2507 11.0436 14.9052 10.4026 14.9052 9.45434V3.70067H11.904V9.67397C11.904 11.9268 12.8894 13.7534 15.8855 13.7534H16.4615C19.6164 13.7534 20.5408 11.9268 20.5408 9.67397V3.70067H17.5394Z" fill="currentColor"/>
<path d="M54.9999 10.2805C54.9999 10.2805 54.1219 11.3565 52.5782 11.2359C51.6164 11.161 51.0461 10.6724 51.0461 9.72412V9.39362H56.9337V7.6862C56.9337 5.48925 55.3239 3.56207 52.5857 3.56207C49.8483 3.56207 48.2346 5.39237 48.2346 7.58947V9.64325C48.2346 11.8416 49.8448 13.7687 52.5826 13.7687C55.6772 13.7687 57.0001 11.6104 57.0001 11.6104L54.9999 10.2805ZM51.0461 7.12393C51.0461 6.19799 51.6364 5.64057 52.5151 5.61485H52.5909C53.5054 5.61485 54.1229 6.17813 54.1229 7.12621V7.20995H51.0461V7.12393Z" fill="currentColor"/>
</svg>
