<?xml version="1.0" encoding="UTF-8" standalone="no"?>
<svg
   width="21"
   height="20"
   viewBox="0 0 21 20"
   fill="none"
   version="1.1"
   id="svg59"
   sodipodi:docname="search.svg"
   inkscape:version="1.2 (1:1.2.1+202207142221+cd75a1ee6d)"
   xmlns:inkscape="http://www.inkscape.org/namespaces/inkscape"
   xmlns:sodipodi="http://sodipodi.sourceforge.net/DTD/sodipodi-0.dtd"
   xmlns="http://www.w3.org/2000/svg"
   xmlns:svg="http://www.w3.org/2000/svg">
  <defs
     id="defs63" />
  <sodipodi:namedview
     id="namedview61"
     pagecolor="#ffffff"
     bordercolor="#666666"
     borderopacity="1.0"
     inkscape:showpageshadow="2"
     inkscape:pageopacity="0.0"
     inkscape:pagecheckerboard="0"
     inkscape:deskcolor="#d1d1d1"
     showgrid="false"
     inkscape:zoom="38.714286"
     inkscape:cx="9.505535"
     inkscape:cy="9.5442804"
     inkscape:window-width="1848"
     inkscape:window-height="1016"
     inkscape:window-x="72"
     inkscape:window-y="27"
     inkscape:window-maximized="1"
     inkscape:current-layer="svg59" />
  <path
     d="m 20.225896,18.310905 -3.71,-3.68 c 1.4401,-1.7956 2.1375,-4.0747 1.9488,-6.3687101 -0.1887,-2.29399 -1.2491,-4.42851 -2.9633,-5.96465 -1.7141,-1.53613997 -3.9517,-2.35713397 -6.25257,-2.29417397 -2.30089,0.062964 -4.4902,1.00509397 -6.11778,2.63267397 -1.62758,1.62758 -2.56970998,3.81689 -2.63267498,6.11778 -0.062961,2.3008801 0.75803498,4.5384801 2.29417498,6.2525801 1.53614,1.7142 3.67066,2.7746 5.96466,2.9633 2.29399,0.1887 4.57309,-0.5087 6.36869,-1.9488 l 3.68,3.68 c 0.093,0.0937 0.2036,0.1681 0.3254,0.2189 0.1219,0.0508 0.2526,0.0769 0.3846,0.0769 0.132,0 0.2627,-0.0261 0.3846,-0.0769 0.1218,-0.0508 0.2324,-0.1252 0.3254,-0.2189 0.1802,-0.1865 0.281,-0.4357 0.281,-0.695 0,-0.2593 -0.1008,-0.5085 -0.281,-0.695 z m -10.70999,-2.29 c -1.38447,0 -2.73785,-0.4105 -3.889,-1.1797 -1.15114,-0.7692 -2.04835,-1.8624 -2.57816,-3.1415 -0.52982,-1.2791 -0.66844,-2.6865701 -0.39834,-4.0444401 0.27009,-1.35786 0.93678,-2.60514 1.91575,-3.58411 0.97897,-0.97897 2.22625,-1.64565 3.58411,-1.91575 1.35787,-0.2701 2.76533,-0.13147 4.04443,0.39834 1.2791,0.52981 2.3723,1.42702 3.1415,2.57816 0.7692,1.15115 1.1797,2.50453 1.1797,3.889 0,1.8565001 -0.7375,3.6370001 -2.0502,4.9497001 -1.3128,1.3128 -3.0933,2.0503 -4.94979,2.0503 z"
     fill="#14142b"
     id="path57" />
</svg>
