<svg viewBox="0 0 40 40" fill="none" xmlns="http://www.w3.org/2000/svg">
<g clip-path="url(#clip0_253_756)">
<path d="M25.45 16.3333H33.2333C35.0667 16.3333 36.5667 17.8333 36.5667 19.6666V36.6666H25.45V16.3333Z" stroke="#14142B" stroke-width="1.5" stroke-miterlimit="10" stroke-linecap="round" stroke-linejoin="round"/>
<path d="M6.66662 28.3333H14.45V36.6666H3.33329V31.6666C3.33329 29.8333 4.83329 28.3333 6.66662 28.3333Z" stroke="#14142B" stroke-width="1.5" stroke-miterlimit="10" stroke-linecap="round" stroke-linejoin="round"/>
<path d="M22.2169 22.6666H17.7669C15.9336 22.6666 14.4336 24.1666 14.4336 26V36.6666H25.5503V26C25.5503 24.1666 24.0669 22.6666 22.2169 22.6666Z" stroke="#14142B" stroke-width="1.5" stroke-miterlimit="10" stroke-linecap="round" stroke-linejoin="round"/>
<path d="M31.8666 1.44995L32.7499 3.21661C32.8666 3.46661 33.1832 3.69994 33.4499 3.73327L35.0499 3.99995C36.0666 4.16661 36.3166 4.91658 35.5832 5.63325L34.3332 6.88325C34.1166 7.09991 33.9999 7.49993 34.0666 7.78326L34.4166 9.31662C34.6999 10.5333 34.0499 11 32.9832 10.3666L31.4832 9.48329C31.2166 9.31663 30.7666 9.31663 30.4999 9.48329L28.9999 10.3666C27.9332 11 27.2832 10.5333 27.5666 9.31662L27.9166 7.78326C27.9832 7.49993 27.8666 7.08325 27.6499 6.88325L26.4166 5.64993C25.6832 4.9166 25.9166 4.18325 26.9499 4.01658L28.5499 3.74996C28.8166 3.69996 29.1332 3.46663 29.2499 3.23329L30.1332 1.46658C30.6166 0.499915 31.3832 0.499949 31.8666 1.44995Z" stroke="#2460D4" stroke-width="1.5" stroke-linecap="round" stroke-linejoin="round"/>
</g>
<defs>
<clipPath id="clip0_253_756">
<rect width="40" height="40" fill="white"/>
</clipPath>
</defs>
</svg>
