<svg width="18" height="15" viewBox="0 0 18 15" fill="none" xmlns="http://www.w3.org/2000/svg">
<path d="M1.18466 6.11454C5.74891 4.12643 8.79171 2.81561 10.3131 2.18234C14.6621 0.374004 15.5647 0.0599377 16.1542 0.0494198C16.2838 0.0472184 16.5724 0.0792609 16.7608 0.231647C16.9173 0.360063 16.9614 0.533729 16.9834 0.65554C17.003 0.777351 17.0299 1.05497 17.0079 1.27169C16.7731 3.74705 15.7531 9.75396 15.2345 12.5265C15.0168 13.6997 14.5839 14.093 14.1656 14.1314C13.2557 14.215 12.5659 13.5306 11.6853 12.9536C10.3082 12.0503 9.53042 11.4882 8.19245 10.6069C6.64658 9.58836 7.64941 9.02847 8.52997 8.11367C8.7599 7.8742 12.7664 4.23087 12.8423 3.90042C12.852 3.85908 12.8619 3.70498 12.7689 3.62377C12.6784 3.54232 12.5438 3.5702 12.446 3.59222C12.3066 3.62353 10.1076 5.07841 5.84175 7.95663C5.21802 8.38566 4.65301 8.5948 4.14424 8.58379C3.58655 8.5718 2.51038 8.26776 1.71053 8.008C0.732128 7.68928 -0.0481866 7.52075 0.0203017 6.97945C0.0545458 6.69767 0.443523 6.40929 1.18466 6.11454Z" fill="currentColor"/>
</svg>
