<svg width="82" height="89" viewBox="0 0 82 89" fill="none" xmlns="http://www.w3.org/2000/svg">
<g clip-path="url(#clip0_2340_11221)">
<circle opacity="0.15" cx="54.4232" cy="40.2621" r="17.2553" fill="#007CD3"/>
<rect x="12.0039" y="86.2677" width="47.9313" height="1.91725" rx="0.958626" fill="#14142B"/>
<path fill-rule="evenodd" clip-rule="evenodd" d="M38.1818 32.1666C37.9495 31.9736 37.7398 31.7721 37.562 31.5756C37.236 31.2456 36.5996 30.1504 35.9555 28.8618C35.3722 27.6523 34.5799 26.2844 34.1589 25.7609C33.7641 25.2463 33.1428 24.582 32.8036 24.2916C32.4644 24.0012 31.72 23.4863 31.1495 23.1475C30.3698 22.6941 29.7768 22.4652 28.7778 22.1876C28.0404 21.9981 27.0846 21.8085 26.6566 21.7819C26.2286 21.7553 25.4202 21.7768 24.8826 21.8161C24.345 21.8553 23.4529 21.9955 22.8887 22.1139C22.3375 22.2368 21.3485 22.5352 20.7137 22.7767C20.0614 23.0269 18.9967 23.5935 18.3303 24.0153C17.6595 24.4502 16.8175 25.0477 16.4619 25.3685C16.0976 25.6717 15.4387 26.3309 14.9948 26.8275C14.5509 27.3241 13.9041 28.1635 13.5518 28.691C13.2125 29.2228 12.6436 30.2206 12.2948 30.9107C11.9459 31.6008 11.3793 32.9812 11.0419 33.9835C10.7089 34.9726 10.3038 36.3926 10.1425 37.1312C9.97266 37.8522 9.74693 39.2151 9.62401 40.1428C9.50109 41.0705 9.37092 42.539 9.33561 43.4228C9.28723 44.3022 9.29227 48.2682 9.341 52.2343C9.38973 56.2004 9.45528 60.2896 9.48913 61.3141C9.53606 62.343 9.62481 63.7237 9.69115 64.3921C9.75749 65.0604 9.93573 66.0454 10.0771 66.5776C10.2184 67.1097 10.5763 67.9937 10.8618 68.5302C11.1429 69.08 11.672 69.8014 12.011 70.1358C12.3631 70.4745 12.9418 70.919 13.2816 71.1214C13.643 71.3458 14.3799 71.6233 14.9951 71.7863C15.8546 72.0022 16.2826 72.0289 17.1352 71.9194C17.8873 71.8055 18.5132 71.5904 19.2625 71.1819C19.8321 70.8744 20.5821 70.334 20.9116 70.0044C21.241 69.6749 21.8036 69.042 22.1599 68.5893C22.5163 68.1366 23.2027 67.2225 23.6695 66.528C24.1495 65.8379 24.6079 65.0819 24.6833 64.8577C24.781 64.5676 24.7607 64.2818 24.6137 63.9827C24.4927 63.7364 24.2537 63.4944 24.0705 63.4328C23.8874 63.3711 23.621 63.3402 23.468 63.3621C23.3325 63.3752 23.0738 63.5377 22.9243 63.7223C22.7617 63.9025 22.1542 64.7552 21.5773 65.6035C21.0135 66.4562 20.16 67.5637 19.6899 68.0515C19.2329 68.5437 18.5658 69.0974 18.2196 69.3038C17.8778 69.4971 17.3261 69.7078 16.985 69.7692C16.4953 69.8393 16.1329 69.7907 15.2563 69.4956C14.3143 69.1785 14.0442 69.0289 13.54 68.5361C13.1837 68.1666 12.7849 67.5772 12.5476 67.0274C12.3406 66.5173 12.0927 65.4795 11.9962 64.7275C11.8867 63.9712 11.7844 62.674 11.7407 61.8518C11.697 61.0295 11.6231 56.8787 11.5715 52.6181C11.52 48.3574 11.5162 44.1715 11.5776 43.2965C11.626 42.4172 11.7424 41.0762 11.8427 40.3024C11.9429 39.5286 12.1904 38.1876 12.3785 37.3259C12.5932 36.3851 13.0287 35.0047 13.4542 33.8705C13.8972 32.7276 14.4587 31.4923 14.8952 30.7583C15.2963 30.0858 15.948 29.1452 16.3393 28.6749C16.7307 28.2047 17.4029 27.5059 17.82 27.1324C18.2501 26.7633 19.0833 26.1922 19.6749 25.8628C20.2664 25.5333 21.2256 25.1073 21.8164 24.9098C22.4118 24.6991 23.4353 24.471 24.1042 24.3879C24.7732 24.3047 25.739 24.2481 26.25 24.2879C26.8484 24.3278 27.6906 24.5086 28.6196 24.8213C29.7623 25.1913 30.2242 25.4202 30.8814 25.891C31.3253 26.2166 32.0036 26.8414 32.3813 27.2769C32.8112 27.774 33.3871 28.746 33.9446 29.9027C34.4198 30.9143 34.7996 31.7763 34.7774 31.8423C34.7597 31.895 34.3195 31.6881 33.7969 31.38C33.2829 31.0895 32.438 30.5702 31.9243 30.2358C31.4191 29.9189 30.9357 29.624 30.8703 29.602C30.7918 29.5756 30.5337 29.6502 30.3014 29.7776C29.986 29.9357 29.8145 30.1423 29.6857 30.5247C29.5481 30.9336 29.5603 31.1138 29.7339 31.3338C29.8684 31.4965 30.4165 31.9453 30.9738 32.3238C31.5265 32.7154 32.5805 33.3492 33.3342 33.7497C34.2012 34.2031 35.3914 34.6918 36.5951 35.097C37.8511 35.5198 38.8459 35.7666 39.549 35.8418C40.1253 35.9036 41.1171 35.8998 41.7424 35.8166C42.6386 35.7072 43.1858 35.5096 44.2986 34.9298C45.0741 34.5302 46.3141 33.8757 47.0414 33.4892C47.9965 32.9885 48.6619 32.7426 49.3659 32.6419C49.9168 32.563 50.7427 32.5327 51.2144 32.5594C51.6817 32.5992 52.5371 32.7843 53.1128 32.9781C53.6885 33.1719 54.5123 33.5373 54.9478 33.8014C55.3833 34.0654 56.1405 34.6287 56.6362 35.0599C57.132 35.491 57.8488 36.2609 58.2481 36.7624C58.6429 37.277 59.1889 38.1216 59.4875 38.6626C59.773 39.1991 60.1615 40.0787 60.329 40.6197C60.5096 41.165 60.7063 41.9653 60.7696 42.3831C60.8154 42.8096 60.8766 43.6231 60.878 44.1815C60.8794 44.7399 60.8132 45.672 60.7403 46.2348C60.6718 46.7844 60.434 47.967 60.2283 48.8375C59.9606 49.8926 59.5832 51.0137 59.1273 52.1082C58.7336 53.0182 58.1458 54.2886 57.8105 54.8952C57.4883 55.5062 56.8137 56.6446 56.3247 57.405C55.8357 58.1654 54.8583 59.5543 54.1499 60.4904C53.9901 60.6968 53.7656 60.9872 53.4934 61.3393C52.5363 62.5772 50.9895 64.578 49.5921 66.371C47.7972 68.674 45.7166 71.3066 44.9689 72.2296C44.2213 73.1525 43.14 74.3743 42.582 74.9499C41.822 75.7366 41.3086 76.1364 40.5026 76.5405C39.714 76.9358 39.2108 77.0894 38.5771 77.111C38.1227 77.1195 37.4634 77.0444 37.1101 76.9255C36.7744 76.7978 36.2907 76.5469 36.0384 76.3445C35.7861 76.1421 35.4125 75.7374 35.1913 75.4427C34.9875 75.1392 34.707 74.5015 34.5785 74.0177C34.45 73.534 34.3021 72.5885 34.2619 71.929C34.2218 71.2694 34.2765 69.2029 34.3782 67.343C34.4929 65.4876 34.5383 63.5354 34.4668 63.0121C34.4173 62.4668 34.1814 61.6533 33.9089 61.1211C33.6713 60.6153 33.1683 59.9027 32.8076 59.5464C32.3034 59.0536 31.9203 58.8072 31.1878 58.5166C30.4423 58.2215 30.032 58.1422 29.4159 58.155C28.9133 58.1767 28.2264 58.3566 27.6089 58.6333C27.0309 58.8792 26.3732 59.3185 26.0657 59.6261C25.7187 59.9645 25.5248 60.281 25.5194 60.47C25.5229 60.6327 25.5783 60.901 25.6516 61.0725C25.7336 61.2616 25.9642 61.442 26.2827 61.5345C26.636 61.6534 26.8895 61.636 27.1743 61.4823C27.3934 61.3505 27.7792 61.1133 28.0423 60.9375C28.3053 60.7618 28.7215 60.5642 28.9883 60.5071C29.3032 60.437 29.7224 60.49 30.2065 60.6529C30.6251 60.7939 31.0915 61.0096 31.248 61.1504C31.4046 61.2912 31.6908 61.6958 31.9029 62.0609C32.1452 62.5095 32.2863 63.0856 32.3262 63.7891C32.3624 64.374 32.2958 66.2162 32.1733 67.8782C32.0595 69.5578 31.9842 71.3825 32.0031 71.9321C32.0176 72.4949 32.1089 73.392 32.1846 73.946C32.2734 74.5045 32.5266 75.3532 32.7425 75.837C32.9628 76.3076 33.3569 76.9542 33.6174 77.2621C33.8824 77.5569 34.4129 78.0144 34.8048 78.2785C35.201 78.5293 35.9026 78.8683 36.3736 79.0268C36.8446 79.1854 37.6084 79.3397 38.0801 79.3664C38.5474 79.4062 39.2729 79.3714 39.6927 79.2925C40.0995 79.2092 40.9006 78.9063 41.4527 78.6076C42.0179 78.3133 42.8511 77.7422 43.3121 77.3247C43.7861 76.9117 44.6296 76.0503 45.2142 75.3955C45.7857 74.7363 46.7355 73.6024 47.3292 72.8772C47.9098 72.1477 50.2413 69.159 52.5026 66.2495C54.7638 63.34 57.0519 60.3074 57.5935 59.5206C58.1351 58.7339 58.9901 57.3625 59.4754 56.4834C59.9606 55.6043 60.7116 54.0658 61.1319 53.0767C61.5654 52.092 62.0621 50.7028 62.2406 49.9994C62.4323 49.3004 62.6743 48.1486 62.8003 47.4715C62.9131 46.79 63.0328 45.6557 63.0672 44.9478C63.0971 44.2531 63.0763 43.233 63.0181 42.6701C62.9644 42.0941 62.7946 41.1707 62.6404 40.5902C62.4862 40.0097 62.1246 39.007 61.8353 38.3517C61.5592 37.7008 60.9662 36.6496 60.5371 36.0206C60.1079 35.3916 59.3308 34.4546 58.7963 33.9223C58.2748 33.3943 57.3963 32.6288 56.8174 32.2283C55.9513 31.5991 55.5504 31.4054 54.0371 30.8813C52.707 30.4189 52.0437 30.269 51.3449 30.2246C50.8295 30.198 50.0036 30.2283 49.5008 30.294C49.0024 30.3464 48.0749 30.5922 47.4314 30.816C46.788 31.0399 45.7146 31.589 45.0263 32.0327C44.338 32.4764 43.4835 32.9376 43.1508 33.0605C42.8006 33.1922 42.1751 33.3194 41.7642 33.3719C41.3445 33.4068 40.9294 33.4286 40.8378 33.3978C40.8233 33.3929 40.7915 33.339 40.7478 33.2452C40.4317 33.2822 40.1079 33.2498 39.7998 33.1461L39.0794 32.9036C38.6991 32.7756 38.3803 32.5128 38.1818 32.1666Z" fill="#14142B"/>
<path fill-rule="evenodd" clip-rule="evenodd" d="M41.6448 22.8014L41.6162 22.7832L41.7546 22.4406C41.7095 22.5521 41.6733 22.673 41.6448 22.8014ZM41.2452 1.35704C41.4027 1.24217 41.626 1.11896 41.9461 0.981553L62.1874 9.1577C78.9558 15.931 79.7827 16.28 80.1752 16.7087C80.4047 16.9515 80.6921 17.3827 80.8135 17.6719C80.9349 17.9611 81.0422 18.4696 81.0555 18.8052C81.0807 19.2956 80.96 19.7421 80.4127 21.0969C79.8707 22.4388 79.6423 22.8568 79.2835 23.1921C79.0408 23.4243 78.5128 23.7363 78.127 23.8806C77.7231 24.0326 77.1529 24.1174 76.8528 24.0862C76.5399 24.0499 73.2038 22.7624 68.3269 20.7924C60.4751 17.6358 58.3645 16.6643 58.1231 16.2667C58.0586 16.1624 58.0149 16.073 57.9911 15.9855C58.1281 15.6636 58.2887 15.2789 58.4806 14.8162C58.5539 14.7762 58.6408 14.7457 58.7485 14.7183C59.1049 14.6245 60.5103 15.1986 64.9593 17.0161C66.1258 17.4927 67.5015 18.0547 69.1223 18.7125L69.1224 18.7125C76.9305 21.8665 77.0969 21.9337 77.4572 21.779C77.7634 21.6476 77.8852 21.4567 78.3647 20.2696C78.8442 19.0826 78.8891 18.8606 78.7601 18.5534C78.6084 18.1919 78.442 18.1247 60.1759 10.7464L58.7668 14.1243C58.6642 14.3726 58.5691 14.6027 58.4806 14.8162C58.3053 14.9118 58.2078 15.0618 58.0902 15.3529C57.9777 15.6314 57.9417 15.8042 57.9911 15.9855C57.3721 17.4391 57.2327 17.6135 56.8624 17.9175C56.5837 18.1651 56.0197 18.4926 55.5926 18.6652C55.1835 18.8302 54.4924 18.9562 54.0639 18.9482C53.6533 18.9325 53.0048 18.8056 52.0192 18.4075L51.1625 20.4177C50.4101 22.1698 50.231 22.5027 49.7845 22.9076C49.5134 23.1733 48.9698 23.524 48.5915 23.6864C48.2081 23.8617 47.5501 24.0162 47.1368 24.0443C46.6054 24.0698 45.9824 23.9532 43.8026 23.2678L41.7546 22.4406L40.5494 21.8487C39.6591 21.399 39.1888 21.089 38.8218 20.6706C38.5311 20.3581 38.1783 19.7203 38.0118 19.2478C37.8529 18.7934 37.739 18.1171 37.7669 17.7532C37.7929 17.2834 38.0335 16.5402 39.3208 13.3532L38.4945 12.9294C37.9649 12.6554 37.459 12.286 37.1456 11.9193C36.8602 11.5939 36.5377 11.0284 36.4039 10.6592C36.2754 10.2771 36.1482 9.67043 36.1377 9.29099C36.1134 8.65084 36.2129 8.33083 37.5765 4.8445C38.3795 2.78263 39.1272 0.968522 39.2282 0.829201C39.3471 0.682148 39.5869 0.493872 39.7851 0.408817C39.9832 0.323763 40.3117 0.321388 40.5293 0.409286C40.7599 0.502436 40.9599 0.704638 41.2452 1.35704ZM40.8883 2.46926C40.813 2.22069 40.8176 1.96903 40.9019 1.76042C40.954 1.63135 41.0482 1.50072 41.2452 1.35704C41.2608 1.39268 41.2766 1.42967 41.2928 1.46806L40.8883 2.46926ZM40.8883 2.46926C40.9015 2.51279 40.9172 2.55623 40.9353 2.59933L41.125 3.05115L58.1279 9.91917C55.7461 15.8157 55.6162 16.0634 55.2295 16.3574C54.9949 16.5328 54.5602 16.6874 54.2753 16.6924C53.8235 16.705 52.6483 16.2603 46.4529 13.7578C39.7584 11.0536 39.1236 10.7822 38.7898 10.3922C38.5527 10.1314 38.4137 9.77511 38.3828 9.37242C38.3528 8.82003 38.4784 8.43551 39.8178 5.11952L40.8883 2.46926ZM39.9817 18.1676C39.9556 17.8268 40.1076 17.3029 40.6653 15.9224L41.3949 14.116L49.9711 17.5802L49.2964 19.2137C48.9212 20.1426 48.4872 21.0329 48.2933 21.2547C48.0995 21.4766 47.7312 21.688 47.3946 21.7472C46.8395 21.8682 46.7447 21.8449 43.7163 20.6066C41.0026 19.5104 40.5778 19.3088 40.3232 18.9809C40.1705 18.7691 40.0187 18.4076 39.9817 18.1676Z" fill="#14142B"/>
<path d="M13.7355 16.6516L13.8337 17.1027L14.2849 17.201L18.9319 18.2135L14.2849 19.2259L13.8337 19.3242L13.7355 19.7754L12.723 24.4224L11.7105 19.7754L11.6122 19.3242L11.1611 19.2259L6.51405 18.2135L11.1611 17.201L11.6122 17.1027L11.7105 16.6516L12.723 12.0045L13.7355 16.6516Z" stroke="black" stroke-width="1.43794"/>
</g>
<defs>
<clipPath id="clip0_2340_11221">
<rect width="81.9993" height="88.1936" fill="white"/>
</clipPath>
</defs>
</svg>
