<svg width="22" height="13" viewBox="0 0 22 13" fill="none" xmlns="http://www.w3.org/2000/svg">
<path fill-rule="evenodd" clip-rule="evenodd" d="M11.1553 12.0434H12.4105C12.4105 12.0434 12.7896 12.0016 12.9834 11.7927C13.1615 11.6007 13.1558 11.2404 13.1558 11.2404C13.1558 11.2404 13.1313 9.55345 13.9128 9.30502C14.6836 9.06015 15.6731 10.9354 16.7218 11.6566C17.5149 12.2021 18.1176 12.0827 18.1176 12.0827L20.9221 12.0434C20.9221 12.0434 22.389 11.9528 21.6934 10.7974C21.6365 10.7031 21.2882 9.94283 19.6082 8.38087C17.8495 6.74602 18.0853 7.01052 20.2035 4.18264C21.4935 2.46046 22.0092 1.40913 21.848 0.958863C21.6945 0.529856 20.7456 0.643182 20.7456 0.643182L17.588 0.662736C17.588 0.662736 17.3538 0.630813 17.1803 0.734805C17.0106 0.836502 16.9017 1.07411 16.9017 1.07411C16.9017 1.07411 16.4017 2.40669 15.7354 3.54017C14.3294 5.93156 13.7671 6.05814 13.5372 5.90941C13.0025 5.56328 13.1362 4.51921 13.1362 3.77726C13.1362 1.45964 13.4871 0.49334 12.4527 0.24321C12.1095 0.160252 11.8567 0.105367 10.9789 0.0964049C9.85213 0.0849242 8.89872 0.0998864 8.35875 0.364831C7.99951 0.541041 7.72236 0.933606 7.89125 0.956197C8.10001 0.984047 8.57254 1.08397 8.82307 1.42542C9.14674 1.8665 9.13543 2.85666 9.13543 2.85666C9.13543 2.85666 9.32141 5.58484 8.7012 5.92363C8.27563 6.15606 7.69174 5.68157 6.43818 3.51195C5.79601 2.40062 5.31099 1.17203 5.31099 1.17203C5.31099 1.17203 5.21759 0.942494 5.05077 0.819614C4.84844 0.670735 4.56574 0.623554 4.56574 0.623554L1.56508 0.643182C1.56508 0.643182 1.11474 0.655773 0.949244 0.851982C0.802014 1.02664 0.937488 1.38743 0.937488 1.38743C0.937488 1.38743 3.28652 6.89238 5.94657 9.66655C8.38589 12.2104 11.1553 12.0434 11.1553 12.0434Z" fill="white"/>
</svg>
