<svg
   width="19.328453"
   height="18.808113"
   viewBox="0 0 19.328453 18.808113"
   fill="none"
   version="1.1"
   id="svg202"
   xmlns="http://www.w3.org/2000/svg"
   xmlns:svg="http://www.w3.org/2000/svg">
  <path
     d="m 14.984353,10.275913 c -0.357,0.3485 -0.561,0.85 -0.51,1.3855 0.0765,0.918 0.918,1.5895 1.836,1.5895 h 1.615 v 1.0115 c 0,1.7595 -1.4365,3.196 -3.196,3.196 h -8.59346 c 0.2635,-0.221 0.493,-0.493 0.6715,-0.799 0.3145,-0.51 0.493,-1.1135 0.493,-1.751 0,-1.8785 -1.5215,-3.4 -3.4,-3.4 -0.799,0 -1.5385,0.2805 -2.125,0.748 V 8.5419127 c 0,-1.7595 1.43649,-3.19601 3.19599,-3.19601 h 9.75797 c 1.7595,0 3.196,1.43651 3.196,3.19601 v 1.224 h -1.717 c -0.476,0 -0.9095,0.187 -1.224,0.5100003 z"
     stroke="currentColor"
     stroke-linecap="round"
     stroke-linejoin="round"
     id="path190" />
  <path
     d="m 1.775393,9.3069127 v -3.88442 c 0,-1.0115 0.62049,-1.91254 1.56399,-2.26954 l 5.89901,-2.54999999 c 1.05396,-0.3995 2.18446,0.38253 2.18446,1.51302999 l 0.85,3.22999"
     stroke="currentColor"
     stroke-linecap="round"
     stroke-linejoin="round"
     id="path192" />
  <path
     d="m 18.828453,10.632713 v 1.751 c 0,0.4675 -0.374,0.85 -0.85,0.867 h -1.6659 c -0.918,0 -1.7595,-0.6715 -1.836,-1.5895 -0.051,-0.5355 0.1529,-1.037 0.5099,-1.3855 0.3145,-0.3230003 0.748,-0.5100003 1.224,-0.5100003 h 1.768 c 0.476,0.017 0.85,0.3995003 0.85,0.8670003 z"
     stroke="currentColor"
     stroke-linecap="round"
     stroke-linejoin="round"
     id="path194" />
  <path
     d="m 5.603513,8.9581127 h 5.95004"
     stroke="currentColor"
     stroke-linecap="round"
     stroke-linejoin="round"
     id="path196" />
  <path
     d="m 7.300003,14.908113 c 0,0.6375 -0.1785,1.241 -0.493,1.751 -0.1785,0.306 -0.408,0.578 -0.6715,0.799 -0.595,0.5355 -1.377,0.85 -2.2355,0.85 -1.241,0 -2.3205,-0.663 -2.907,-1.649 -0.3145,-0.51 -0.493003,-1.1135 -0.493003,-1.751 0,-1.071 0.493003,-2.0315 1.275003,-2.652 0.5865,-0.4675 1.326,-0.748 2.125,-0.748 1.8785,0 3.4,1.5215 3.4,3.4 z"
     stroke="currentColor"
     stroke-miterlimit="10"
     stroke-linecap="round"
     stroke-linejoin="round"
     id="path198" />
  <path
     d="m 2.574223,14.907813 0.84149,0.8415 1.8105,-1.6745"
     stroke="currentColor"
     stroke-linecap="round"
     stroke-linejoin="round"
     id="path200" />
</svg>
