<svg width="19" height="16" viewBox="0 0 19 16" fill="none" xmlns="http://www.w3.org/2000/svg">
<path d="M16.6216 3.40156C16.5503 3.12219 16.3478 2.91125 16.1163 2.84656C15.7066 2.73125 13.7097 2.46875 9.49097 2.46875C5.27222 2.46875 3.27722 2.73125 2.86378 2.84656C2.63503 2.91031 2.43253 3.12125 2.36034 3.40156C2.25815 3.79906 1.99097 5.465 1.99097 8.09375C1.99097 10.7225 2.25815 12.3875 2.36034 12.7869C2.43159 13.0653 2.63409 13.2763 2.86472 13.34C3.27722 13.4563 5.27222 13.7188 9.49097 13.7188C13.7097 13.7188 15.7057 13.4563 16.1182 13.3409C16.3469 13.2772 16.5494 13.0662 16.6216 12.7859C16.7238 12.3884 16.991 10.7187 16.991 8.09375C16.991 5.46875 16.7238 3.8 16.6216 3.40156ZM18.4375 2.93563C18.866 4.60625 18.866 8.09375 18.866 8.09375C18.866 8.09375 18.866 11.5813 18.4375 13.2519C18.1994 14.1753 17.5028 14.9019 16.6207 15.1475C15.0185 15.5938 9.49097 15.5938 9.49097 15.5938C9.49097 15.5938 3.96628 15.5938 2.36128 15.1475C1.47534 14.8981 0.779717 14.1725 0.544404 13.2519C0.115967 11.5813 0.115967 8.09375 0.115967 8.09375C0.115967 8.09375 0.115967 4.60625 0.544404 2.93563C0.782529 2.01219 1.47909 1.28562 2.36128 1.04C3.96628 0.59375 9.49097 0.59375 9.49097 0.59375C9.49097 0.59375 15.0185 0.59375 16.6207 1.04C17.5066 1.28937 18.2022 2.015 18.4375 2.93563ZM7.61597 11.375V4.8125L13.241 8.09375L7.61597 11.375Z" fill="currentColor"/>
</svg>
